NotoAmalgamated-DisplayLightCondensedItalic.ufo
<glyph name="numbersign" format="2">
  <advance width="359"/>
  <unicode hex="0023"/>
  <outline>
    <contour>
      <point x="2" y="0" type="line"/>
      <point x="28" y="0" type="line"/>
      <point x="99" y="235" type="line"/>
      <point x="203" y="235" type="line"/>
      <point x="132" y="0" type="line"/>
      <point x="157" y="0" type="line"/>
      <point x="229" y="235" type="line"/>
      <point x="306" y="235" type="line"/>
      <point x="307" y="260" type="line"/>
      <point x="237" y="260" type="line"/>
      <point x="304" y="481" type="line"/>
      <point x="377" y="481" type="line"/>
      <point x="377" y="506" type="line"/>
      <point x="312" y="506" type="line"/>
      <point x="376" y="714" type="line"/>
      <point x="350" y="714" type="line"/>
      <point x="287" y="506" type="line"/>
      <point x="183" y="506" type="line"/>
      <point x="246" y="714" type="line"/>
      <point x="221" y="714" type="line"/>
      <point x="157" y="506" type="line"/>
      <point x="75" y="506" type="line"/>
      <point x="75" y="481" type="line"/>
      <point x="149" y="481" type="line"/>
      <point x="82" y="260" type="line"/>
      <point x="4" y="260" type="line"/>
      <point x="4" y="235" type="line"/>
      <point x="74" y="235" type="line"/>
    </contour>
    <contour>
      <point x="107" y="260" type="line"/>
      <point x="175" y="481" type="line"/>
      <point x="279" y="481" type="line"/>
      <point x="211" y="260" type="line"/>
    </contour>
  </outline>
</glyph>
<glyph name="dollar" format="2">
  <advance width="336"/>
  <unicode hex="0024"/>
  <outline>
    <contour>
      <point x="99" y="38" type="curve"/>
      <point x="79" y="-58" type="line"/>
      <point x="102" y="-58" type="line"/>
      <point x="123" y="38" type="line"/>
      <point x="221" y="44"/>
      <point x="277" y="104"/>
      <point x="277" y="206" type="curve" smooth="yes"/>
      <point x="277" y="264"/>
      <point x="240" y="309"/>
      <point x="192" y="362" type="curve"/>
      <point x="253" y="653" type="line"/>
      <point x="298" y="651"/>
      <point x="329" y="636"/>
      <point x="347" y="624" type="curve"/>
      <point x="359" y="647" type="line"/>
      <point x="342" y="658"/>
      <point x="306" y="674"/>
      <point x="258" y="677" type="curve"/>
      <point x="276" y="760" type="line"/>
      <point x="253" y="760" type="line"/>
      <point x="235" y="677" type="line"/>
      <point x="142" y="673"/>
      <point x="83" y="620"/>
      <point x="83" y="516" type="curve" smooth="yes"/>
      <point x="83" y="447"/>
      <point x="122" y="405"/>
      <point x="167" y="354" type="curve"/>
      <point x="105" y="62" type="line"/>
      <point x="52" y="63"/>
      <point x="16" y="74"/>
      <point x="-9" y="89" type="curve"/>
      <point x="-9" y="62" type="line"/>
      <point x="13" y="52"/>
      <point x="48" y="39"/>
    </contour>
    <contour>
      <point x="129" y="63" type="curve"/>
      <point x="185" y="332" type="line"/>
      <point x="226" y="286"/>
      <point x="251" y="254"/>
      <point x="251" y="206" type="curve" smooth="yes"/>
      <point x="251" y="118"/>
      <point x="210" y="69"/>
    </contour>
    <contour>
      <point x="230" y="653" type="curve"/>
      <point x="173" y="383" type="line"/>
      <point x="134" y="427"/>
      <point x="109" y="463"/>
      <point x="109" y="518" type="curve" smooth="yes"/>
      <point x="109" y="603"/>
      <point x="152" y="648"/>
    </contour>
  </outline>
</glyph>
<glyph name="percent" format="2">
  <advance width="511"/>
  <unicode hex="0025"/>
  <outline>
    <contour>
      <point x="73" y="0" type="line"/>
      <point x="101" y="0" type="line"/>
      <point x="448" y="714" type="line"/>
      <point x="422" y="714" type="line"/>
    </contour>
    <contour>
      <point x="109" y="276" type="curve" smooth="yes"/>
      <point x="211" y="276"/>
      <point x="259" y="519"/>
      <point x="259" y="629" type="curve" smooth="yes"/>
      <point x="259" y="697"/>
      <point x="237" y="724"/>
      <point x="199" y="724" type="curve" smooth="yes"/>
      <point x="99" y="724"/>
      <point x="48" y="504"/>
      <point x="48" y="379" type="curve" smooth="yes"/>
      <point x="48" y="302"/>
      <point x="72" y="276"/>
    </contour>
    <contour>
      <point x="112" y="301" type="curve" smooth="yes"/>
      <point x="89" y="301"/>
      <point x="74" y="319"/>
      <point x="74" y="383" type="curve" smooth="yes"/>
      <point x="74" y="493"/>
      <point x="124" y="699"/>
      <point x="196" y="699" type="curve" smooth="yes"/>
      <point x="220" y="699"/>
      <point x="233" y="682"/>
      <point x="233" y="627" type="curve" smooth="yes"/>
      <point x="233" y="540"/>
      <point x="188" y="301"/>
    </contour>
    <contour>
      <point x="322" y="-12" type="curve" smooth="yes"/>
      <point x="425" y="-12"/>
      <point x="473" y="231"/>
      <point x="473" y="341" type="curve" smooth="yes"/>
      <point x="473" y="409"/>
      <point x="452" y="436"/>
      <point x="414" y="436" type="curve" smooth="yes"/>
      <point x="313" y="436"/>
      <point x="262" y="216"/>
      <point x="262" y="91" type="curve" smooth="yes"/>
      <point x="262" y="14"/>
      <point x="286" y="-12"/>
    </contour>
    <contour>
      <point x="326" y="13" type="curve" smooth="yes"/>
      <point x="303" y="13"/>
      <point x="288" y="31"/>
      <point x="288" y="95" type="curve" smooth="yes"/>
      <point x="288" y="205"/>
      <point x="338" y="411"/>
      <point x="410" y="411" type="curve" smooth="yes"/>
      <point x="434" y="411"/>
      <point x="447" y="394"/>
      <point x="447" y="339" type="curve" smooth="yes"/>
      <point x="447" y="252"/>
      <point x="402" y="13"/>
    </contour>
  </outline>
</glyph>
<glyph name="ampersand" format="2">
  <advance width="318"/>
  <unicode hex="0026"/>
  <outline>
    <contour>
      <point x="84" y="-10" type="curve" smooth="yes"/>
      <point x="148" y="-10"/>
      <point x="184" y="38"/>
      <point x="211" y="85" type="curve"/>
      <point x="231" y="0" type="line"/>
      <point x="254" y="0" type="line"/>
      <point x="230" y="109" type="line"/>
      <point x="262" y="171"/>
      <point x="286" y="239"/>
      <point x="300" y="299" type="curve"/>
      <point x="275" y="299" type="line"/>
      <point x="262" y="242"/>
      <point x="241" y="186"/>
      <point x="221" y="144" type="curve"/>
      <point x="164" y="380" type="line"/>
      <point x="235" y="447"/>
      <point x="285" y="535"/>
      <point x="285" y="639" type="curve" smooth="yes"/>
      <point x="285" y="694"/>
      <point x="260" y="724"/>
      <point x="221" y="724" type="curve" smooth="yes"/>
      <point x="153" y="724"/>
      <point x="115" y="646"/>
      <point x="115" y="535" type="curve" smooth="yes"/>
      <point x="115" y="486"/>
      <point x="122" y="431"/>
      <point x="133" y="387" type="curve"/>
      <point x="46" y="307"/>
      <point x="-11" y="221"/>
      <point x="-11" y="109" type="curve" smooth="yes"/>
      <point x="-11" y="31"/>
      <point x="25" y="-10"/>
    </contour>
    <contour>
      <point x="86" y="15" type="curve" smooth="yes"/>
      <point x="43" y="15"/>
      <point x="16" y="49"/>
      <point x="16" y="113" type="curve" smooth="yes"/>
      <point x="16" y="211"/>
      <point x="65" y="286"/>
      <point x="142" y="362" type="curve"/>
      <point x="203" y="114" type="line"/>
      <point x="175" y="64"/>
      <point x="145" y="15"/>
    </contour>
    <contour>
      <point x="157" y="407" type="curve"/>
      <point x="147" y="443"/>
      <point x="142" y="485"/>
      <point x="142" y="535" type="curve" smooth="yes"/>
      <point x="142" y="620"/>
      <point x="170" y="699"/>
      <point x="218" y="699" type="curve" smooth="yes"/>
      <point x="243" y="699"/>
      <point x="257" y="676"/>
      <point x="257" y="638" type="curve" smooth="yes"/>
      <point x="257" y="547"/>
      <point x="215" y="464"/>
    </contour>
  </outline>
</glyph>
<glyph name="parenleft" format="2">
  <advance width="236"/>
  <unicode hex="0028"/>
  <outline>
    <contour>
      <point x="85" y="-158" type="curve"/>
      <point x="109" y="-158" type="line"/>
      <point x="73" y="-81"/>
      <point x="53" y="26"/>
      <point x="53" y="130" type="curve" smooth="yes"/>
      <point x="53" y="354"/>
      <point x="134" y="522"/>
      <point x="293" y="710" type="curve"/>
      <point x="269" y="710" type="line"/>
      <point x="112" y="536"/>
      <point x="26" y="361"/>
      <point x="26" y="132" type="curve" smooth="yes"/>
      <point x="26" y="27"/>
      <point x="50" y="-82"/>
    </contour>
  </outline>
</glyph>
<glyph name="parenright" format="2">
  <advance width="237"/>
  <unicode hex="0029"/>
  <outline>
    <contour>
      <point x="-68" y="-158" type="curve"/>
      <point x="-44" y="-158" type="line"/>
      <point x="113" y="15"/>
      <point x="199" y="191"/>
      <point x="199" y="420" type="curve" smooth="yes"/>
      <point x="199" y="525"/>
      <point x="176" y="634"/>
      <point x="140" y="710" type="curve"/>
      <point x="116" y="710" type="line"/>
      <point x="152" y="633"/>
      <point x="172" y="526"/>
      <point x="172" y="422" type="curve" smooth="yes"/>
      <point x="172" y="198"/>
      <point x="91" y="30"/>
    </contour>
  </outline>
</glyph>
<glyph name="asterisk" format="2">
  <advance width="310"/>
  <unicode hex="002A"/>
  <outline>
    <contour>
      <point x="292" y="490" type="line"/>
      <point x="310" y="500" type="line"/>
      <point x="247" y="612" type="line"/>
      <point x="360" y="636" type="line"/>
      <point x="358" y="655" type="line"/>
      <point x="245" y="626" type="line"/>
      <point x="271" y="753" type="line"/>
      <point x="250" y="757" type="line"/>
      <point x="230" y="628" type="line"/>
      <point x="131" y="693" type="line"/>
      <point x="120" y="677" type="line"/>
      <point x="225" y="616" type="line"/>
      <point x="123" y="531" type="line"/>
      <point x="136" y="517" type="line"/>
      <point x="235" y="604" type="line"/>
    </contour>
  </outline>
</glyph>
<glyph name="plus" format="2">
  <advance width="387"/>
  <unicode hex="002B"/>
  <outline>
    <contour>
      <point x="226" y="363" type="line"/>
      <point x="226" y="583" type="line"/>
      <point x="202" y="583" type="line"/>
      <point x="202" y="363" type="line"/>
      <point x="48" y="363" type="line"/>
      <point x="48" y="339" type="line"/>
      <point x="202" y="339" type="line"/>
      <point x="202" y="123" type="line"/>
      <point x="226" y="123" type="line"/>
      <point x="226" y="339" type="line"/>
      <point x="378" y="339" type="line"/>
      <point x="378" y="363" type="line"/>
    </contour>
  </outline>
</glyph>
<glyph name="comma" format="2">
  <advance width="152"/>
  <unicode hex="002C"/>
  <outline>
    <contour>
      <point x="-39" y="-127" type="curve"/>
      <point x="-20" y="-127" type="line"/>
      <point x="18" y="-72"/>
      <point x="61" y="22"/>
      <point x="79" y="80" type="curve"/>
      <point x="75" y="91" type="line"/>
      <point x="51" y="91" type="line"/>
      <point x="35" y="26"/>
      <point x="-6" y="-69"/>
    </contour>
  </outline>
</glyph>
<glyph name="slash" format="2">
  <advance width="286"/>
  <unicode hex="002F"/>
  <outline>
    <contour>
      <point x="-44" y="2" type="line"/>
      <point x="-18" y="2" type="line"/>
      <point x="354" y="712" type="line"/>
      <point x="329" y="712" type="line"/>
    </contour>
  </outline>
</glyph>
<glyph name="zero" format="2">
  <advance width="336"/>
  <unicode hex="0030"/>
  <outline>
    <contour>
      <point x="109" y="-10" type="curve" smooth="yes"/>
      <point x="260" y="-10"/>
      <point x="336" y="393"/>
      <point x="336" y="577" type="curve" smooth="yes"/>
      <point x="336" y="681"/>
      <point x="310" y="724"/>
      <point x="251" y="724" type="curve" smooth="yes"/>
      <point x="92" y="724"/>
      <point x="19" y="308"/>
      <point x="19" y="156" type="curve" smooth="yes"/>
      <point x="19" y="35"/>
      <point x="52" y="-10"/>
    </contour>
    <contour>
      <point x="109" y="15" type="curve" smooth="yes"/>
      <point x="71" y="15"/>
      <point x="46" y="50"/>
      <point x="46" y="156" type="curve" smooth="yes"/>
      <point x="46" y="304"/>
      <point x="123" y="699"/>
      <point x="249" y="699" type="curve" smooth="yes"/>
      <point x="290" y="699"/>
      <point x="309" y="666"/>
      <point x="309" y="576" type="curve" smooth="yes"/>
      <point x="309" y="418"/>
      <point x="235" y="15"/>
    </contour>
  </outline>
</glyph>
<glyph name="one" format="2">
  <advance width="336"/>
  <unicode hex="0031"/>
  <outline>
    <contour>
      <point x="230" y="606" type="curve" smooth="yes"/>
      <point x="102" y="0" type="line"/>
      <point x="129" y="0" type="line"/>
      <point x="280" y="714" type="line"/>
      <point x="252" y="714" type="line"/>
      <point x="114" y="601" type="line"/>
      <point x="130" y="583" type="line"/>
      <point x="219" y="656" type="line" smooth="yes"/>
      <point x="232" y="666"/>
      <point x="240" y="675"/>
      <point x="249" y="684" type="curve"/>
      <point x="241" y="653"/>
      <point x="235" y="630"/>
    </contour>
  </outline>
</glyph>
<glyph name="three" format="2">
  <advance width="336"/>
  <unicode hex="0033"/>
  <outline>
    <contour>
      <point x="77" y="-11" type="curve" smooth="yes"/>
      <point x="213" y="-11"/>
      <point x="271" y="114"/>
      <point x="271" y="225" type="curve" smooth="yes"/>
      <point x="271" y="311"/>
      <point x="236" y="353"/>
      <point x="194" y="368" type="curve"/>
      <point x="195" y="371" type="line"/>
      <point x="279" y="388"/>
      <point x="343" y="487"/>
      <point x="343" y="593" type="curve" smooth="yes"/>
      <point x="343" y="667"/>
      <point x="303" y="724"/>
      <point x="225" y="724" type="curve" smooth="yes"/>
      <point x="168" y="724"/>
      <point x="129" y="699"/>
      <point x="104" y="677" type="curve"/>
      <point x="121" y="654" type="line"/>
      <point x="143" y="675"/>
      <point x="175" y="699"/>
      <point x="223" y="699" type="curve" smooth="yes"/>
      <point x="287" y="699"/>
      <point x="316" y="657"/>
      <point x="316" y="591" type="curve" smooth="yes"/>
      <point x="316" y="494"/>
      <point x="258" y="383"/>
      <point x="140" y="383" type="curve" smooth="yes"/>
      <point x="114" y="383" type="line"/>
      <point x="109" y="358" type="line"/>
      <point x="133" y="358" type="line" smooth="yes"/>
      <point x="201" y="358"/>
      <point x="244" y="324"/>
      <point x="244" y="222" type="curve" smooth="yes"/>
      <point x="244" y="130"/>
      <point x="198" y="14"/>
      <point x="77" y="14" type="curve" smooth="yes"/>
      <point x="34" y="14"/>
      <point x="3" y="27"/>
      <point x="-22" y="43" type="curve"/>
      <point x="-22" y="12" type="line"/>
      <point x="-1" y="-1"/>
      <point x="30" y="-11"/>
    </contour>
  </outline>
</glyph>
<glyph name="four" format="2">
  <advance width="336"/>
  <unicode hex="0034"/>
  <outline>
    <contour>
      <point x="163" y="0" type="line"/>
      <point x="190" y="0" type="line"/>
      <point x="226" y="168" type="line"/>
      <point x="294" y="168" type="line"/>
      <point x="299" y="193" type="line"/>
      <point x="232" y="193" type="line"/>
      <point x="344" y="723" type="line"/>
      <point x="303" y="723" type="line"/>
      <point x="-16" y="187" type="line"/>
      <point x="-19" y="168" type="line"/>
      <point x="199" y="168" type="line"/>
    </contour>
    <contour>
      <point x="17" y="193" type="line"/>
      <point x="267" y="616" type="line" smooth="yes"/>
      <point x="286" y="648"/>
      <point x="296" y="667"/>
      <point x="313" y="699" type="curve"/>
      <point x="315" y="699" type="line"/>
      <point x="307" y="665"/>
      <point x="299" y="623"/>
      <point x="290" y="583" type="curve" smooth="yes"/>
      <point x="205" y="193" type="line"/>
    </contour>
  </outline>
</glyph>
<glyph name="five" format="2">
  <advance width="336"/>
  <unicode hex="0035"/>
  <outline>
    <contour>
      <point x="70" y="-10" type="curve" smooth="yes"/>
      <point x="221" y="-10"/>
      <point x="286" y="127"/>
      <point x="286" y="260" type="curve" smooth="yes"/>
      <point x="286" y="362"/>
      <point x="238" y="422"/>
      <point x="147" y="422" type="curve" smooth="yes"/>
      <point x="118" y="422"/>
      <point x="99" y="416"/>
      <point x="86" y="412" type="curve"/>
      <point x="162" y="689" type="line"/>
      <point x="340" y="689" type="line"/>
      <point x="346" y="714" type="line"/>
      <point x="144" y="714" type="line"/>
      <point x="58" y="406" type="line"/>
      <point x="73" y="383" type="line"/>
      <point x="92" y="391"/>
      <point x="115" y="397"/>
      <point x="144" y="397" type="curve" smooth="yes"/>
      <point x="220" y="397"/>
      <point x="259" y="352"/>
      <point x="259" y="258" type="curve" smooth="yes"/>
      <point x="259" y="141"/>
      <point x="205" y="15"/>
      <point x="71" y="15" type="curve" smooth="yes"/>
      <point x="27" y="15"/>
      <point x="-6" y="31"/>
      <point x="-26" y="44" type="curve"/>
      <point x="-26" y="14" type="line"/>
      <point x="-8" y="4"/>
      <point x="24" y="-10"/>
    </contour>
  </outline>
</glyph>
<glyph name="six" format="2">
  <advance width="336"/>
  <unicode hex="0036"/>
  <outline>
    <contour>
      <point x="124" y="-10" type="curve" smooth="yes"/>
      <point x="248" y="-10"/>
      <point x="301" y="169"/>
      <point x="301" y="296" type="curve" smooth="yes"/>
      <point x="301" y="384"/>
      <point x="260" y="435"/>
      <point x="197" y="435" type="curve" smooth="yes"/>
      <point x="142" y="435"/>
      <point x="102" y="403"/>
      <point x="72" y="352" type="curve"/>
      <point x="68" y="352" type="line"/>
      <point x="122" y="591"/>
      <point x="193" y="699"/>
      <point x="298" y="699" type="curve" smooth="yes"/>
      <point x="319" y="699"/>
      <point x="337" y="695"/>
      <point x="350" y="688" type="curve"/>
      <point x="360" y="713" type="line"/>
      <point x="345" y="720"/>
      <point x="327" y="724"/>
      <point x="299" y="724" type="curve" smooth="yes"/>
      <point x="205" y="724"/>
      <point x="148" y="652"/>
      <point x="113" y="576" type="curve" smooth="yes"/>
      <point x="64" y="471"/>
      <point x="22" y="304"/>
      <point x="22" y="148" type="curve" smooth="yes"/>
      <point x="22" y="42"/>
      <point x="64" y="-10"/>
    </contour>
    <contour>
      <point x="127" y="15" type="curve" smooth="yes"/>
      <point x="77" y="15"/>
      <point x="49" y="58"/>
      <point x="49" y="152" type="curve" smooth="yes"/>
      <point x="49" y="212"/>
      <point x="53" y="251"/>
      <point x="63" y="284" type="curve" smooth="yes"/>
      <point x="84" y="355"/>
      <point x="129" y="410"/>
      <point x="197" y="410" type="curve" smooth="yes"/>
      <point x="244" y="410"/>
      <point x="274" y="369"/>
      <point x="274" y="292" type="curve" smooth="yes"/>
      <point x="274" y="191"/>
      <point x="232" y="15"/>
    </contour>
  </outline>
</glyph>
<glyph name="seven" format="2">
  <advance width="336"/>
  <unicode hex="0037"/>
  <outline>
    <contour>
      <point x="36" y="0" type="line"/>
      <point x="65" y="0" type="line"/>
      <point x="375" y="689" type="line"/>
      <point x="376" y="714" type="line"/>
      <point x="100" y="714" type="line"/>
      <point x="95" y="689" type="line"/>
      <point x="347" y="689" type="line"/>
    </contour>
  </outline>
</glyph>
<glyph name="eight" format="2">
  <advance width="336"/>
  <unicode hex="0038"/>
  <outline>
    <contour>
      <point x="122" y="-10" type="curve" smooth="yes"/>
      <point x="224" y="-10"/>
      <point x="283" y="77"/>
      <point x="283" y="175" type="curve" smooth="yes"/>
      <point x="283" y="257"/>
      <point x="247" y="315"/>
      <point x="196" y="372" type="curve"/>
      <point x="294" y="422"/>
      <point x="349" y="496"/>
      <point x="349" y="597" type="curve" smooth="yes"/>
      <point x="349" y="674"/>
      <point x="304" y="724"/>
      <point x="236" y="724" type="curve" smooth="yes"/>
      <point x="141" y="724"/>
      <point x="88" y="651"/>
      <point x="88" y="550" type="curve" smooth="yes"/>
      <point x="88" y="482"/>
      <point x="115" y="428"/>
      <point x="157" y="378" type="curve"/>
      <point x="53" y="325"/>
      <point x="-12" y="258"/>
      <point x="-12" y="137" type="curve" smooth="yes"/>
      <point x="-12" y="49"/>
      <point x="40" y="-10"/>
    </contour>
    <contour>
      <point x="122" y="16" type="curve" smooth="yes"/>
      <point x="58" y="16"/>
      <point x="15" y="66"/>
      <point x="15" y="139" type="curve" smooth="yes"/>
      <point x="15" y="255"/>
      <point x="80" y="312"/>
      <point x="172" y="360" type="curve"/>
      <point x="218" y="308"/>
      <point x="256" y="254"/>
      <point x="256" y="175" type="curve" smooth="yes"/>
      <point x="256" y="86"/>
      <point x="208" y="16"/>
    </contour>
    <contour>
      <point x="179" y="389" type="curve"/>
      <point x="140" y="436"/>
      <point x="115" y="483"/>
      <point x="115" y="552" type="curve" smooth="yes"/>
      <point x="115" y="646"/>
      <point x="165" y="699"/>
      <point x="235" y="699" type="curve" smooth="yes"/>
      <point x="285" y="699"/>
      <point x="322" y="661"/>
      <point x="322" y="594" type="curve" smooth="yes"/>
      <point x="322" y="505"/>
      <point x="276" y="437"/>
    </contour>
  </outline>
</glyph>
<glyph name="nine" format="2">
  <advance width="336"/>
  <unicode hex="0039"/>
  <outline>
    <contour>
      <point x="56" y="-10" type="curve" smooth="yes"/>
      <point x="150" y="-10"/>
      <point x="207" y="62"/>
      <point x="243" y="138" type="curve" smooth="yes"/>
      <point x="292" y="243"/>
      <point x="333" y="410"/>
      <point x="333" y="566" type="curve" smooth="yes"/>
      <point x="333" y="676"/>
      <point x="294" y="724"/>
      <point x="231" y="724" type="curve" smooth="yes"/>
      <point x="107" y="724"/>
      <point x="54" y="545"/>
      <point x="54" y="418" type="curve" smooth="yes"/>
      <point x="54" y="330"/>
      <point x="94" y="279"/>
      <point x="155" y="279" type="curve" smooth="yes"/>
      <point x="213" y="279"/>
      <point x="253" y="311"/>
      <point x="283" y="362" type="curve"/>
      <point x="287" y="362" type="line"/>
      <point x="233" y="123"/>
      <point x="162" y="15"/>
      <point x="57" y="15" type="curve" smooth="yes"/>
      <point x="31" y="15"/>
      <point x="8" y="21"/>
      <point x="-5" y="29" type="curve"/>
      <point x="-5" y="1" type="line"/>
      <point x="9" y="-5"/>
      <point x="28" y="-10"/>
    </contour>
    <contour>
      <point x="158" y="304" type="curve" smooth="yes"/>
      <point x="111" y="304"/>
      <point x="81" y="345"/>
      <point x="81" y="422" type="curve" smooth="yes"/>
      <point x="81" y="523"/>
      <point x="123" y="699"/>
      <point x="228" y="699" type="curve" smooth="yes"/>
      <point x="278" y="699"/>
      <point x="306" y="656"/>
      <point x="306" y="562" type="curve" smooth="yes"/>
      <point x="306" y="502"/>
      <point x="302" y="464"/>
      <point x="292" y="430" type="curve" smooth="yes"/>
      <point x="271" y="359"/>
      <point x="226" y="304"/>
    </contour>
  </outline>
</glyph>
<glyph name="colon" format="2">
  <advance width="152"/>
  <unicode hex="003A"/>
  <outline>
    <contour>
      <point x="118" y="460" type="curve" smooth="yes"/>
      <point x="138" y="460"/>
      <point x="147" y="487"/>
      <point x="147" y="504" type="curve" smooth="yes"/>
      <point x="147" y="521"/>
      <point x="140" y="529"/>
      <point x="129" y="529" type="curve" smooth="yes"/>
      <point x="109" y="529"/>
      <point x="100" y="503"/>
      <point x="100" y="484" type="curve" smooth="yes"/>
      <point x="100" y="469"/>
      <point x="107" y="460"/>
    </contour>
    <contour>
      <point x="20" y="-1" type="curve" smooth="yes"/>
      <point x="40" y="-1"/>
      <point x="49" y="26"/>
      <point x="49" y="43" type="curve" smooth="yes"/>
      <point x="49" y="60"/>
      <point x="42" y="68"/>
      <point x="31" y="68" type="curve" smooth="yes"/>
      <point x="11" y="68"/>
      <point x="2" y="42"/>
      <point x="2" y="23" type="curve" smooth="yes"/>
      <point x="2" y="8"/>
      <point x="9" y="-1"/>
    </contour>
  </outline>
</glyph>
<glyph name="semicolon" format="2">
  <advance width="152"/>
  <unicode hex="003B"/>
  <outline>
    <contour>
      <point x="-45" y="-127" type="curve"/>
      <point x="-26" y="-127" type="line"/>
      <point x="12" y="-72"/>
      <point x="55" y="22"/>
      <point x="73" y="80" type="curve"/>
      <point x="69" y="91" type="line"/>
      <point x="45" y="91" type="line"/>
      <point x="29" y="26"/>
      <point x="-12" y="-69"/>
    </contour>
    <contour>
      <point x="123" y="460" type="curve" smooth="yes"/>
      <point x="143" y="460"/>
      <point x="152" y="487"/>
      <point x="152" y="504" type="curve" smooth="yes"/>
      <point x="152" y="521"/>
      <point x="145" y="529"/>
      <point x="135" y="529" type="curve" smooth="yes"/>
      <point x="115" y="529"/>
      <point x="106" y="503"/>
      <point x="106" y="484" type="curve" smooth="yes"/>
      <point x="106" y="469"/>
      <point x="112" y="460"/>
    </contour>
  </outline>
</glyph>
<glyph name="less" format="2">
  <advance width="385"/>
  <unicode hex="003C"/>
  <outline>
    <contour>
      <point x="378" y="148" type="line"/>
      <point x="378" y="176" type="line"/>
      <point x="78" y="366" type="line"/>
      <point x="378" y="530" type="line"/>
      <point x="378" y="558" type="line"/>
      <point x="48" y="377" type="line"/>
      <point x="48" y="355" type="line"/>
    </contour>
  </outline>
</glyph>
<glyph name="equal" format="2">
  <advance width="387"/>
  <unicode hex="003D"/>
  <outline>
    <contour>
      <point x="48" y="447" type="line"/>
      <point x="378" y="447" type="line"/>
      <point x="378" y="473" type="line"/>
      <point x="48" y="473" type="line"/>
    </contour>
    <contour>
      <point x="48" y="232" type="line"/>
      <point x="378" y="232" type="line"/>
      <point x="378" y="258" type="line"/>
      <point x="48" y="258" type="line"/>
    </contour>
  </outline>
</glyph>
<glyph name="question" format="2">
  <advance width="237"/>
  <unicode hex="003F"/>
  <outline>
    <contour>
      <point x="43" y="166" type="curve"/>
      <point x="68" y="166" type="line"/>
      <point x="86" y="266"/>
      <point x="107" y="310"/>
      <point x="170" y="388" type="curve" smooth="yes"/>
      <point x="236" y="470"/>
      <point x="280" y="532"/>
      <point x="280" y="616" type="curve" smooth="yes"/>
      <point x="280" y="681"/>
      <point x="240" y="724"/>
      <point x="181" y="724" type="curve" smooth="yes"/>
      <point x="145" y="724"/>
      <point x="112" y="712"/>
      <point x="88" y="694" type="curve"/>
      <point x="100" y="673" type="line"/>
      <point x="120" y="687"/>
      <point x="143" y="699"/>
      <point x="178" y="699" type="curve" smooth="yes"/>
      <point x="223" y="699"/>
      <point x="253" y="669"/>
      <point x="253" y="617" type="curve" smooth="yes"/>
      <point x="253" y="532"/>
      <point x="214" y="485"/>
      <point x="148" y="400" type="curve" smooth="yes"/>
      <point x="83" y="317"/>
      <point x="62" y="269"/>
    </contour>
    <contour>
      <point x="31" y="-1" type="curve" smooth="yes"/>
      <point x="51" y="-1"/>
      <point x="60" y="26"/>
      <point x="60" y="43" type="curve" smooth="yes"/>
      <point x="60" y="60"/>
      <point x="53" y="68"/>
      <point x="42" y="68" type="curve" smooth="yes"/>
      <point x="22" y="68"/>
      <point x="13" y="42"/>
      <point x="13" y="23" type="curve" smooth="yes"/>
      <point x="13" y="8"/>
      <point x="20" y="-1"/>
    </contour>
  </outline>
</glyph>
<glyph name="at" format="2">
  <advance width="499"/>
  <unicode hex="0040"/>
  <outline>
    <contour>
      <point x="171" y="-90" type="curve" smooth="yes"/>
      <point x="208" y="-90"/>
      <point x="236" y="-80"/>
      <point x="254" y="-70" type="curve"/>
      <point x="254" y="-44" type="line"/>
      <point x="240" y="-54"/>
      <point x="207" y="-65"/>
      <point x="173" y="-65" type="curve" smooth="yes"/>
      <point x="85" y="-65"/>
      <point x="52" y="13"/>
      <point x="52" y="131" type="curve" smooth="yes"/>
      <point x="52" y="377"/>
      <point x="153" y="693"/>
      <point x="338" y="693" type="curve" smooth="yes"/>
      <point x="417" y="693"/>
      <point x="458" y="641"/>
      <point x="458" y="506" type="curve" smooth="yes"/>
      <point x="458" y="364"/>
      <point x="400" y="140"/>
      <point x="332" y="140" type="curve" smooth="yes"/>
      <point x="310" y="140"/>
      <point x="303" y="158"/>
      <point x="303" y="192" type="curve" smooth="yes"/>
      <point x="303" y="212"/>
      <point x="308" y="246"/>
      <point x="322" y="301" type="curve" smooth="yes"/>
      <point x="373" y="502" type="line"/>
      <point x="356" y="509"/>
      <point x="333" y="513"/>
      <point x="314" y="513" type="curve" smooth="yes"/>
      <point x="207" y="513"/>
      <point x="146" y="314"/>
      <point x="146" y="207" type="curve" smooth="yes"/>
      <point x="146" y="141"/>
      <point x="168" y="113"/>
      <point x="201" y="113" type="curve" smooth="yes"/>
      <point x="239" y="113"/>
      <point x="266" y="152"/>
      <point x="281" y="205" type="curve"/>
      <point x="282" y="205" type="line"/>
      <point x="282" y="149"/>
      <point x="290" y="115"/>
      <point x="329" y="115" type="curve" smooth="yes"/>
      <point x="425" y="115"/>
      <point x="485" y="363"/>
      <point x="485" y="508" type="curve" smooth="yes"/>
      <point x="485" y="652"/>
      <point x="436" y="718"/>
      <point x="340" y="718" type="curve" smooth="yes"/>
      <point x="135" y="718"/>
      <point x="25" y="386"/>
      <point x="25" y="130" type="curve" smooth="yes"/>
      <point x="25" y="-9"/>
      <point x="69" y="-90"/>
    </contour>
    <contour>
      <point x="207" y="138" type="curve" smooth="yes"/>
      <point x="185" y="138"/>
      <point x="173" y="159"/>
      <point x="173" y="209" type="curve" smooth="yes"/>
      <point x="173" y="304"/>
      <point x="226" y="488"/>
      <point x="311" y="488" type="curve" smooth="yes"/>
      <point x="324" y="488"/>
      <point x="335" y="487"/>
      <point x="343" y="484" type="curve"/>
      <point x="302" y="326" type="line" smooth="yes"/>
      <point x="270" y="201"/>
      <point x="235" y="138"/>
    </contour>
  </outline>
</glyph>
<glyph name="A" format="2">
  <advance width="320"/>
  <unicode hex="0041"/>
  <anchor x="105" y="0" name="bottom"/>
  <anchor x="239" y="714" name="top"/>
  <anchor x="397" y="714" name="topright"/>
  <outline>
    <contour>
      <point x="-67" y="0" type="line"/>
      <point x="-39" y="0" type="line"/>
      <point x="77" y="284" type="line"/>
      <point x="228" y="284" type="line"/>
      <point x="226" y="0" type="line"/>
      <point x="252" y="0" type="line"/>
      <point x="257" y="717" type="line"/>
      <point x="224" y="717" type="line"/>
    </contour>
    <contour>
      <point x="86" y="309" type="line"/>
      <point x="203" y="606" type="line" smooth="yes"/>
      <point x="216" y="638"/>
      <point x="225" y="660"/>
      <point x="231" y="678" type="curve"/>
      <point x="233" y="678" type="line"/>
      <point x="232" y="660"/>
      <point x="232" y="634"/>
      <point x="232" y="606" type="curve" smooth="yes"/>
      <point x="228" y="309" type="line"/>
    </contour>
  </outline>
</glyph>
<glyph name="B" format="2">
  <advance width="368"/>
  <unicode hex="0042"/>
  <anchor x="129" y="0" name="bottom"/>
  <anchor x="281" y="714" name="top"/>
  <anchor x="445" y="714" name="topright"/>
  <outline>
    <contour>
      <point x="4" y="0" type="line"/>
      <point x="108" y="0" type="line" smooth="yes"/>
      <point x="251" y="0"/>
      <point x="316" y="110"/>
      <point x="316" y="243" type="curve" smooth="yes"/>
      <point x="316" y="316"/>
      <point x="282" y="361"/>
      <point x="234" y="372" type="curve"/>
      <point x="234" y="374" type="line"/>
      <point x="330" y="395"/>
      <point x="374" y="492"/>
      <point x="374" y="585" type="curve" smooth="yes"/>
      <point x="374" y="662"/>
      <point x="334" y="714"/>
      <point x="246" y="714" type="curve" smooth="yes"/>
      <point x="154" y="714" type="line"/>
    </contour>
    <contour>
      <point x="109" y="25" type="curve" smooth="yes"/>
      <point x="35" y="25" type="line"/>
      <point x="107" y="363" type="line"/>
      <point x="170" y="363" type="line" smooth="yes"/>
      <point x="241" y="363"/>
      <point x="289" y="331"/>
      <point x="289" y="240" type="curve" smooth="yes"/>
      <point x="289" y="136"/>
      <point x="244" y="25"/>
    </contour>
    <contour>
      <point x="179" y="388" type="curve" smooth="yes"/>
      <point x="112" y="388" type="line"/>
      <point x="175" y="689" type="line"/>
      <point x="240" y="689" type="line" smooth="yes"/>
      <point x="313" y="689"/>
      <point x="347" y="651"/>
      <point x="347" y="583" type="curve" smooth="yes"/>
      <point x="347" y="492"/>
      <point x="301" y="388"/>
    </contour>
  </outline>
</glyph>
<glyph name="C" format="2">
  <advance width="331"/>
  <unicode hex="0043"/>
  <anchor x="141" y="0" name="bottom"/>
  <anchor x="313" y="714" name="top"/>
  <anchor x="408" y="714" name="topright"/>
  <outline>
    <contour>
      <point x="179" y="-10" type="curve" smooth="yes"/>
      <point x="204" y="-10"/>
      <point x="227" y="-5"/>
      <point x="253" y="4" type="curve"/>
      <point x="253" y="31" type="line"/>
      <point x="225" y="20"/>
      <point x="202" y="15"/>
      <point x="181" y="15" type="curve" smooth="yes"/>
      <point x="102" y="15"/>
      <point x="64" y="75"/>
      <point x="64" y="221" type="curve" smooth="yes"/>
      <point x="64" y="393"/>
      <point x="151" y="700"/>
      <point x="328" y="700" type="curve" smooth="yes"/>
      <point x="358" y="700"/>
      <point x="381" y="692"/>
      <point x="395" y="678" type="curve"/>
      <point x="411" y="700" type="line"/>
      <point x="392" y="715"/>
      <point x="369" y="725"/>
      <point x="330" y="725" type="curve" smooth="yes"/>
      <point x="125" y="725"/>
      <point x="37" y="395"/>
      <point x="37" y="221" type="curve" smooth="yes"/>
      <point x="37" y="57"/>
      <point x="86" y="-10"/>
    </contour>
  </outline>
</glyph>
<glyph name="D" format="2">
  <advance width="403"/>
  <unicode hex="0044"/>
  <anchor x="147" y="0" name="bottom"/>
  <anchor x="223" y="357" name="center"/>
  <anchor x="279" y="714" name="top"/>
  <anchor x="481" y="714" name="topright"/>
  <outline>
    <contour>
      <point x="3" y="0" type="line"/>
      <point x="84" y="0" type="line" smooth="yes"/>
      <point x="311" y="0"/>
      <point x="387" y="322"/>
      <point x="387" y="511" type="curve" smooth="yes"/>
      <point x="387" y="655"/>
      <point x="329" y="714"/>
      <point x="228" y="714" type="curve" smooth="yes"/>
      <point x="154" y="714" type="line"/>
    </contour>
    <contour>
      <point x="83" y="25" type="curve" smooth="yes"/>
      <point x="34" y="25" type="line"/>
      <point x="176" y="689" type="line"/>
      <point x="223" y="689" type="line" smooth="yes"/>
      <point x="312" y="689"/>
      <point x="359" y="645"/>
      <point x="359" y="511" type="curve" smooth="yes"/>
      <point x="359" y="325"/>
      <point x="286" y="25"/>
    </contour>
  </outline>
</glyph>
<glyph name="E" format="2">
  <advance width="332"/>
  <unicode hex="0045"/>
  <anchor x="111" y="0" name="bottom"/>
  <anchor x="275" y="714" name="top"/>
  <anchor x="409" y="714" name="topright"/>
  <outline>
    <contour>
      <point x="2" y="0" type="line"/>
      <point x="223" y="0" type="line"/>
      <point x="228" y="25" type="line"/>
      <point x="33" y="25" type="line"/>
      <point x="105" y="363" type="line"/>
      <point x="287" y="363" type="line"/>
      <point x="293" y="388" type="line"/>
      <point x="111" y="388" type="line"/>
      <point x="175" y="689" type="line"/>
      <point x="370" y="689" type="line"/>
      <point x="375" y="714" type="line"/>
      <point x="154" y="714" type="line"/>
    </contour>
  </outline>
</glyph>
<glyph name="F" format="2">
  <advance width="306"/>
  <unicode hex="0046"/>
  <anchor x="98" y="0" name="bottom"/>
  <anchor x="258" y="714" name="top"/>
  <anchor x="384" y="714" name="topright"/>
  <outline>
    <contour>
      <point x="2" y="0" type="line"/>
      <point x="28" y="0" type="line"/>
      <point x="98" y="329" type="line"/>
      <point x="282" y="329" type="line"/>
      <point x="287" y="354" type="line"/>
      <point x="103" y="354" type="line"/>
      <point x="175" y="689" type="line"/>
      <point x="371" y="689" type="line"/>
      <point x="376" y="714" type="line"/>
      <point x="154" y="714" type="line"/>
    </contour>
  </outline>
</glyph>
<glyph name="H" format="2">
  <advance width="432"/>
  <unicode hex="0048"/>
  <anchor x="140" y="0" name="bottom"/>
  <anchor x="216" y="357" name="center"/>
  <anchor x="292" y="714" name="top"/>
  <anchor x="508" y="714" name="topright"/>
  <outline>
    <contour>
      <point x="2" y="0" type="line"/>
      <point x="28" y="0" type="line"/>
      <point x="105" y="363" type="line"/>
      <point x="347" y="363" type="line"/>
      <point x="271" y="0" type="line"/>
      <point x="297" y="0" type="line"/>
      <point x="449" y="714" type="line"/>
      <point x="423" y="714" type="line"/>
      <point x="354" y="388" type="line"/>
      <point x="111" y="388" type="line"/>
      <point x="180" y="714" type="line"/>
      <point x="154" y="714" type="line"/>
    </contour>
  </outline>
</glyph>
<glyph name="K" format="2">
  <advance width="339"/>
  <unicode hex="004B"/>
  <anchor x="115" y="0" name="bottom"/>
  <anchor x="277" y="714" name="top"/>
  <anchor x="417" y="714" name="topright"/>
  <outline>
    <contour>
      <point x="2" y="0" type="line"/>
      <point x="28" y="0" type="line"/>
      <point x="88" y="282" type="line"/>
      <point x="164" y="377" type="line"/>
      <point x="244" y="0" type="line"/>
      <point x="273" y="0" type="line"/>
      <point x="185" y="400" type="line"/>
      <point x="413" y="714" type="line"/>
      <point x="381" y="714" type="line"/>
      <point x="164" y="414" type="line"/>
      <point x="96" y="318" type="line"/>
      <point x="180" y="714" type="line"/>
      <point x="154" y="714" type="line"/>
    </contour>
  </outline>
</glyph>
<glyph name="L" format="2">
  <advance width="296"/>
  <unicode hex="004C"/>
  <anchor x="102" y="0" name="bottom"/>
  <anchor x="88" y="357" name="center"/>
  <anchor x="168" y="714" name="top"/>
  <anchor x="272" y="714" name="topright"/>
  <outline>
    <contour>
      <point x="2" y="0" type="line"/>
      <point x="212" y="0" type="line"/>
      <point x="217" y="25" type="line"/>
      <point x="33" y="25" type="line"/>
      <point x="180" y="714" type="line"/>
      <point x="154" y="714" type="line"/>
    </contour>
  </outline>
</glyph>
<glyph name="M" format="2">
  <advance width="576"/>
  <unicode hex="004D"/>
  <anchor x="232" y="0" name="bottom"/>
  <anchor x="364" y="714" name="top"/>
  <anchor x="652" y="714" name="topright"/>
  <outline>
    <contour>
      <point x="2" y="0" type="line"/>
      <point x="28" y="0" type="line"/>
      <point x="151" y="578" type="line" smooth="yes"/>
      <point x="157" y="608"/>
      <point x="161" y="627"/>
      <point x="168" y="667" type="curve"/>
      <point x="170" y="667" type="line"/>
      <point x="200" y="0" type="line"/>
      <point x="241" y="0" type="line"/>
      <point x="556" y="666" type="line"/>
      <point x="558" y="666" type="line"/>
      <point x="549" y="627"/>
      <point x="543" y="601"/>
      <point x="537" y="574" type="curve" smooth="yes"/>
      <point x="415" y="0" type="line"/>
      <point x="441" y="0" type="line"/>
      <point x="593" y="714" type="line"/>
      <point x="551" y="714" type="line"/>
      <point x="228" y="32" type="line"/>
      <point x="225" y="32" type="line"/>
      <point x="192" y="714" type="line"/>
      <point x="154" y="714" type="line"/>
    </contour>
  </outline>
</glyph>
<glyph name="N" format="2">
  <advance width="452"/>
  <unicode hex="004E"/>
  <anchor x="172" y="0" name="bottom"/>
  <anchor x="304" y="714" name="top"/>
  <anchor x="530" y="714" name="topright"/>
  <outline>
    <contour>
      <point x="2" y="0" type="line"/>
      <point x="29" y="0" type="line"/>
      <point x="145" y="547" type="line"/>
      <point x="157" y="603"/>
      <point x="164" y="636"/>
      <point x="169" y="663" type="curve"/>
      <point x="171" y="663" type="line"/>
      <point x="285" y="0" type="line"/>
      <point x="317" y="0" type="line"/>
      <point x="469" y="714" type="line"/>
      <point x="442" y="714" type="line"/>
      <point x="330" y="182" type="line"/>
      <point x="324" y="153"/>
      <point x="313" y="104"/>
      <point x="304" y="59" type="curve"/>
      <point x="302" y="59" type="line"/>
      <point x="187" y="714" type="line"/>
      <point x="154" y="714" type="line"/>
    </contour>
  </outline>
</glyph>
<glyph name="Q" format="2">
  <advance width="435"/>
  <unicode hex="0051"/>
  <anchor x="117" y="-130" name="bottom"/>
  <anchor x="305" y="714" name="top"/>
  <anchor x="513" y="714" name="topright"/>
  <outline>
    <contour>
      <point x="179" y="-8" type="curve"/>
      <point x="225" y="-171" type="line"/>
      <point x="251" y="-170" type="line"/>
      <point x="203" y="-2" type="line"/>
      <point x="357" y="53"/>
      <point x="418" y="380"/>
      <point x="418" y="544" type="curve" smooth="yes"/>
      <point x="418" y="672"/>
      <point x="375" y="724"/>
      <point x="297" y="724" type="curve" smooth="yes"/>
      <point x="114" y="724"/>
      <point x="34" y="367"/>
      <point x="34" y="184" type="curve" smooth="yes"/>
      <point x="34" y="51"/>
      <point x="77" y="-10"/>
      <point x="157" y="-10" type="curve" smooth="yes"/>
      <point x="165" y="-10"/>
      <point x="172" y="-9"/>
    </contour>
    <contour>
      <point x="160" y="15" type="curve" smooth="yes"/>
      <point x="96" y="15"/>
      <point x="61" y="65"/>
      <point x="61" y="186" type="curve" smooth="yes"/>
      <point x="61" y="345"/>
      <point x="135" y="699"/>
      <point x="295" y="699" type="curve" smooth="yes"/>
      <point x="361" y="699"/>
      <point x="391" y="654"/>
      <point x="391" y="542" type="curve" smooth="yes"/>
      <point x="391" y="372"/>
      <point x="319" y="15"/>
    </contour>
  </outline>
</glyph>
<glyph name="S" format="2">
  <advance width="334"/>
  <unicode hex="0053"/>
  <anchor x="93" y="0" name="bottom"/>
  <anchor x="255" y="714" name="top"/>
  <anchor x="412" y="714" name="topright"/>
  <outline>
    <contour>
      <point x="89" y="-10" type="curve" smooth="yes"/>
      <point x="200" y="-10"/>
      <point x="271" y="61"/>
      <point x="271" y="184" type="curve" smooth="yes"/>
      <point x="271" y="252"/>
      <point x="237" y="306"/>
      <point x="189" y="361" type="curve" smooth="yes"/>
      <point x="131" y="428"/>
      <point x="105" y="471"/>
      <point x="105" y="541" type="curve" smooth="yes"/>
      <point x="105" y="645"/>
      <point x="163" y="699"/>
      <point x="248" y="699" type="curve" smooth="yes"/>
      <point x="294" y="699"/>
      <point x="328" y="683"/>
      <point x="349" y="669" type="curve"/>
      <point x="363" y="693" type="line"/>
      <point x="342" y="707"/>
      <point x="301" y="724"/>
      <point x="250" y="724" type="curve" smooth="yes"/>
      <point x="153" y="724"/>
      <point x="78" y="663"/>
      <point x="78" y="539" type="curve" smooth="yes"/>
      <point x="78" y="457"/>
      <point x="112" y="411"/>
      <point x="162" y="351" type="curve" smooth="yes"/>
      <point x="217" y="285"/>
      <point x="244" y="244"/>
      <point x="244" y="183" type="curve" smooth="yes"/>
      <point x="244" y="75"/>
      <point x="186" y="15"/>
      <point x="91" y="15" type="curve" smooth="yes"/>
      <point x="40" y="15"/>
      <point x="2" y="28"/>
      <point x="-28" y="45" type="curve"/>
      <point x="-28" y="16" type="line"/>
      <point x="-3" y="3"/>
      <point x="38" y="-10"/>
    </contour>
  </outline>
</glyph>
<glyph name="T" format="2">
  <advance width="289"/>
  <unicode hex="0054"/>
  <anchor x="80" y="0" name="bottom"/>
  <anchor x="156" y="357" name="center"/>
  <anchor x="232" y="714" name="top"/>
  <anchor x="366" y="714" name="topright"/>
  <outline>
    <contour>
      <point x="64" y="0" type="line"/>
      <point x="90" y="0" type="line"/>
      <point x="237" y="689" type="line"/>
      <point x="362" y="689" type="line"/>
      <point x="367" y="714" type="line"/>
      <point x="92" y="714" type="line"/>
      <point x="86" y="689" type="line"/>
      <point x="211" y="689" type="line"/>
    </contour>
  </outline>
</glyph>
<glyph name="V" format="2">
  <advance width="338"/>
  <unicode hex="0056"/>
  <anchor x="102" y="0" name="bottom"/>
  <anchor x="246" y="714" name="top"/>
  <anchor x="415" y="714" name="topright"/>
  <outline>
    <contour>
      <point x="82" y="0" type="line"/>
      <point x="117" y="0" type="line"/>
      <point x="418" y="714" type="line"/>
      <point x="390" y="714" type="line"/>
      <point x="149" y="140" type="line" smooth="yes"/>
      <point x="134" y="104"/>
      <point x="118" y="65"/>
      <point x="107" y="34" type="curve"/>
      <point x="105" y="34" type="line"/>
      <point x="106" y="62"/>
      <point x="106" y="86"/>
      <point x="107" y="123" type="curve" smooth="yes"/>
      <point x="111" y="714" type="line"/>
      <point x="85" y="714" type="line"/>
    </contour>
  </outline>
</glyph>
<glyph name="W" format="2">
  <advance width="586"/>
  <unicode hex="0057"/>
  <anchor x="225" y="0" name="bottom"/>
  <anchor x="372" y="714" name="top"/>
  <anchor x="654" y="714" name="topright"/>
  <outline>
    <contour>
      <point x="72" y="0" type="line"/>
      <point x="110" y="0" type="line"/>
      <point x="331" y="571" type="line" smooth="yes"/>
      <point x="341" y="596"/>
      <point x="351" y="626"/>
      <point x="360" y="653" type="curve"/>
      <point x="362" y="653" type="line"/>
      <point x="360" y="620"/>
      <point x="359" y="593"/>
      <point x="358" y="561" type="curve" smooth="yes"/>
      <point x="337" y="0" type="line"/>
      <point x="375" y="0" type="line"/>
      <point x="660" y="714" type="line"/>
      <point x="631" y="714" type="line"/>
      <point x="421" y="180" type="line" smooth="yes"/>
      <point x="394" y="112"/>
      <point x="379" y="73"/>
      <point x="363" y="29" type="curve"/>
      <point x="361" y="29" type="line"/>
      <point x="364" y="79"/>
      <point x="366" y="120"/>
      <point x="368" y="171" type="curve" smooth="yes"/>
      <point x="388" y="714" type="line"/>
      <point x="361" y="714" type="line"/>
      <point x="142" y="152" type="line" smooth="yes"/>
      <point x="130" y="120"/>
      <point x="113" y="76"/>
      <point x="98" y="34" type="curve"/>
      <point x="96" y="34" type="line"/>
      <point x="97" y="58"/>
      <point x="99" y="92"/>
      <point x="100" y="141" type="curve" smooth="yes"/>
      <point x="112" y="714" type="line"/>
      <point x="85" y="714" type="line"/>
    </contour>
  </outline>
</glyph>
<glyph name="X" format="2">
  <advance width="297"/>
  <unicode hex="0058"/>
  <anchor x="91" y="0" name="bottom"/>
  <anchor x="246" y="714" name="top"/>
  <anchor x="375" y="714" name="topright"/>
  <outline>
    <contour>
      <point x="-57" y="0" type="line"/>
      <point x="-29" y="0" type="line"/>
      <point x="163" y="345" type="line"/>
      <point x="192" y="0" type="line"/>
      <point x="218" y="0" type="line"/>
      <point x="185" y="372" type="line"/>
      <point x="370" y="714" type="line"/>
      <point x="342" y="714" type="line"/>
      <point x="175" y="403" type="line"/>
      <point x="144" y="714" type="line"/>
      <point x="118" y="714" type="line"/>
      <point x="154" y="379" type="line"/>
    </contour>
  </outline>
</glyph>
<glyph name="Y" format="2">
  <advance width="284"/>
  <unicode hex="0059"/>
  <anchor x="76" y="0" name="bottom"/>
  <anchor x="222" y="714" name="top"/>
  <anchor x="362" y="714" name="topright"/>
  <outline>
    <contour>
      <point x="62" y="0" type="line"/>
      <point x="88" y="0" type="line"/>
      <point x="147" y="278" type="line"/>
      <point x="369" y="714" type="line"/>
      <point x="340" y="714" type="line"/>
      <point x="141" y="319" type="line"/>
      <point x="110" y="714" type="line"/>
      <point x="84" y="714" type="line"/>
      <point x="121" y="278" type="line"/>
    </contour>
  </outline>
</glyph>
<glyph name="Z" format="2">
  <advance width="299"/>
  <unicode hex="005A"/>
  <anchor x="95" y="0" name="bottom"/>
  <anchor x="243" y="714" name="top"/>
  <anchor x="367" y="714" name="topright"/>
  <outline>
    <contour>
      <point x="-41" y="0" type="line"/>
      <point x="215" y="0" type="line"/>
      <point x="220" y="25" type="line"/>
      <point x="-5" y="25" type="line"/>
      <point x="355" y="689" type="line"/>
      <point x="360" y="714" type="line"/>
      <point x="123" y="714" type="line"/>
      <point x="117" y="688" type="line"/>
      <point x="325" y="688" type="line"/>
      <point x="-36" y="24" type="line"/>
    </contour>
  </outline>
</glyph>
<glyph name="backslash" format="2">
  <advance width="313"/>
  <unicode hex="005C"/>
  <outline>
    <contour>
      <point x="203" y="0" type="line"/>
      <point x="230" y="0" type="line"/>
      <point x="129" y="714" type="line"/>
      <point x="104" y="714" type="line"/>
    </contour>
  </outline>
</glyph>
<glyph name="bracketright" format="2">
  <advance width="269"/>
  <unicode hex="005D"/>
  <outline>
    <contour>
      <point x="-60" y="-158" type="line"/>
      <point x="103" y="-158" type="line"/>
      <point x="289" y="714" type="line"/>
      <point x="126" y="714" type="line"/>
      <point x="121" y="690" type="line"/>
      <point x="259" y="690" type="line"/>
      <point x="83" y="-134" type="line"/>
      <point x="-55" y="-134" type="line"/>
    </contour>
  </outline>
</glyph>
<glyph name="asciicircum" format="2">
  <advance width="383"/>
  <unicode hex="005E"/>
  <outline>
    <contour>
      <point x="26" y="372" type="line"/>
      <point x="57" y="372" type="line"/>
      <point x="210" y="681" type="line"/>
      <point x="347" y="372" type="line"/>
      <point x="379" y="372" type="line"/>
      <point x="223" y="713" type="line"/>
      <point x="199" y="713" type="line"/>
    </contour>
  </outline>
</glyph>
<glyph name="underscore" format="2">
  <advance width="257"/>
  <unicode hex="005F"/>
  <outline>
    <contour>
      <point x="-74" y="-116" type="line"/>
      <point x="177" y="-116" type="line"/>
      <point x="178" y="-91" type="line"/>
      <point x="-74" y="-91" type="line"/>
    </contour>
  </outline>
</glyph>
<glyph name="grave" format="2">
  <advance width="203"/>
  <unicode hex="0060"/>
  <anchor x="200" y="526" name="_top"/>
  <outline>
    <contour>
      <point x="224" y="606" type="curve"/>
      <point x="236" y="606" type="line"/>
      <point x="236" y="614" type="line"/>
      <point x="210" y="660"/>
      <point x="191" y="708"/>
      <point x="170" y="763" type="curve"/>
      <point x="146" y="763" type="line"/>
      <point x="146" y="756" type="line"/>
      <point x="165" y="705"/>
      <point x="198" y="644"/>
    </contour>
  </outline>
</glyph>
<glyph name="a" format="2">
  <advance width="371"/>
  <unicode hex="0061"/>
  <anchor x="122" y="0" name="bottom"/>
  <anchor x="244" y="526" name="top"/>
  <anchor x="389" y="526" name="topright"/>
  <outline>
    <contour>
      <point x="124" y="-10" type="curve" smooth="yes"/>
      <point x="179" y="-10"/>
      <point x="215" y="28"/>
      <point x="246" y="90" type="curve"/>
      <point x="248" y="90" type="line"/>
      <point x="232" y="0" type="line"/>
      <point x="253" y="0" type="line"/>
      <point x="364" y="526" type="line"/>
      <point x="343" y="526" type="line"/>
      <point x="324" y="444" type="line"/>
      <point x="321" y="444" type="line"/>
      <point x="316" y="495"/>
      <point x="290" y="536"/>
      <point x="237" y="536" type="curve" smooth="yes"/>
      <point x="100" y="536"/>
      <point x="29" y="292"/>
      <point x="29" y="137" type="curve" smooth="yes"/>
      <point x="29" y="42"/>
      <point x="63" y="-10"/>
    </contour>
    <contour>
      <point x="127" y="15" type="curve" smooth="yes"/>
      <point x="85" y="15"/>
      <point x="56" y="51"/>
      <point x="56" y="139" type="curve" smooth="yes"/>
      <point x="56" y="278"/>
      <point x="121" y="511"/>
      <point x="236" y="511" type="curve" smooth="yes"/>
      <point x="278" y="511"/>
      <point x="304" y="473"/>
      <point x="304" y="417" type="curve" smooth="yes"/>
      <point x="304" y="361"/>
      <point x="290" y="290"/>
      <point x="273" y="224" type="curve" smooth="yes"/>
      <point x="246" y="116"/>
      <point x="204" y="15"/>
    </contour>
  </outline>
</glyph>
<glyph name="c" format="2">
  <advance width="264"/>
  <unicode hex="0063"/>
  <anchor x="118" y="0" name="bottom"/>
  <anchor x="234" y="526" name="top"/>
  <anchor x="272" y="526" name="topright"/>
  <outline>
    <contour>
      <point x="136" y="-10" type="curve" smooth="yes"/>
      <point x="164" y="-10"/>
      <point x="186" y="-3"/>
      <point x="201" y="4" type="curve"/>
      <point x="202" y="30" type="line"/>
      <point x="183" y="21"/>
      <point x="161" y="15"/>
      <point x="139" y="15" type="curve" smooth="yes"/>
      <point x="83" y="15"/>
      <point x="56" y="50"/>
      <point x="56" y="147" type="curve" smooth="yes"/>
      <point x="56" y="299"/>
      <point x="122" y="511"/>
      <point x="236" y="511" type="curve" smooth="yes"/>
      <point x="253" y="511"/>
      <point x="270" y="508"/>
      <point x="286" y="500" type="curve"/>
      <point x="295" y="525" type="line"/>
      <point x="280" y="532"/>
      <point x="258" y="536"/>
      <point x="236" y="536" type="curve" smooth="yes"/>
      <point x="97" y="536"/>
      <point x="30" y="301"/>
      <point x="30" y="145" type="curve" smooth="yes"/>
      <point x="30" y="32"/>
      <point x="65" y="-10"/>
    </contour>
  </outline>
</glyph>
<glyph name="d" format="2">
  <advance width="371"/>
  <unicode hex="0064"/>
  <anchor x="132" y="0" name="bottom"/>
  <anchor x="176" y="263" name="center"/>
  <anchor x="284" y="760" name="top"/>
  <anchor x="429" y="760" name="topright"/>
  <outline>
    <contour>
      <point x="123" y="-10" type="curve" smooth="yes"/>
      <point x="179" y="-10"/>
      <point x="216" y="30"/>
      <point x="246" y="93" type="curve"/>
      <point x="248" y="93" type="line"/>
      <point x="232" y="0" type="line"/>
      <point x="253" y="0" type="line"/>
      <point x="413" y="760" type="line"/>
      <point x="387" y="760" type="line"/>
      <point x="344" y="558" type="line" smooth="yes"/>
      <point x="336" y="522"/>
      <point x="329" y="483"/>
      <point x="323" y="451" type="curve"/>
      <point x="321" y="451" type="line"/>
      <point x="314" y="499"/>
      <point x="287" y="536"/>
      <point x="237" y="536" type="curve" smooth="yes"/>
      <point x="100" y="536"/>
      <point x="29" y="292"/>
      <point x="29" y="137" type="curve" smooth="yes"/>
      <point x="29" y="42"/>
      <point x="63" y="-10"/>
    </contour>
    <contour>
      <point x="127" y="15" type="curve" smooth="yes"/>
      <point x="85" y="15"/>
      <point x="56" y="51"/>
      <point x="56" y="139" type="curve" smooth="yes"/>
      <point x="56" y="278"/>
      <point x="121" y="511"/>
      <point x="236" y="511" type="curve" smooth="yes"/>
      <point x="278" y="511"/>
      <point x="304" y="473"/>
      <point x="304" y="417" type="curve" smooth="yes"/>
      <point x="304" y="346"/>
      <point x="256" y="15"/>
    </contour>
  </outline>
</glyph>
<glyph name="e" format="2">
  <advance width="320"/>
  <unicode hex="0065"/>
  <anchor x="128" y="0" name="bottom"/>
  <anchor x="227" y="526" name="top"/>
  <anchor x="347" y="526" name="topright"/>
  <outline>
    <contour>
      <point x="137" y="-10" type="curve" smooth="yes"/>
      <point x="176" y="-10"/>
      <point x="204" y="0"/>
      <point x="225" y="12" type="curve"/>
      <point x="225" y="41" type="line"/>
      <point x="200" y="26"/>
      <point x="173" y="15"/>
      <point x="142" y="15" type="curve" smooth="yes"/>
      <point x="81" y="15"/>
      <point x="54" y="55"/>
      <point x="54" y="145" type="curve" smooth="yes"/>
      <point x="54" y="185"/>
      <point x="57" y="219"/>
      <point x="63" y="251" type="curve"/>
      <point x="69" y="251" type="line" smooth="yes"/>
      <point x="238" y="251"/>
      <point x="305" y="354"/>
      <point x="305" y="448" type="curve" smooth="yes"/>
      <point x="305" y="511"/>
      <point x="274" y="536"/>
      <point x="228" y="536" type="curve" smooth="yes"/>
      <point x="121" y="536"/>
      <point x="27" y="354"/>
      <point x="27" y="141" type="curve" smooth="yes"/>
      <point x="27" y="38"/>
      <point x="66" y="-10"/>
    </contour>
    <contour>
      <point x="72" y="276" type="curve"/>
      <point x="67" y="276" type="line"/>
      <point x="93" y="407"/>
      <point x="158" y="511"/>
      <point x="227" y="511" type="curve" smooth="yes"/>
      <point x="262" y="511"/>
      <point x="278" y="487"/>
      <point x="278" y="447" type="curve" smooth="yes"/>
      <point x="278" y="366"/>
      <point x="222" y="276"/>
    </contour>
  </outline>
</glyph>
<glyph name="f" format="2">
  <advance width="181"/>
  <unicode hex="0066"/>
  <anchor x="-92" y="-240" name="bottom"/>
  <anchor x="257" y="765" name="top"/>
  <anchor x="309" y="765" name="topright"/>
  <outline>
    <contour>
      <point x="-92" y="-240" type="curve" smooth="yes"/>
      <point x="-24" y="-240"/>
      <point x="-1" y="-180"/>
      <point x="15" y="-107" type="curve" smooth="yes"/>
      <point x="145" y="501" type="line"/>
      <point x="213" y="501" type="line"/>
      <point x="218" y="526" type="line"/>
      <point x="150" y="526" type="line"/>
      <point x="172" y="627" type="line" smooth="yes"/>
      <point x="188" y="699"/>
      <point x="205" y="740"/>
      <point x="251" y="740" type="curve" smooth="yes"/>
      <point x="265" y="740"/>
      <point x="280" y="736"/>
      <point x="290" y="731" type="curve"/>
      <point x="300" y="755" type="line"/>
      <point x="291" y="759"/>
      <point x="270" y="765"/>
      <point x="255" y="765" type="curve" smooth="yes"/>
      <point x="194" y="765"/>
      <point x="168" y="723"/>
      <point x="148" y="635" type="curve" smooth="yes"/>
      <point x="124" y="527" type="line"/>
      <point x="64" y="521" type="line"/>
      <point x="60" y="501" type="line"/>
      <point x="119" y="501" type="line"/>
      <point x="-11" y="-104" type="line" smooth="yes"/>
      <point x="-25" y="-169"/>
      <point x="-42" y="-215"/>
      <point x="-92" y="-215" type="curve" smooth="yes"/>
      <point x="-109" y="-215"/>
      <point x="-118" y="-213"/>
      <point x="-129" y="-209" type="curve"/>
      <point x="-129" y="-234" type="line"/>
      <point x="-121" y="-237"/>
      <point x="-109" y="-240"/>
    </contour>
  </outline>
</glyph>
<glyph name="g" format="2">
  <advance width="370"/>
  <unicode hex="0067"/>
  <anchor x="78" y="-240" name="bottom"/>
  <anchor x="241" y="526" name="top"/>
  <anchor x="386" y="526" name="topright"/>
  <outline>
    <contour>
      <point x="72" y="-240" type="curve" smooth="yes"/>
      <point x="173" y="-240"/>
      <point x="216" y="-170"/>
      <point x="242" y="-49" type="curve" smooth="yes"/>
      <point x="364" y="526" type="line"/>
      <point x="343" y="526" type="line"/>
      <point x="324" y="444" type="line"/>
      <point x="321" y="444" type="line"/>
      <point x="315" y="495"/>
      <point x="290" y="536"/>
      <point x="236" y="536" type="curve" smooth="yes"/>
      <point x="99" y="536"/>
      <point x="29" y="292"/>
      <point x="29" y="137" type="curve" smooth="yes"/>
      <point x="29" y="42"/>
      <point x="63" y="-10"/>
      <point x="123" y="-10" type="curve" smooth="yes"/>
      <point x="179" y="-10"/>
      <point x="214" y="28"/>
      <point x="246" y="90" type="curve"/>
      <point x="248" y="90" type="line"/>
      <point x="242" y="64"/>
      <point x="236" y="38"/>
      <point x="233" y="24" type="curve" smooth="yes"/>
      <point x="219" y="-41" type="line" smooth="yes"/>
      <point x="194" y="-158"/>
      <point x="160" y="-215"/>
      <point x="72" y="-215" type="curve" smooth="yes"/>
      <point x="35" y="-215"/>
      <point x="-1" y="-200"/>
      <point x="-19" y="-187" type="curve"/>
      <point x="-19" y="-216" type="line"/>
      <point x="-2" y="-226"/>
      <point x="34" y="-240"/>
    </contour>
    <contour>
      <point x="126" y="15" type="curve" smooth="yes"/>
      <point x="83" y="15"/>
      <point x="56" y="51"/>
      <point x="56" y="139" type="curve" smooth="yes"/>
      <point x="56" y="278"/>
      <point x="120" y="511"/>
      <point x="235" y="511" type="curve" smooth="yes"/>
      <point x="278" y="511"/>
      <point x="303" y="473"/>
      <point x="303" y="417" type="curve" smooth="yes"/>
      <point x="303" y="352"/>
      <point x="256" y="15"/>
    </contour>
  </outline>
</glyph>
<glyph name="j" format="2">
  <advance width="159"/>
  <unicode hex="006A"/>
  <anchor x="-98" y="-240" name="bottom"/>
  <anchor x="177" y="712" name="top"/>
  <anchor x="215" y="712" name="topright"/>
  <outline>
    <contour>
      <point x="-98" y="-240" type="curve" smooth="yes"/>
      <point x="-23" y="-240"/>
      <point x="-1" y="-188"/>
      <point x="27" y="-53" type="curve" smooth="yes"/>
      <point x="150" y="526" type="line"/>
      <point x="123" y="526" type="line"/>
      <point x="1" y="-52" type="line" smooth="yes"/>
      <point x="-25" y="-179"/>
      <point x="-45" y="-215"/>
      <point x="-98" y="-215" type="curve" smooth="yes"/>
      <point x="-112" y="-215"/>
      <point x="-121" y="-213"/>
      <point x="-131" y="-209" type="curve"/>
      <point x="-131" y="-236" type="line"/>
      <point x="-124" y="-238"/>
      <point x="-112" y="-240"/>
    </contour>
    <contour>
      <point x="164" y="643" type="curve" smooth="yes"/>
      <point x="184" y="643"/>
      <point x="193" y="670"/>
      <point x="193" y="687" type="curve" smooth="yes"/>
      <point x="193" y="704"/>
      <point x="186" y="712"/>
      <point x="175" y="712" type="curve" smooth="yes"/>
      <point x="155" y="712"/>
      <point x="146" y="686"/>
      <point x="146" y="667" type="curve" smooth="yes"/>
      <point x="146" y="652"/>
      <point x="153" y="643"/>
    </contour>
  </outline>
</glyph>
<glyph name="k" format="2">
  <advance width="290"/>
  <unicode hex="006B"/>
  <anchor x="111" y="0" name="bottom"/>
  <anchor x="181" y="760" name="top"/>
  <anchor x="338" y="800" name="topright"/>
  <outline>
    <contour>
      <point x="5" y="0" type="line"/>
      <point x="31" y="0" type="line"/>
      <point x="71" y="189" type="line"/>
      <point x="155" y="297" type="line"/>
      <point x="201" y="0" type="line"/>
      <point x="227" y="0" type="line"/>
      <point x="178" y="323" type="line"/>
      <point x="328" y="526" type="line"/>
      <point x="299" y="526" type="line"/>
      <point x="81" y="234" type="line"/>
      <point x="80" y="234" type="line"/>
      <point x="90" y="277"/>
      <point x="98" y="314"/>
      <point x="108" y="361" type="curve" smooth="yes"/>
      <point x="193" y="760" type="line"/>
      <point x="167" y="760" type="line"/>
    </contour>
  </outline>
</glyph>
<glyph name="l" format="2">
  <advance width="146"/>
  <unicode hex="006C"/>
  <anchor x="17" y="0" name="bottom"/>
  <anchor x="73" y="263" name="center"/>
  <anchor x="179" y="760" name="top"/>
  <anchor x="232" y="760" name="topright"/>
  <outline>
    <contour>
      <point x="5" y="0" type="line"/>
      <point x="31" y="0" type="line"/>
      <point x="193" y="760" type="line"/>
      <point x="167" y="760" type="line"/>
    </contour>
  </outline>
</glyph>
<glyph name="n" format="2">
  <advance width="350"/>
  <unicode hex="006E"/>
  <anchor x="119" y="0" name="bottom"/>
  <anchor x="231" y="526" name="top"/>
  <anchor x="386" y="526" name="topright"/>
  <outline>
    <contour>
      <point x="6" y="0" type="line"/>
      <point x="32" y="0" type="line"/>
      <point x="93" y="287" type="line" smooth="yes"/>
      <point x="125" y="436"/>
      <point x="166" y="511"/>
      <point x="240" y="511" type="curve" smooth="yes"/>
      <point x="275" y="511"/>
      <point x="297" y="492"/>
      <point x="297" y="453" type="curve" smooth="yes"/>
      <point x="297" y="419"/>
      <point x="287" y="378"/>
      <point x="279" y="339" type="curve" smooth="yes"/>
      <point x="207" y="0" type="line"/>
      <point x="233" y="0" type="line"/>
      <point x="303" y="329" type="line" smooth="yes"/>
      <point x="312" y="370"/>
      <point x="323" y="424"/>
      <point x="323" y="455" type="curve" smooth="yes"/>
      <point x="323" y="509"/>
      <point x="291" y="536"/>
      <point x="243" y="536" type="curve" smooth="yes"/>
      <point x="192" y="536"/>
      <point x="149" y="503"/>
      <point x="126" y="448" type="curve"/>
      <point x="124" y="448" type="line"/>
      <point x="138" y="526" type="line"/>
      <point x="117" y="526" type="line"/>
    </contour>
  </outline>
</glyph>
<glyph name="o" format="2">
  <advance width="353"/>
  <unicode hex="006F"/>
  <anchor x="121" y="0" name="bottom"/>
  <anchor x="177" y="263" name="center"/>
  <anchor x="233" y="526" name="top"/>
  <anchor x="389" y="526" name="topright"/>
  <outline>
    <contour>
      <point x="129" y="-10" type="curve" smooth="yes"/>
      <point x="264" y="-10"/>
      <point x="327" y="237"/>
      <point x="327" y="390" type="curve" smooth="yes"/>
      <point x="327" y="491"/>
      <point x="290" y="536"/>
      <point x="230" y="536" type="curve" smooth="yes"/>
      <point x="79" y="536"/>
      <point x="28" y="256"/>
      <point x="28" y="136" type="curve" smooth="yes"/>
      <point x="28" y="33"/>
      <point x="67" y="-10"/>
    </contour>
    <contour>
      <point x="130" y="15" type="curve" smooth="yes"/>
      <point x="81" y="15"/>
      <point x="55" y="55"/>
      <point x="55" y="136" type="curve" smooth="yes"/>
      <point x="55" y="245"/>
      <point x="108" y="511"/>
      <point x="228" y="511" type="curve" smooth="yes"/>
      <point x="275" y="511"/>
      <point x="300" y="470"/>
      <point x="300" y="389" type="curve" smooth="yes"/>
      <point x="300" y="259"/>
      <point x="246" y="15"/>
    </contour>
  </outline>
</glyph>
<glyph name="p" format="2">
  <advance width="366"/>
  <unicode hex="0070"/>
  <anchor x="-26" y="-228" name="bottom"/>
  <anchor x="239" y="526" name="top"/>
  <anchor x="402" y="526" name="topright"/>
  <outline>
    <contour>
      <point x="-41" y="-228" type="line"/>
      <point x="-15" y="-228" type="line"/>
      <point x="27" y="-32" type="line" smooth="yes"/>
      <point x="35" y="4"/>
      <point x="42" y="43"/>
      <point x="48" y="75" type="curve"/>
      <point x="51" y="75" type="line"/>
      <point x="58" y="27"/>
      <point x="84" y="-10"/>
      <point x="135" y="-10" type="curve" smooth="yes"/>
      <point x="272" y="-10"/>
      <point x="342" y="234"/>
      <point x="342" y="389" type="curve" smooth="yes"/>
      <point x="342" y="484"/>
      <point x="308" y="536"/>
      <point x="248" y="536" type="curve" smooth="yes"/>
      <point x="192" y="536"/>
      <point x="156" y="496"/>
      <point x="125" y="433" type="curve"/>
      <point x="123" y="433" type="line"/>
      <point x="139" y="526" type="line"/>
      <point x="118" y="526" type="line"/>
    </contour>
    <contour>
      <point x="136" y="15" type="curve" smooth="yes"/>
      <point x="93" y="15"/>
      <point x="68" y="53"/>
      <point x="68" y="109" type="curve" smooth="yes"/>
      <point x="68" y="180"/>
      <point x="115" y="511"/>
      <point x="245" y="511" type="curve" smooth="yes"/>
      <point x="286" y="511"/>
      <point x="315" y="475"/>
      <point x="315" y="387" type="curve" smooth="yes"/>
      <point x="315" y="248"/>
      <point x="251" y="15"/>
    </contour>
  </outline>
</glyph>
<glyph name="q" format="2">
  <advance width="372"/>
  <unicode hex="0071"/>
  <anchor x="189" y="-234" name="bottom"/>
  <anchor x="242" y="526" name="top"/>
  <anchor x="380" y="526" name="topright"/>
  <outline>
    <contour>
      <point x="236" y="40" type="curve" smooth="yes"/>
      <point x="178" y="-234" type="line"/>
      <point x="204" y="-234" type="line"/>
      <point x="364" y="526" type="line"/>
      <point x="343" y="526" type="line"/>
      <point x="323" y="440" type="line"/>
      <point x="321" y="440" type="line"/>
      <point x="319" y="493"/>
      <point x="290" y="536"/>
      <point x="232" y="536" type="curve" smooth="yes"/>
      <point x="93" y="536"/>
      <point x="29" y="271"/>
      <point x="29" y="136" type="curve" smooth="yes"/>
      <point x="29" y="38"/>
      <point x="63" y="-10"/>
      <point x="123" y="-10" type="curve" smooth="yes"/>
      <point x="180" y="-10"/>
      <point x="221" y="35"/>
      <point x="246" y="90" type="curve"/>
      <point x="248" y="90" type="line"/>
      <point x="245" y="78"/>
      <point x="242" y="66"/>
    </contour>
    <contour>
      <point x="127" y="15" type="curve" smooth="yes"/>
      <point x="85" y="15"/>
      <point x="56" y="47"/>
      <point x="56" y="138" type="curve" smooth="yes"/>
      <point x="56" y="257"/>
      <point x="114" y="511"/>
      <point x="231" y="511" type="curve" smooth="yes"/>
      <point x="278" y="511"/>
      <point x="304" y="470"/>
      <point x="304" y="401" type="curve" smooth="yes"/>
      <point x="304" y="332"/>
      <point x="255" y="15"/>
    </contour>
  </outline>
</glyph>
<glyph name="r" format="2">
  <advance width="229"/>
  <unicode hex="0072"/>
  <anchor x="18" y="0" name="bottom"/>
  <anchor x="194" y="526" name="top"/>
  <anchor x="255" y="526" name="topright"/>
  <outline>
    <contour>
      <point x="6" y="0" type="line"/>
      <point x="32" y="0" type="line"/>
      <point x="92" y="282" type="line" smooth="yes"/>
      <point x="113" y="381"/>
      <point x="151" y="511"/>
      <point x="240" y="511" type="curve" smooth="yes"/>
      <point x="251" y="511"/>
      <point x="261" y="509"/>
      <point x="268" y="506" type="curve"/>
      <point x="274" y="530" type="line"/>
      <point x="267" y="533"/>
      <point x="256" y="536"/>
      <point x="240" y="536" type="curve" smooth="yes"/>
      <point x="188" y="536"/>
      <point x="149" y="498"/>
      <point x="123" y="437" type="curve"/>
      <point x="121" y="437" type="line"/>
      <point x="138" y="526" type="line"/>
      <point x="117" y="526" type="line"/>
    </contour>
  </outline>
</glyph>
<glyph name="u" format="2">
  <advance width="351"/>
  <unicode hex="0075"/>
  <anchor x="115" y="0" name="bottom"/>
  <anchor x="223" y="526" name="top"/>
  <anchor x="367" y="526" name="topright"/>
  <outline>
    <contour>
      <point x="106" y="-10" type="curve" smooth="yes"/>
      <point x="157" y="-10"/>
      <point x="200" y="23"/>
      <point x="223" y="78" type="curve"/>
      <point x="225" y="78" type="line"/>
      <point x="211" y="0" type="line"/>
      <point x="232" y="0" type="line"/>
      <point x="343" y="526" type="line"/>
      <point x="317" y="526" type="line"/>
      <point x="256" y="239" type="line" smooth="yes"/>
      <point x="225" y="90"/>
      <point x="183" y="15"/>
      <point x="109" y="15" type="curve" smooth="yes"/>
      <point x="74" y="15"/>
      <point x="52" y="34"/>
      <point x="52" y="73" type="curve" smooth="yes"/>
      <point x="52" y="107"/>
      <point x="62" y="148"/>
      <point x="70" y="187" type="curve" smooth="yes"/>
      <point x="142" y="526" type="line"/>
      <point x="116" y="526" type="line"/>
      <point x="46" y="197" type="line" smooth="yes"/>
      <point x="37" y="156"/>
      <point x="26" y="102"/>
      <point x="26" y="71" type="curve" smooth="yes"/>
      <point x="26" y="17"/>
      <point x="58" y="-10"/>
    </contour>
  </outline>
</glyph>
<glyph name="v" format="2">
  <advance width="266"/>
  <unicode hex="0076"/>
  <anchor x="77" y="0" name="bottom"/>
  <anchor x="189" y="526" name="top"/>
  <anchor x="302" y="526" name="topright"/>
  <outline>
    <contour>
      <point x="59" y="0" type="line"/>
      <point x="88" y="0" type="line"/>
      <point x="316" y="526" type="line"/>
      <point x="289" y="526" type="line"/>
      <point x="130" y="161" type="line" smooth="yes"/>
      <point x="114" y="124"/>
      <point x="99" y="87"/>
      <point x="85" y="49" type="curve"/>
      <point x="82" y="49" type="line"/>
      <point x="83" y="93"/>
      <point x="83" y="128"/>
      <point x="83" y="165" type="curve" smooth="yes"/>
      <point x="83" y="526" type="line"/>
      <point x="58" y="526" type="line"/>
    </contour>
  </outline>
</glyph>
<glyph name="y" format="2">
  <advance width="289"/>
  <unicode hex="0079"/>
  <anchor x="-72" y="-243" name="bottom"/>
  <anchor x="201" y="526" name="top"/>
  <anchor x="325" y="526" name="topright"/>
  <outline>
    <contour>
      <point x="-72" y="-243" type="curve" smooth="yes"/>
      <point x="-14" y="-243"/>
      <point x="18" y="-210"/>
      <point x="54" y="-126" type="curve" smooth="yes"/>
      <point x="340" y="526" type="line"/>
      <point x="313" y="526" type="line"/>
      <point x="146" y="144" type="line" smooth="yes"/>
      <point x="137" y="122"/>
      <point x="122" y="87"/>
      <point x="110" y="57" type="curve"/>
      <point x="108" y="57" type="line"/>
      <point x="109" y="85"/>
      <point x="110" y="119"/>
      <point x="109" y="141" type="curve" smooth="yes"/>
      <point x="108" y="526" type="line"/>
      <point x="82" y="526" type="line"/>
      <point x="85" y="13" type="line"/>
      <point x="29" y="-118" type="line" smooth="yes"/>
      <point x="-2" y="-192"/>
      <point x="-29" y="-218"/>
      <point x="-70" y="-218" type="curve" smooth="yes"/>
      <point x="-86" y="-218"/>
      <point x="-98" y="-214"/>
      <point x="-107" y="-208" type="curve"/>
      <point x="-113" y="-233" type="line"/>
      <point x="-106" y="-238"/>
      <point x="-91" y="-243"/>
    </contour>
  </outline>
</glyph>
<glyph name="z" format="2">
  <advance width="226"/>
  <unicode hex="007A"/>
  <anchor x="57" y="0" name="bottom"/>
  <anchor x="169" y="526" name="top"/>
  <anchor x="252" y="526" name="topright"/>
  <outline>
    <contour>
      <point x="-32" y="0" type="line"/>
      <point x="151" y="0" type="line"/>
      <point x="156" y="25" type="line"/>
      <point x="0" y="25" type="line"/>
      <point x="255" y="502" type="line"/>
      <point x="260" y="526" type="line"/>
      <point x="94" y="526" type="line"/>
      <point x="89" y="501" type="line"/>
      <point x="228" y="501" type="line"/>
      <point x="-27" y="24" type="line"/>
    </contour>
  </outline>
</glyph>
<glyph name="braceleft" format="2">
  <advance width="303"/>
  <unicode hex="007B"/>
  <outline>
    <contour>
      <point x="172" y="-158" type="curve" smooth="yes"/>
      <point x="186" y="-158" type="line"/>
      <point x="186" y="-133" type="line"/>
      <point x="123" y="-133"/>
      <point x="91" y="-120"/>
      <point x="91" y="-64" type="curve" smooth="yes"/>
      <point x="91" y="-48"/>
      <point x="94" y="-30"/>
      <point x="98" y="-12" type="curve" smooth="yes"/>
      <point x="134" y="157" type="line" smooth="yes"/>
      <point x="138" y="176"/>
      <point x="140" y="193"/>
      <point x="140" y="209" type="curve" smooth="yes"/>
      <point x="140" y="249"/>
      <point x="120" y="270"/>
      <point x="97" y="276" type="curve"/>
      <point x="97" y="277" type="line"/>
      <point x="145" y="288"/>
      <point x="167" y="315"/>
      <point x="181" y="379" type="curve" smooth="yes"/>
      <point x="224" y="579" type="line" smooth="yes"/>
      <point x="241" y="658"/>
      <point x="274" y="689"/>
      <point x="360" y="689" type="curve"/>
      <point x="366" y="714" type="line"/>
      <point x="360" y="714" type="line" smooth="yes"/>
      <point x="266" y="714"/>
      <point x="219" y="679"/>
      <point x="199" y="588" type="curve" smooth="yes"/>
      <point x="156" y="390" type="line" smooth="yes"/>
      <point x="139" y="311"/>
      <point x="111" y="291"/>
      <point x="37" y="290" type="curve"/>
      <point x="32" y="265" type="line"/>
      <point x="92" y="265"/>
      <point x="113" y="251"/>
      <point x="113" y="209" type="curve" smooth="yes"/>
      <point x="113" y="192"/>
      <point x="110" y="172"/>
      <point x="105" y="147" type="curve" smooth="yes"/>
      <point x="72" y="-8" type="line" smooth="yes"/>
      <point x="67" y="-30"/>
      <point x="64" y="-48"/>
      <point x="64" y="-65" type="curve" smooth="yes"/>
      <point x="64" y="-122"/>
      <point x="100" y="-158"/>
    </contour>
  </outline>
</glyph>
<glyph name="braceright" format="2">
  <advance width="302"/>
  <unicode hex="007D"/>
  <outline>
    <contour>
      <point x="-60" y="-134" type="curve"/>
      <point x="-60" y="-159" type="line"/>
      <point x="-58" y="-159" type="line" smooth="yes"/>
      <point x="34" y="-159"/>
      <point x="82" y="-124"/>
      <point x="101" y="-33" type="curve" smooth="yes"/>
      <point x="143" y="164" type="line" smooth="yes"/>
      <point x="160" y="243"/>
      <point x="189" y="264"/>
      <point x="263" y="265" type="curve"/>
      <point x="268" y="290" type="line"/>
      <point x="208" y="290"/>
      <point x="187" y="304"/>
      <point x="187" y="346" type="curve" smooth="yes"/>
      <point x="187" y="363"/>
      <point x="190" y="383"/>
      <point x="195" y="408" type="curve" smooth="yes"/>
      <point x="228" y="563" type="line" smooth="yes"/>
      <point x="233" y="585"/>
      <point x="236" y="604"/>
      <point x="236" y="621" type="curve" smooth="yes"/>
      <point x="236" y="678"/>
      <point x="200" y="714"/>
      <point x="128" y="714" type="curve" smooth="yes"/>
      <point x="119" y="714" type="line"/>
      <point x="114" y="689" type="line"/>
      <point x="177" y="689"/>
      <point x="209" y="676"/>
      <point x="209" y="620" type="curve" smooth="yes"/>
      <point x="209" y="604"/>
      <point x="206" y="585"/>
      <point x="202" y="567" type="curve" smooth="yes"/>
      <point x="166" y="398" type="line" smooth="yes"/>
      <point x="162" y="379"/>
      <point x="160" y="362"/>
      <point x="160" y="346" type="curve" smooth="yes"/>
      <point x="160" y="306"/>
      <point x="180" y="285"/>
      <point x="203" y="279" type="curve"/>
      <point x="203" y="278" type="line"/>
      <point x="155" y="267"/>
      <point x="131" y="239"/>
      <point x="118" y="175" type="curve" smooth="yes"/>
      <point x="76" y="-24" type="line" smooth="yes"/>
      <point x="59" y="-103"/>
      <point x="26" y="-134"/>
    </contour>
  </outline>
</glyph>
<glyph name="asciitilde" format="2">
  <advance width="386"/>
  <unicode hex="007E"/>
  <outline>
    <contour>
      <point x="215" y="340" type="curve" smooth="yes"/>
      <point x="237" y="326"/>
      <point x="259" y="313"/>
      <point x="290" y="313" type="curve" smooth="yes"/>
      <point x="327" y="313"/>
      <point x="358" y="331"/>
      <point x="378" y="354" type="curve"/>
      <point x="378" y="387" type="line"/>
      <point x="354" y="354"/>
      <point x="320" y="338"/>
      <point x="289" y="338" type="curve" smooth="yes"/>
      <point x="263" y="338"/>
      <point x="247" y="349"/>
      <point x="221" y="365" type="curve" smooth="yes"/>
      <point x="194" y="382"/>
      <point x="171" y="395"/>
      <point x="139" y="395" type="curve" smooth="yes"/>
      <point x="100" y="395"/>
      <point x="70" y="375"/>
      <point x="48" y="350" type="curve"/>
      <point x="48" y="317" type="line"/>
      <point x="76" y="354"/>
      <point x="105" y="370"/>
      <point x="138" y="370" type="curve" smooth="yes"/>
      <point x="168" y="370"/>
      <point x="190" y="356"/>
    </contour>
  </outline>
</glyph>
<glyph name="exclamdown" format="2">
  <advance width="199"/>
  <unicode hex="00A1"/>
  <outline>
    <contour>
      <point x="-10" y="-180" type="line"/>
      <point x="18" y="-180" type="line"/>
      <point x="139" y="368" type="line"/>
      <point x="114" y="368" type="line"/>
    </contour>
    <contour>
      <point x="152" y="466" type="curve" smooth="yes"/>
      <point x="172" y="466"/>
      <point x="181" y="492"/>
      <point x="181" y="511" type="curve" smooth="yes"/>
      <point x="181" y="526"/>
      <point x="174" y="535"/>
      <point x="163" y="535" type="curve" smooth="yes"/>
      <point x="143" y="535"/>
      <point x="134" y="508"/>
      <point x="134" y="491" type="curve" smooth="yes"/>
      <point x="134" y="474"/>
      <point x="141" y="466"/>
    </contour>
  </outline>
</glyph>
<glyph name="cent" format="2">
  <advance width="336"/>
  <unicode hex="00A2"/>
  <outline>
    <contour>
      <point x="144" y="97" type="curve"/>
      <point x="121" y="-10" type="line"/>
      <point x="147" y="-10" type="line"/>
      <point x="169" y="94" type="line"/>
      <point x="195" y="94"/>
      <point x="217" y="98"/>
      <point x="238" y="108" type="curve"/>
      <point x="238" y="134" type="line"/>
      <point x="220" y="125"/>
      <point x="198" y="119"/>
      <point x="176" y="119" type="curve" smooth="yes"/>
      <point x="120" y="119"/>
      <point x="93" y="154"/>
      <point x="93" y="251" type="curve" smooth="yes"/>
      <point x="93" y="403"/>
      <point x="159" y="615"/>
      <point x="273" y="615" type="curve" smooth="yes"/>
      <point x="290" y="615"/>
      <point x="307" y="612"/>
      <point x="323" y="604" type="curve"/>
      <point x="332" y="629" type="line"/>
      <point x="320" y="635"/>
      <point x="303" y="638"/>
      <point x="286" y="640" type="curve"/>
      <point x="303" y="724" type="line"/>
      <point x="277" y="724" type="line"/>
      <point x="259" y="639" type="line"/>
      <point x="130" y="625"/>
      <point x="67" y="400"/>
      <point x="67" y="249" type="curve" smooth="yes"/>
      <point x="67" y="152"/>
      <point x="92" y="108"/>
    </contour>
  </outline>
</glyph>
<glyph name="sterling" format="2">
  <advance width="339"/>
  <unicode hex="00A3"/>
  <outline>
    <contour>
      <point x="-27" y="22" type="curve"/>
      <point x="-32" y="0" type="line"/>
      <point x="247" y="0" type="line"/>
      <point x="252" y="25" type="line"/>
      <point x="23" y="25" type="line"/>
      <point x="50" y="41"/>
      <point x="80" y="76"/>
      <point x="102" y="181" type="curve" smooth="yes"/>
      <point x="136" y="340" type="line"/>
      <point x="242" y="340" type="line"/>
      <point x="247" y="365" type="line"/>
      <point x="141" y="365" type="line"/>
      <point x="185" y="576" type="line" smooth="yes"/>
      <point x="201" y="651"/>
      <point x="222" y="699"/>
      <point x="290" y="699" type="curve" smooth="yes"/>
      <point x="328" y="699"/>
      <point x="350" y="682"/>
      <point x="368" y="665" type="curve"/>
      <point x="385" y="684" type="line"/>
      <point x="365" y="704"/>
      <point x="338" y="724"/>
      <point x="292" y="724" type="curve" smooth="yes"/>
      <point x="206" y="724"/>
      <point x="178" y="666"/>
      <point x="159" y="576" type="curve" smooth="yes"/>
      <point x="114" y="365" type="line"/>
      <point x="45" y="365" type="line"/>
      <point x="40" y="340" type="line"/>
      <point x="110" y="340" type="line"/>
      <point x="76" y="181" type="line" smooth="yes"/>
      <point x="54" y="76"/>
      <point x="23" y="36"/>
    </contour>
  </outline>
</glyph>
<glyph name="currency" format="2">
  <advance width="557"/>
  <unicode hex="00A4"/>
  <outline>
    <contour>
      <point x="409" y="208" type="curve"/>
      <point x="484" y="133" type="line"/>
      <point x="500" y="148" type="line"/>
      <point x="426" y="224" type="line"/>
      <point x="459" y="263"/>
      <point x="474" y="310"/>
      <point x="474" y="355" type="curve" smooth="yes"/>
      <point x="474" y="399"/>
      <point x="459" y="446"/>
      <point x="427" y="483" type="curve"/>
      <point x="501" y="557" type="line"/>
      <point x="485" y="572" type="line"/>
      <point x="410" y="498" type="line"/>
      <point x="372" y="531"/>
      <point x="327" y="547"/>
      <point x="285" y="547" type="curve" smooth="yes"/>
      <point x="243" y="547"/>
      <point x="198" y="530"/>
      <point x="160" y="497" type="curve"/>
      <point x="85" y="573" type="line"/>
      <point x="70" y="558" type="line"/>
      <point x="143" y="482" type="line"/>
      <point x="111" y="444"/>
      <point x="95" y="398"/>
      <point x="95" y="353" type="curve" smooth="yes"/>
      <point x="95" y="310"/>
      <point x="111" y="263"/>
      <point x="142" y="224" type="curve"/>
      <point x="69" y="150" type="line"/>
      <point x="84" y="134" type="line"/>
      <point x="159" y="209" type="line"/>
      <point x="195" y="176"/>
      <point x="240" y="160"/>
      <point x="284" y="160" type="curve" smooth="yes"/>
      <point x="327" y="160"/>
      <point x="373" y="176"/>
    </contour>
    <contour>
      <point x="283" y="183" type="curve" smooth="yes"/>
      <point x="193" y="183"/>
      <point x="118" y="257"/>
      <point x="118" y="353" type="curve" smooth="yes"/>
      <point x="118" y="447"/>
      <point x="198" y="527"/>
      <point x="286" y="526" type="curve" smooth="yes"/>
      <point x="372" y="525"/>
      <point x="456" y="444"/>
      <point x="453" y="355" type="curve" smooth="yes"/>
      <point x="450" y="265"/>
      <point x="378" y="183"/>
    </contour>
  </outline>
</glyph>
<glyph name="yen" format="2">
  <advance width="318"/>
  <unicode hex="00A5"/>
  <outline>
    <contour>
      <point x="76" y="0" type="line"/>
      <point x="102" y="0" type="line"/>
      <point x="136" y="153" type="line"/>
      <point x="229" y="153" type="line"/>
      <point x="234" y="178" type="line"/>
      <point x="141" y="178" type="line"/>
      <point x="164" y="286" type="line"/>
      <point x="258" y="286" type="line"/>
      <point x="263" y="311" type="line"/>
      <point x="177" y="311" type="line"/>
      <point x="361" y="714" type="line"/>
      <point x="333" y="714" type="line"/>
      <point x="161" y="332" type="line"/>
      <point x="149" y="714" type="line"/>
      <point x="124" y="714" type="line"/>
      <point x="138" y="311" type="line"/>
      <point x="54" y="311" type="line"/>
      <point x="48" y="286" type="line"/>
      <point x="138" y="286" type="line"/>
      <point x="115" y="178" type="line"/>
      <point x="24" y="178" type="line"/>
      <point x="19" y="153" type="line"/>
      <point x="110" y="153" type="line"/>
    </contour>
  </outline>
</glyph>
<glyph name="section" format="2">
  <advance width="284"/>
  <unicode hex="00A7"/>
  <outline>
    <contour>
      <point x="73" y="60" type="curve" smooth="yes"/>
      <point x="161" y="60"/>
      <point x="218" y="116"/>
      <point x="218" y="194" type="curve" smooth="yes"/>
      <point x="218" y="230"/>
      <point x="200" y="267"/>
      <point x="178" y="288" type="curve"/>
      <point x="229" y="319"/>
      <point x="264" y="363"/>
      <point x="264" y="419" type="curve" smooth="yes"/>
      <point x="264" y="469"/>
      <point x="233" y="501"/>
      <point x="187" y="534" type="curve" smooth="yes"/>
      <point x="153" y="559"/>
      <point x="126" y="584"/>
      <point x="126" y="635" type="curve" smooth="yes"/>
      <point x="126" y="697"/>
      <point x="164" y="734"/>
      <point x="223" y="734" type="curve" smooth="yes"/>
      <point x="256" y="734"/>
      <point x="284" y="723"/>
      <point x="306" y="707" type="curve"/>
      <point x="321" y="728" type="line"/>
      <point x="298" y="745"/>
      <point x="265" y="759"/>
      <point x="222" y="759" type="curve" smooth="yes"/>
      <point x="143" y="759"/>
      <point x="98" y="704"/>
      <point x="98" y="631" type="curve" smooth="yes"/>
      <point x="98" y="599"/>
      <point x="110" y="568"/>
      <point x="141" y="539" type="curve"/>
      <point x="77" y="510"/>
      <point x="47" y="472"/>
      <point x="47" y="416" type="curve" smooth="yes"/>
      <point x="47" y="361"/>
      <point x="84" y="332"/>
      <point x="121" y="303" type="curve" smooth="yes"/>
      <point x="163" y="270"/>
      <point x="191" y="241"/>
      <point x="191" y="193" type="curve" smooth="yes"/>
      <point x="191" y="129"/>
      <point x="146" y="85"/>
      <point x="74" y="85" type="curve" smooth="yes"/>
      <point x="31" y="85"/>
      <point x="1" y="99"/>
      <point x="-18" y="112" type="curve"/>
      <point x="-18" y="81" type="line"/>
      <point x="0" y="71"/>
      <point x="29" y="60"/>
    </contour>
    <contour>
      <point x="161" y="306" type="curve"/>
      <point x="107" y="347"/>
      <point x="74" y="371"/>
      <point x="74" y="417" type="curve" smooth="yes"/>
      <point x="74" y="466"/>
      <point x="102" y="499"/>
      <point x="159" y="521" type="curve"/>
      <point x="206" y="491"/>
      <point x="237" y="462"/>
      <point x="237" y="417" type="curve" smooth="yes"/>
      <point x="237" y="371"/>
      <point x="208" y="335"/>
    </contour>
  </outline>
</glyph>
<glyph name="dieresis" format="2">
  <advance width="459"/>
  <unicode hex="00A8"/>
  <outline>
    <contour>
      <point x="332" y="647" type="curve" smooth="yes"/>
      <point x="349" y="647"/>
      <point x="358" y="673"/>
      <point x="358" y="689" type="curve" smooth="yes"/>
      <point x="358" y="704"/>
      <point x="351" y="712"/>
      <point x="341" y="712" type="curve" smooth="yes"/>
      <point x="324" y="712"/>
      <point x="315" y="687"/>
      <point x="315" y="670" type="curve" smooth="yes"/>
      <point x="315" y="655"/>
      <point x="322" y="647"/>
    </contour>
    <contour>
      <point x="209" y="647" type="curve" smooth="yes"/>
      <point x="226" y="647"/>
      <point x="235" y="673"/>
      <point x="235" y="689" type="curve" smooth="yes"/>
      <point x="235" y="704"/>
      <point x="228" y="712"/>
      <point x="217" y="712" type="curve" smooth="yes"/>
      <point x="200" y="712"/>
      <point x="191" y="687"/>
      <point x="191" y="670" type="curve" smooth="yes"/>
      <point x="191" y="655"/>
      <point x="198" y="647"/>
    </contour>
  </outline>
</glyph>
<glyph name="copyright" format="2">
  <advance width="812"/>
  <unicode hex="00A9"/>
  <outline>
    <contour>
      <point x="412" y="-8" type="curve" smooth="yes"/>
      <point x="610" y="-8"/>
      <point x="772" y="157"/>
      <point x="772" y="358" type="curve" smooth="yes"/>
      <point x="772" y="547"/>
      <point x="623" y="722"/>
      <point x="415" y="722" type="curve" smooth="yes"/>
      <point x="220" y="722"/>
      <point x="55" y="564"/>
      <point x="55" y="356" type="curve" smooth="yes"/>
      <point x="55" y="156"/>
      <point x="203" y="-8"/>
    </contour>
    <contour>
      <point x="431" y="143" type="curve" smooth="yes"/>
      <point x="476" y="143"/>
      <point x="512" y="150"/>
      <point x="545" y="164" type="curve"/>
      <point x="545" y="189" type="line"/>
      <point x="506" y="174"/>
      <point x="478" y="169"/>
      <point x="432" y="169" type="curve" smooth="yes"/>
      <point x="329" y="169"/>
      <point x="259" y="227"/>
      <point x="259" y="355" type="curve" smooth="yes"/>
      <point x="259" y="473"/>
      <point x="322" y="545"/>
      <point x="426" y="545" type="curve" smooth="yes"/>
      <point x="475" y="545"/>
      <point x="508" y="536"/>
      <point x="540" y="522" type="curve"/>
      <point x="551" y="546" type="line"/>
      <point x="517" y="562"/>
      <point x="478" y="572"/>
      <point x="426" y="572" type="curve" smooth="yes"/>
      <point x="305" y="572"/>
      <point x="231" y="487"/>
      <point x="231" y="355" type="curve" smooth="yes"/>
      <point x="231" y="213"/>
      <point x="311" y="143"/>
    </contour>
    <contour>
      <point x="412" y="17" type="curve" smooth="yes"/>
      <point x="214" y="17"/>
      <point x="81" y="171"/>
      <point x="81" y="356" type="curve" smooth="yes"/>
      <point x="81" y="545"/>
      <point x="228" y="697"/>
      <point x="416" y="697" type="curve" smooth="yes"/>
      <point x="605" y="697"/>
      <point x="746" y="541"/>
      <point x="746" y="358" type="curve" smooth="yes"/>
      <point x="746" y="177"/>
      <point x="603" y="17"/>
    </contour>
  </outline>
</glyph>
<glyph name="ordfeminine" format="2">
  <advance width="229"/>
  <unicode hex="00AA"/>
  <anchor x="141" y="401" name="bottom"/>
  <anchor x="201" y="719" name="top"/>
  <outline>
    <contour>
      <point x="141" y="401" type="curve" smooth="yes"/>
      <point x="173" y="401"/>
      <point x="196" y="420"/>
      <point x="214" y="454" type="curve"/>
      <point x="216" y="454" type="line"/>
      <point x="209" y="407" type="line"/>
      <point x="230" y="407" type="line"/>
      <point x="294" y="716" type="line"/>
      <point x="273" y="716" type="line"/>
      <point x="259" y="670" type="line"/>
      <point x="257" y="670" type="line"/>
      <point x="250" y="696"/>
      <point x="235" y="722"/>
      <point x="193" y="722" type="curve" smooth="yes"/>
      <point x="106" y="722"/>
      <point x="65" y="605"/>
      <point x="65" y="511" type="curve" smooth="yes"/>
      <point x="65" y="434"/>
      <point x="94" y="401"/>
    </contour>
    <contour>
      <point x="144" y="426" type="curve" smooth="yes"/>
      <point x="111" y="426"/>
      <point x="92" y="451"/>
      <point x="92" y="513" type="curve" smooth="yes"/>
      <point x="92" y="588"/>
      <point x="125" y="697"/>
      <point x="191" y="697" type="curve" smooth="yes"/>
      <point x="229" y="697"/>
      <point x="243" y="668"/>
      <point x="243" y="620" type="curve" smooth="yes"/>
      <point x="243" y="587"/>
      <point x="221" y="426"/>
    </contour>
  </outline>
</glyph>
<glyph name="logicalnot" format="2">
  <advance width="381"/>
  <unicode hex="00AC"/>
  <outline>
    <contour>
      <point x="363" y="363" type="line"/>
      <point x="48" y="363" type="line"/>
      <point x="48" y="338" type="line"/>
      <point x="337" y="338" type="line"/>
      <point x="337" y="120" type="line"/>
      <point x="363" y="120" type="line"/>
    </contour>
  </outline>
</glyph>
<glyph name="registered" format="2">
  <advance width="812"/>
  <unicode hex="00AE"/>
  <outline>
    <contour>
      <point x="297" y="143" type="line"/>
      <point x="323" y="143" type="line"/>
      <point x="323" y="324" type="line"/>
      <point x="435" y="324" type="line"/>
      <point x="523" y="143" type="line"/>
      <point x="553" y="143" type="line"/>
      <point x="460" y="330" type="line"/>
      <point x="513" y="345"/>
      <point x="551" y="378"/>
      <point x="551" y="450" type="curve" smooth="yes"/>
      <point x="551" y="533"/>
      <point x="495" y="569"/>
      <point x="414" y="569" type="curve" smooth="yes"/>
      <point x="297" y="569" type="line"/>
    </contour>
    <contour>
      <point x="409" y="347" type="curve" smooth="yes"/>
      <point x="323" y="347" type="line"/>
      <point x="323" y="544" type="line"/>
      <point x="411" y="544" type="line" smooth="yes"/>
      <point x="479" y="544"/>
      <point x="526" y="517"/>
      <point x="526" y="450" type="curve" smooth="yes"/>
      <point x="526" y="377"/>
      <point x="474" y="347"/>
    </contour>
    <contour>
      <point x="412" y="-8" type="curve" smooth="yes"/>
      <point x="610" y="-8"/>
      <point x="772" y="157"/>
      <point x="772" y="358" type="curve" smooth="yes"/>
      <point x="772" y="547"/>
      <point x="623" y="722"/>
      <point x="415" y="722" type="curve" smooth="yes"/>
      <point x="220" y="722"/>
      <point x="55" y="564"/>
      <point x="55" y="356" type="curve" smooth="yes"/>
      <point x="55" y="156"/>
      <point x="203" y="-8"/>
    </contour>
    <contour>
      <point x="412" y="17" type="curve" smooth="yes"/>
      <point x="214" y="17"/>
      <point x="81" y="171"/>
      <point x="81" y="356" type="curve" smooth="yes"/>
      <point x="81" y="545"/>
      <point x="228" y="697"/>
      <point x="416" y="697" type="curve" smooth="yes"/>
      <point x="605" y="697"/>
      <point x="746" y="541"/>
      <point x="746" y="358" type="curve" smooth="yes"/>
      <point x="746" y="177"/>
      <point x="603" y="17"/>
    </contour>
  </outline>
</glyph>
<glyph name="overscore" format="2">
  <advance width="348"/>
  <unicode hex="00AF"/>
  <outline>
    <contour>
      <point x="104" y="760" type="line"/>
      <point x="458" y="760" type="line"/>
      <point x="464" y="785" type="line"/>
      <point x="110" y="785" type="line"/>
    </contour>
  </outline>
</glyph>
<glyph name="degree" format="2">
  <advance width="318"/>
  <unicode hex="00B0"/>
  <outline>
    <contour>
      <point x="211" y="479" type="curve" smooth="yes"/>
      <point x="275" y="479"/>
      <point x="332" y="528"/>
      <point x="332" y="602" type="curve" smooth="yes"/>
      <point x="332" y="670"/>
      <point x="275" y="723"/>
      <point x="212" y="723" type="curve" smooth="yes"/>
      <point x="149" y="723"/>
      <point x="93" y="671"/>
      <point x="93" y="602" type="curve" smooth="yes"/>
      <point x="93" y="530"/>
      <point x="150" y="479"/>
    </contour>
    <contour>
      <point x="211" y="504" type="curve" smooth="yes"/>
      <point x="161" y="504"/>
      <point x="118" y="545"/>
      <point x="118" y="602" type="curve" smooth="yes"/>
      <point x="118" y="652"/>
      <point x="154" y="698"/>
      <point x="212" y="698" type="curve" smooth="yes"/>
      <point x="266" y="698"/>
      <point x="307" y="654"/>
      <point x="307" y="602" type="curve" smooth="yes"/>
      <point x="307" y="547"/>
      <point x="264" y="504"/>
    </contour>
  </outline>
</glyph>
<glyph name="twosuperior" format="2">
  <advance width="240"/>
  <unicode hex="00B2"/>
  <outline>
    <contour>
      <point x="50" y="415" type="line"/>
      <point x="238" y="415" type="line"/>
      <point x="244" y="440" type="line"/>
      <point x="86" y="440" type="line"/>
      <point x="187" y="559" type="line" smooth="yes"/>
      <point x="248" y="631"/>
      <point x="304" y="694"/>
      <point x="304" y="769" type="curve" smooth="yes"/>
      <point x="304" y="825"/>
      <point x="270" y="856"/>
      <point x="220" y="856" type="curve" smooth="yes"/>
      <point x="180" y="856"/>
      <point x="153" y="840"/>
      <point x="133" y="824" type="curve"/>
      <point x="146" y="803" type="line"/>
      <point x="168" y="820"/>
      <point x="188" y="831"/>
      <point x="217" y="831" type="curve" smooth="yes"/>
      <point x="255" y="831"/>
      <point x="278" y="808"/>
      <point x="278" y="766" type="curve" smooth="yes"/>
      <point x="278" y="695"/>
      <point x="217" y="633"/>
      <point x="164" y="569" type="curve" smooth="yes"/>
      <point x="53" y="436" type="line"/>
    </contour>
  </outline>
</glyph>
<glyph name="threesuperior" format="2">
  <advance width="240"/>
  <unicode hex="00B3"/>
  <outline>
    <contour>
      <point x="131" y="409" type="curve" smooth="yes"/>
      <point x="226" y="409"/>
      <point x="263" y="479"/>
      <point x="263" y="546" type="curve" smooth="yes"/>
      <point x="263" y="601"/>
      <point x="236" y="629"/>
      <point x="207" y="638" type="curve"/>
      <point x="208" y="640" type="line"/>
      <point x="263" y="650"/>
      <point x="305" y="701"/>
      <point x="305" y="769" type="curve" smooth="yes"/>
      <point x="305" y="815"/>
      <point x="280" y="856"/>
      <point x="221" y="856" type="curve" smooth="yes"/>
      <point x="182" y="856"/>
      <point x="152" y="839"/>
      <point x="133" y="823" type="curve"/>
      <point x="147" y="803" type="line"/>
      <point x="165" y="817"/>
      <point x="189" y="831"/>
      <point x="220" y="831" type="curve" smooth="yes"/>
      <point x="260" y="831"/>
      <point x="279" y="803"/>
      <point x="279" y="765" type="curve" smooth="yes"/>
      <point x="279" y="717"/>
      <point x="248" y="653"/>
      <point x="165" y="653" type="curve" smooth="yes"/>
      <point x="142" y="653" type="line"/>
      <point x="137" y="628" type="line"/>
      <point x="159" y="628" type="line" smooth="yes"/>
      <point x="201" y="628"/>
      <point x="237" y="607"/>
      <point x="237" y="544" type="curve" smooth="yes"/>
      <point x="237" y="484"/>
      <point x="203" y="434"/>
      <point x="133" y="434" type="curve" smooth="yes"/>
      <point x="102" y="434"/>
      <point x="77" y="443"/>
      <point x="59" y="454" type="curve"/>
      <point x="59" y="425" type="line"/>
      <point x="74" y="417"/>
      <point x="96" y="409"/>
    </contour>
  </outline>
</glyph>
<glyph name="acute" format="2">
  <advance width="199"/>
  <unicode hex="00B4"/>
  <anchor x="139" y="530" name="_top"/>
  <outline>
    <contour>
      <point x="115" y="614" type="curve"/>
      <point x="116" y="606" type="line"/>
      <point x="126" y="606" type="line"/>
      <point x="172" y="640"/>
      <point x="236" y="715"/>
      <point x="264" y="758" type="curve"/>
      <point x="264" y="766" type="line"/>
      <point x="234" y="766" type="line"/>
      <point x="212" y="725"/>
      <point x="164" y="662"/>
    </contour>
  </outline>
</glyph>
<glyph name="micro" format="2">
  <advance width="355"/>
  <unicode hex="00B5"/>
  <outline>
    <contour>
      <point x="-47" y="-240" type="line"/>
      <point x="-21" y="-240" type="line"/>
      <point x="27" y="-11" type="line" smooth="yes"/>
      <point x="31" y="9"/>
      <point x="35" y="29"/>
      <point x="38" y="49" type="curve"/>
      <point x="40" y="49" type="line"/>
      <point x="48" y="18"/>
      <point x="70" y="-10"/>
      <point x="118" y="-10" type="curve" smooth="yes"/>
      <point x="167" y="-10"/>
      <point x="198" y="18"/>
      <point x="220" y="65" type="curve"/>
      <point x="222" y="65" type="line"/>
      <point x="210" y="0" type="line"/>
      <point x="231" y="0" type="line"/>
      <point x="342" y="526" type="line"/>
      <point x="316" y="526" type="line"/>
      <point x="255" y="239" type="line" smooth="yes"/>
      <point x="224" y="90"/>
      <point x="192" y="15"/>
      <point x="122" y="15" type="curve" smooth="yes"/>
      <point x="78" y="15"/>
      <point x="56" y="45"/>
      <point x="56" y="91" type="curve" smooth="yes"/>
      <point x="56" y="116"/>
      <point x="62" y="148"/>
      <point x="70" y="187" type="curve" smooth="yes"/>
      <point x="141" y="526" type="line"/>
      <point x="115" y="526" type="line"/>
    </contour>
  </outline>
</glyph>
<glyph name="paragraph" format="2">
  <advance width="396"/>
  <unicode hex="00B6"/>
  <outline>
    <contour>
      <point x="209" y="455" type="curve"/>
      <point x="209" y="-127" type="line"/>
      <point x="235" y="-127" type="line"/>
      <point x="235" y="735" type="line"/>
      <point x="324" y="735" type="line"/>
      <point x="324" y="-127" type="line"/>
      <point x="349" y="-127" type="line"/>
      <point x="349" y="760" type="line"/>
      <point x="201" y="760" type="line" smooth="yes"/>
      <point x="138" y="760"/>
      <point x="96" y="724"/>
      <point x="96" y="597" type="curve" smooth="yes"/>
      <point x="96" y="481"/>
      <point x="138" y="448"/>
      <point x="180" y="448" type="curve" smooth="yes"/>
      <point x="192" y="448"/>
      <point x="201" y="450"/>
    </contour>
  </outline>
</glyph>
<glyph name="cedilla" format="2">
  <advance width="210"/>
  <unicode hex="00B8"/>
  <outline>
    <contour>
      <point x="-9" y="-240" type="curve" smooth="yes"/>
      <point x="57" y="-240"/>
      <point x="105" y="-195"/>
      <point x="105" y="-138" type="curve" smooth="yes"/>
      <point x="105" y="-96"/>
      <point x="77" y="-73"/>
      <point x="34" y="-65" type="curve"/>
      <point x="79" y="0" type="line"/>
      <point x="54" y="0" type="line"/>
      <point x="-2" y="-79" type="line"/>
      <point x="50" y="-84"/>
      <point x="80" y="-100"/>
      <point x="80" y="-141" type="curve" smooth="yes"/>
      <point x="80" y="-182"/>
      <point x="45" y="-216"/>
      <point x="-7" y="-216" type="curve" smooth="yes"/>
      <point x="-38" y="-216"/>
      <point x="-56" y="-212"/>
      <point x="-66" y="-208" type="curve"/>
      <point x="-66" y="-233" type="line"/>
      <point x="-52" y="-236"/>
      <point x="-38" y="-240"/>
    </contour>
  </outline>
</glyph>
<glyph name="onesuperior" format="2">
  <advance width="240"/>
  <unicode hex="00B9"/>
  <outline>
    <contour>
      <point x="224" y="775" type="curve" smooth="yes"/>
      <point x="146" y="416" type="line"/>
      <point x="172" y="416" type="line"/>
      <point x="264" y="844" type="line"/>
      <point x="235" y="844" type="line"/>
      <point x="121" y="762" type="line"/>
      <point x="133" y="742" type="line"/>
      <point x="197" y="787" type="line" smooth="yes"/>
      <point x="208" y="795"/>
      <point x="218" y="803"/>
      <point x="233" y="817" type="curve"/>
      <point x="230" y="804"/>
      <point x="227" y="791"/>
    </contour>
  </outline>
</glyph>
<glyph name="ordmasculine" format="2">
  <advance width="223"/>
  <unicode hex="00BA"/>
  <anchor x="150" y="398" name="bottom"/>
  <anchor x="206" y="721" name="top"/>
  <outline>
    <contour>
      <point x="150" y="398" type="curve" smooth="yes"/>
      <point x="232" y="398"/>
      <point x="274" y="533"/>
      <point x="274" y="627" type="curve" smooth="yes"/>
      <point x="274" y="692"/>
      <point x="250" y="722"/>
      <point x="206" y="722" type="curve" smooth="yes"/>
      <point x="111" y="722"/>
      <point x="79" y="572"/>
      <point x="79" y="492" type="curve" smooth="yes"/>
      <point x="79" y="431"/>
      <point x="101" y="398"/>
    </contour>
    <contour>
      <point x="151" y="423" type="curve" smooth="yes"/>
      <point x="118" y="423"/>
      <point x="106" y="449"/>
      <point x="106" y="493" type="curve" smooth="yes"/>
      <point x="106" y="563"/>
      <point x="136" y="697"/>
      <point x="203" y="697" type="curve" smooth="yes"/>
      <point x="233" y="697"/>
      <point x="247" y="673"/>
      <point x="247" y="626" type="curve" smooth="yes"/>
      <point x="247" y="557"/>
      <point x="217" y="423"/>
    </contour>
  </outline>
</glyph>
<glyph name="AE" format="2">
  <advance width="463"/>
  <unicode hex="00C6"/>
  <anchor x="176" y="0" name="bottom"/>
  <anchor x="348" y="714" name="top"/>
  <outline>
    <contour>
      <point x="-71" y="0" type="line"/>
      <point x="-42" y="0" type="line"/>
      <point x="88" y="286" type="line"/>
      <point x="200" y="286" type="line"/>
      <point x="139" y="0" type="line"/>
      <point x="360" y="0" type="line"/>
      <point x="365" y="25" type="line"/>
      <point x="170" y="25" type="line"/>
      <point x="242" y="363" type="line"/>
      <point x="424" y="363" type="line"/>
      <point x="430" y="388" type="line"/>
      <point x="248" y="388" type="line"/>
      <point x="312" y="689" type="line"/>
      <point x="507" y="689" type="line"/>
      <point x="512" y="714" type="line"/>
      <point x="257" y="714" type="line"/>
    </contour>
    <contour>
      <point x="100" y="311" type="line"/>
      <point x="272" y="689" type="line"/>
      <point x="286" y="689" type="line"/>
      <point x="205" y="311" type="line"/>
    </contour>
  </outline>
</glyph>
<glyph name="Eth" format="2">
  <advance width="409"/>
  <unicode hex="00D0"/>
  <anchor x="147" y="0" name="bottom"/>
  <anchor x="279" y="714" name="top"/>
  <outline>
    <contour>
      <point x="207" y="382" type="line"/>
      <point x="31" y="382" type="line"/>
      <point x="25" y="357" type="line"/>
      <point x="201" y="357" type="line"/>
    </contour>
    <component base="D"/>
  </outline>
</glyph>
<glyph name="multiply" format="2">
  <advance width="367"/>
  <unicode hex="00D7"/>
  <outline>
    <contour>
      <point x="342" y="514" type="line"/>
      <point x="204" y="370" type="line"/>
      <point x="66" y="514" type="line"/>
      <point x="50" y="498" type="line"/>
      <point x="187" y="354" type="line"/>
      <point x="48" y="209" type="line"/>
      <point x="63" y="193" type="line"/>
      <point x="203" y="338" type="line"/>
      <point x="340" y="194" type="line"/>
      <point x="357" y="210" type="line"/>
      <point x="219" y="354" type="line"/>
      <point x="358" y="499" type="line"/>
    </contour>
  </outline>
</glyph>
<glyph name="Oslash" format="2">
  <advance width="439"/>
  <unicode hex="00D8"/>
  <anchor x="155" y="-41" name="bottom"/>
  <anchor x="325" y="755" name="top"/>
  <outline>
    <contour>
      <point x="-2" y="-41" type="line"/>
      <point x="56" y="54" type="line"/>
      <point x="76" y="11"/>
      <point x="111" y="-10"/>
      <point x="157" y="-10" type="curve" smooth="yes"/>
      <point x="345" y="-10"/>
      <point x="418" y="364"/>
      <point x="418" y="544" type="curve" smooth="yes"/>
      <point x="418" y="578"/>
      <point x="415" y="608"/>
      <point x="408" y="631" type="curve"/>
      <point x="476" y="742" type="line"/>
      <point x="455" y="755" type="line"/>
      <point x="398" y="662" type="line"/>
      <point x="378" y="705"/>
      <point x="344" y="724"/>
      <point x="297" y="724" type="curve" smooth="yes"/>
      <point x="114" y="724"/>
      <point x="34" y="367"/>
      <point x="34" y="184" type="curve" smooth="yes"/>
      <point x="34" y="145"/>
      <point x="37" y="111"/>
      <point x="45" y="85" type="curve"/>
      <point x="-24" y="-28" type="line"/>
    </contour>
    <contour>
      <point x="160" y="15" type="curve" smooth="yes"/>
      <point x="119" y="15"/>
      <point x="89" y="36"/>
      <point x="74" y="83" type="curve"/>
      <point x="388" y="598" type="line"/>
      <point x="390" y="582"/>
      <point x="391" y="563"/>
      <point x="391" y="543" type="curve" smooth="yes"/>
      <point x="391" y="372"/>
      <point x="319" y="15"/>
    </contour>
    <contour>
      <point x="380" y="634" type="curve"/>
      <point x="65" y="118" type="line"/>
      <point x="62" y="137"/>
      <point x="61" y="160"/>
      <point x="61" y="186" type="curve" smooth="yes"/>
      <point x="61" y="344"/>
      <point x="134" y="699"/>
      <point x="295" y="699" type="curve" smooth="yes"/>
      <point x="339" y="699"/>
      <point x="366" y="679"/>
    </contour>
  </outline>
</glyph>
<glyph name="germandbls" format="2">
  <advance width="322"/>
  <unicode hex="00DF"/>
  <anchor x="55" y="-240" name="bottom"/>
  <anchor x="269" y="765" name="top"/>
  <outline>
    <contour>
      <point x="-101" y="-240" type="curve" smooth="yes"/>
      <point x="-34" y="-240"/>
      <point x="-16" y="-178"/>
      <point x="1" y="-101" type="curve" smooth="yes"/>
      <point x="154" y="614" type="line" smooth="yes"/>
      <point x="173" y="701"/>
      <point x="197" y="740"/>
      <point x="248" y="740" type="curve" smooth="yes"/>
      <point x="283" y="740"/>
      <point x="309" y="716"/>
      <point x="309" y="672" type="curve" smooth="yes"/>
      <point x="309" y="610"/>
      <point x="280" y="576"/>
      <point x="232" y="522" type="curve" smooth="yes"/>
      <point x="194" y="480"/>
      <point x="175" y="441"/>
      <point x="175" y="395" type="curve" smooth="yes"/>
      <point x="175" y="355"/>
      <point x="194" y="304"/>
      <point x="210" y="267" type="curve" smooth="yes"/>
      <point x="226" y="231"/>
      <point x="241" y="193"/>
      <point x="241" y="150" type="curve" smooth="yes"/>
      <point x="241" y="66"/>
      <point x="199" y="15"/>
      <point x="135" y="15" type="curve" smooth="yes"/>
      <point x="107" y="15"/>
      <point x="82" y="23"/>
      <point x="59" y="37" type="curve"/>
      <point x="58" y="9" type="line"/>
      <point x="74" y="-1"/>
      <point x="103" y="-10"/>
      <point x="133" y="-10" type="curve" smooth="yes"/>
      <point x="221" y="-10"/>
      <point x="268" y="58"/>
      <point x="268" y="150" type="curve" smooth="yes"/>
      <point x="268" y="200"/>
      <point x="248" y="247"/>
      <point x="233" y="280" type="curve" smooth="yes"/>
      <point x="214" y="322"/>
      <point x="201" y="360"/>
      <point x="201" y="395" type="curve" smooth="yes"/>
      <point x="201" y="436"/>
      <point x="215" y="467"/>
      <point x="256" y="512" type="curve" smooth="yes"/>
      <point x="306" y="566"/>
      <point x="336" y="606"/>
      <point x="336" y="672" type="curve" smooth="yes"/>
      <point x="336" y="725"/>
      <point x="305" y="765"/>
      <point x="251" y="765" type="curve" smooth="yes"/>
      <point x="183" y="765"/>
      <point x="151" y="721"/>
      <point x="128" y="615" type="curve" smooth="yes"/>
      <point x="-25" y="-98" type="line" smooth="yes"/>
      <point x="-41" y="-174"/>
      <point x="-56" y="-215"/>
      <point x="-102" y="-215" type="curve" smooth="yes"/>
      <point x="-117" y="-215"/>
      <point x="-129" y="-211"/>
      <point x="-139" y="-206" type="curve"/>
      <point x="-139" y="-232" type="line"/>
      <point x="-132" y="-236"/>
      <point x="-118" y="-240"/>
    </contour>
  </outline>
</glyph>
<glyph name="ae" format="2">
  <advance width="548"/>
  <unicode hex="00E6"/>
  <anchor x="237" y="0" name="bottom"/>
  <anchor x="352" y="526" name="top"/>
  <outline>
    <contour>
      <point x="123" y="-10" type="curve" smooth="yes"/>
      <point x="179" y="-10"/>
      <point x="215" y="28"/>
      <point x="246" y="90" type="curve"/>
      <point x="248" y="90" type="line"/>
      <point x="232" y="0" type="line"/>
      <point x="253" y="0" type="line"/>
      <point x="275" y="103" type="line"/>
      <point x="284" y="26"/>
      <point x="320" y="-10"/>
      <point x="381" y="-10" type="curve" smooth="yes"/>
      <point x="420" y="-10"/>
      <point x="448" y="0"/>
      <point x="469" y="12" type="curve"/>
      <point x="469" y="41" type="line"/>
      <point x="444" y="26"/>
      <point x="417" y="15"/>
      <point x="387" y="15" type="curve" smooth="yes"/>
      <point x="325" y="15"/>
      <point x="298" y="55"/>
      <point x="298" y="145" type="curve" smooth="yes"/>
      <point x="298" y="185"/>
      <point x="301" y="219"/>
      <point x="307" y="251" type="curve"/>
      <point x="313" y="251" type="line" smooth="yes"/>
      <point x="482" y="251"/>
      <point x="549" y="354"/>
      <point x="549" y="448" type="curve" smooth="yes"/>
      <point x="549" y="511"/>
      <point x="518" y="536"/>
      <point x="472" y="536" type="curve" smooth="yes"/>
      <point x="424" y="536"/>
      <point x="379" y="495"/>
      <point x="344" y="432" type="curve"/>
      <point x="364" y="526" type="line"/>
      <point x="343" y="526" type="line"/>
      <point x="324" y="444" type="line"/>
      <point x="321" y="444" type="line"/>
      <point x="316" y="495"/>
      <point x="290" y="536"/>
      <point x="237" y="536" type="curve" smooth="yes"/>
      <point x="100" y="536"/>
      <point x="29" y="292"/>
      <point x="29" y="137" type="curve" smooth="yes"/>
      <point x="29" y="42"/>
      <point x="63" y="-10"/>
    </contour>
    <contour>
      <point x="127" y="15" type="curve" smooth="yes"/>
      <point x="85" y="15"/>
      <point x="56" y="51"/>
      <point x="56" y="139" type="curve" smooth="yes"/>
      <point x="56" y="278"/>
      <point x="121" y="511"/>
      <point x="236" y="511" type="curve" smooth="yes"/>
      <point x="278" y="511"/>
      <point x="304" y="473"/>
      <point x="304" y="417" type="curve" smooth="yes"/>
      <point x="304" y="361"/>
      <point x="290" y="290"/>
      <point x="273" y="224" type="curve" smooth="yes"/>
      <point x="246" y="116"/>
      <point x="204" y="15"/>
    </contour>
    <contour>
      <point x="316" y="276" type="curve" smooth="yes"/>
      <point x="311" y="276" type="line"/>
      <point x="337" y="407"/>
      <point x="402" y="511"/>
      <point x="471" y="511" type="curve" smooth="yes"/>
      <point x="506" y="511"/>
      <point x="522" y="487"/>
      <point x="522" y="447" type="curve" smooth="yes"/>
      <point x="522" y="366"/>
      <point x="466" y="276"/>
    </contour>
  </outline>
</glyph>
<glyph name="eth" format="2">
  <advance width="350"/>
  <unicode hex="00F0"/>
  <anchor x="120" y="0" name="bottom"/>
  <anchor x="283" y="768" name="top"/>
  <outline>
    <contour>
      <point x="113" y="-10" type="curve" smooth="yes"/>
      <point x="274" y="-10"/>
      <point x="310" y="259"/>
      <point x="310" y="389" type="curve" smooth="yes"/>
      <point x="310" y="497"/>
      <point x="284" y="603"/>
      <point x="236" y="673" type="curve"/>
      <point x="351" y="736" type="line"/>
      <point x="340" y="757" type="line"/>
      <point x="223" y="693" type="line"/>
      <point x="192" y="727"/>
      <point x="159" y="752"/>
      <point x="125" y="768" type="curve"/>
      <point x="113" y="749" type="line"/>
      <point x="148" y="731"/>
      <point x="186" y="702"/>
      <point x="200" y="681" type="curve"/>
      <point x="83" y="617" type="line"/>
      <point x="93" y="594" type="line"/>
      <point x="213" y="662" type="line"/>
      <point x="263" y="591"/>
      <point x="286" y="486"/>
      <point x="286" y="368" type="curve"/>
      <point x="284" y="368" type="line"/>
      <point x="278" y="416"/>
      <point x="254" y="461"/>
      <point x="198" y="461" type="curve" smooth="yes"/>
      <point x="72" y="461"/>
      <point x="8" y="280"/>
      <point x="8" y="137" type="curve" smooth="yes"/>
      <point x="8" y="43"/>
      <point x="45" y="-10"/>
    </contour>
    <contour>
      <point x="115" y="15" type="curve" smooth="yes"/>
      <point x="65" y="15"/>
      <point x="33" y="53"/>
      <point x="33" y="138" type="curve" smooth="yes"/>
      <point x="33" y="266"/>
      <point x="88" y="436"/>
      <point x="196" y="436" type="curve" smooth="yes"/>
      <point x="246" y="436"/>
      <point x="274" y="384"/>
      <point x="274" y="307" type="curve" smooth="yes"/>
      <point x="274" y="218"/>
      <point x="233" y="15"/>
    </contour>
  </outline>
</glyph>
<glyph name="divide" format="2">
  <advance width="387"/>
  <unicode hex="00F7"/>
  <outline>
    <contour>
      <point x="48" y="340" type="line"/>
      <point x="378" y="340" type="line"/>
      <point x="378" y="365" type="line"/>
      <point x="48" y="365" type="line"/>
    </contour>
    <contour>
      <point x="213" y="140" type="curve" smooth="yes"/>
      <point x="233" y="140"/>
      <point x="238" y="156"/>
      <point x="238" y="176" type="curve" smooth="yes"/>
      <point x="238" y="195"/>
      <point x="233" y="211"/>
      <point x="213" y="211" type="curve" smooth="yes"/>
      <point x="195" y="211"/>
      <point x="188" y="196"/>
      <point x="188" y="174" type="curve" smooth="yes"/>
      <point x="188" y="157"/>
      <point x="193" y="140"/>
    </contour>
    <contour>
      <point x="213" y="494" type="curve" smooth="yes"/>
      <point x="233" y="494"/>
      <point x="238" y="509"/>
      <point x="238" y="529" type="curve" smooth="yes"/>
      <point x="238" y="549"/>
      <point x="233" y="565"/>
      <point x="213" y="565" type="curve" smooth="yes"/>
      <point x="194" y="565"/>
      <point x="188" y="549"/>
      <point x="188" y="530" type="curve" smooth="yes"/>
      <point x="188" y="510"/>
      <point x="194" y="494"/>
    </contour>
  </outline>
</glyph>
<glyph name="oslash" format="2">
  <advance width="356"/>
  <unicode hex="00F8"/>
  <anchor x="111" y="-62" name="bottom"/>
  <anchor x="249" y="586" name="top"/>
  <outline>
    <contour>
      <point x="22" y="-62" type="line"/>
      <point x="62" y="16" type="line"/>
      <point x="80" y="-2"/>
      <point x="102" y="-10"/>
      <point x="129" y="-10" type="curve" smooth="yes"/>
      <point x="264" y="-10"/>
      <point x="327" y="237"/>
      <point x="327" y="390" type="curve" smooth="yes"/>
      <point x="327" y="431"/>
      <point x="321" y="462"/>
      <point x="311" y="485" type="curve"/>
      <point x="357" y="574" type="line"/>
      <point x="335" y="586" type="line"/>
      <point x="295" y="509" type="line"/>
      <point x="278" y="527"/>
      <point x="257" y="536"/>
      <point x="230" y="536" type="curve" smooth="yes"/>
      <point x="79" y="536"/>
      <point x="28" y="256"/>
      <point x="28" y="136" type="curve" smooth="yes"/>
      <point x="28" y="93"/>
      <point x="35" y="62"/>
      <point x="47" y="38" type="curve"/>
      <point x="0" y="-50" type="line"/>
    </contour>
    <contour>
      <point x="130" y="15" type="curve" smooth="yes"/>
      <point x="108" y="15"/>
      <point x="89" y="24"/>
      <point x="76" y="42" type="curve"/>
      <point x="293" y="453" type="line"/>
      <point x="298" y="437"/>
      <point x="300" y="415"/>
      <point x="300" y="390" type="curve" smooth="yes"/>
      <point x="300" y="259"/>
      <point x="246" y="15"/>
    </contour>
    <contour>
      <point x="281" y="483" type="curve"/>
      <point x="64" y="69" type="line"/>
      <point x="58" y="87"/>
      <point x="55" y="109"/>
      <point x="55" y="136" type="curve" smooth="yes"/>
      <point x="55" y="245"/>
      <point x="108" y="511"/>
      <point x="228" y="511" type="curve" smooth="yes"/>
      <point x="252" y="511"/>
      <point x="269" y="502"/>
    </contour>
  </outline>
</glyph>
<glyph name="dcroat" format="2">
  <advance width="372"/>
  <unicode hex="0111"/>
  <anchor x="134" y="0" name="bottom"/>
  <anchor x="295" y="760" name="top"/>
  <outline>
    <contour>
      <point x="123" y="-10" type="curve" smooth="yes"/>
      <point x="179" y="-10"/>
      <point x="216" y="30"/>
      <point x="246" y="93" type="curve"/>
      <point x="248" y="93" type="line"/>
      <point x="232" y="0" type="line"/>
      <point x="253" y="0" type="line"/>
      <point x="387" y="636" type="line"/>
      <point x="448" y="636" type="line"/>
      <point x="453" y="661" type="line"/>
      <point x="392" y="661" type="line"/>
      <point x="413" y="760" type="line"/>
      <point x="387" y="760" type="line"/>
      <point x="366" y="661" type="line"/>
      <point x="262" y="661" type="line"/>
      <point x="257" y="636" type="line"/>
      <point x="361" y="636" type="line"/>
      <point x="344" y="558" type="line" smooth="yes"/>
      <point x="336" y="522"/>
      <point x="329" y="483"/>
      <point x="323" y="451" type="curve"/>
      <point x="321" y="451" type="line"/>
      <point x="314" y="499"/>
      <point x="287" y="536"/>
      <point x="237" y="536" type="curve" smooth="yes"/>
      <point x="100" y="536"/>
      <point x="29" y="292"/>
      <point x="29" y="137" type="curve" smooth="yes"/>
      <point x="29" y="42"/>
      <point x="63" y="-10"/>
    </contour>
    <contour>
      <point x="127" y="15" type="curve" smooth="yes"/>
      <point x="85" y="15"/>
      <point x="56" y="51"/>
      <point x="56" y="139" type="curve" smooth="yes"/>
      <point x="56" y="278"/>
      <point x="121" y="511"/>
      <point x="236" y="511" type="curve" smooth="yes"/>
      <point x="278" y="511"/>
      <point x="304" y="473"/>
      <point x="304" y="417" type="curve" smooth="yes"/>
      <point x="304" y="346"/>
      <point x="256" y="15"/>
    </contour>
  </outline>
</glyph>
<glyph name="Hbar" format="2">
  <advance width="421"/>
  <unicode hex="0126"/>
  <anchor x="156" y="0" name="bottom"/>
  <anchor x="308" y="714" name="top"/>
  <outline>
    <contour>
      <point x="2" y="0" type="line"/>
      <point x="28" y="0" type="line"/>
      <point x="105" y="363" type="line"/>
      <point x="347" y="363" type="line"/>
      <point x="271" y="0" type="line"/>
      <point x="297" y="0" type="line"/>
      <point x="411" y="542" type="line"/>
      <point x="468" y="542" type="line"/>
      <point x="473" y="567" type="line"/>
      <point x="418" y="567" type="line"/>
      <point x="449" y="714" type="line"/>
      <point x="422" y="714" type="line"/>
      <point x="392" y="567" type="line"/>
      <point x="149" y="567" type="line"/>
      <point x="180" y="714" type="line"/>
      <point x="154" y="714" type="line"/>
      <point x="123" y="567" type="line"/>
      <point x="51" y="567" type="line"/>
      <point x="46" y="542" type="line"/>
      <point x="117" y="542" type="line"/>
    </contour>
    <contour>
      <point x="111" y="388" type="line"/>
      <point x="144" y="542" type="line"/>
      <point x="386" y="542" type="line"/>
      <point x="354" y="388" type="line"/>
    </contour>
  </outline>
</glyph>
<glyph name="hbar" format="2">
  <advance width="356"/>
  <unicode hex="0127"/>
  <anchor x="124" y="0" name="bottom"/>
  <anchor x="286" y="760" name="top"/>
  <outline>
    <contour>
      <point x="7" y="0" type="line"/>
      <point x="33" y="0" type="line"/>
      <point x="94" y="287" type="line" smooth="yes"/>
      <point x="126" y="436"/>
      <point x="167" y="511"/>
      <point x="241" y="511" type="curve" smooth="yes"/>
      <point x="276" y="511"/>
      <point x="298" y="492"/>
      <point x="298" y="453" type="curve" smooth="yes"/>
      <point x="298" y="419"/>
      <point x="288" y="378"/>
      <point x="280" y="339" type="curve" smooth="yes"/>
      <point x="208" y="0" type="line"/>
      <point x="234" y="0" type="line"/>
      <point x="304" y="329" type="line" smooth="yes"/>
      <point x="313" y="370"/>
      <point x="324" y="424"/>
      <point x="324" y="455" type="curve" smooth="yes"/>
      <point x="324" y="509"/>
      <point x="292" y="536"/>
      <point x="244" y="536" type="curve" smooth="yes"/>
      <point x="193" y="536"/>
      <point x="150" y="503"/>
      <point x="127" y="448" type="curve"/>
      <point x="125" y="448" type="line"/>
      <point x="133" y="481"/>
      <point x="145" y="536"/>
      <point x="167" y="636" type="curve"/>
      <point x="270" y="636" type="line"/>
      <point x="275" y="661" type="line"/>
      <point x="172" y="661" type="line"/>
      <point x="194" y="760" type="line"/>
      <point x="168" y="760" type="line"/>
      <point x="147" y="661" type="line"/>
      <point x="84" y="661" type="line"/>
      <point x="79" y="636" type="line"/>
      <point x="142" y="636" type="line"/>
    </contour>
  </outline>
</glyph>
<glyph name="kgreenlandic" format="2">
  <advance width="281"/>
  <unicode hex="0138"/>
  <anchor x="86" y="0" name="bottom"/>
  <anchor x="198" y="526" name="top"/>
  <outline>
    <contour>
      <point x="5" y="0" type="line"/>
      <point x="31" y="0" type="line"/>
      <point x="71" y="189" type="line"/>
      <point x="155" y="297" type="line"/>
      <point x="201" y="0" type="line"/>
      <point x="227" y="0" type="line"/>
      <point x="178" y="323" type="line"/>
      <point x="328" y="527" type="line"/>
      <point x="300" y="527" type="line"/>
      <point x="81" y="234" type="line"/>
      <point x="80" y="235" type="line"/>
      <point x="91" y="281"/>
      <point x="98" y="314"/>
      <point x="108" y="357" type="curve" smooth="yes"/>
      <point x="146" y="526" type="line"/>
      <point x="120" y="526" type="line"/>
    </contour>
  </outline>
</glyph>
<glyph name="Lslash" format="2">
  <advance width="287"/>
  <unicode hex="0141"/>
  <anchor x="89" y="0" name="bottom"/>
  <anchor x="241" y="714" name="top"/>
  <outline>
    <contour>
      <point x="2" y="0" type="line"/>
      <point x="212" y="0" type="line"/>
      <point x="218" y="25" type="line"/>
      <point x="33" y="25" type="line"/>
      <point x="101" y="345" type="line"/>
      <point x="220" y="409" type="line"/>
      <point x="211" y="432" type="line"/>
      <point x="108" y="376" type="line"/>
      <point x="180" y="714" type="line"/>
      <point x="154" y="714" type="line"/>
      <point x="79" y="361" type="line"/>
      <point x="-18" y="308" type="line"/>
      <point x="-9" y="285" type="line"/>
      <point x="72" y="329" type="line"/>
    </contour>
  </outline>
</glyph>
<glyph name="lslash" format="2">
  <advance width="146"/>
  <unicode hex="0142"/>
  <anchor x="18" y="0" name="bottom"/>
  <anchor x="180" y="760" name="top"/>
  <outline>
    <contour>
      <point x="5" y="0" type="line"/>
      <point x="31" y="0" type="line"/>
      <point x="111" y="374" type="line"/>
      <point x="206" y="429" type="line"/>
      <point x="197" y="452" type="line"/>
      <point x="117" y="406" type="line"/>
      <point x="193" y="760" type="line"/>
      <point x="167" y="760" type="line"/>
      <point x="88" y="389" type="line"/>
      <point x="-5" y="334" type="line"/>
      <point x="4" y="311" type="line"/>
      <point x="81" y="356" type="line"/>
    </contour>
  </outline>
</glyph>
<glyph name="Eng" format="2">
  <advance width="447"/>
  <unicode hex="014A"/>
  <anchor x="132" y="-172" name="bottom"/>
  <anchor x="321" y="714" name="top"/>
  <outline>
    <contour>
      <point x="198" y="-172" type="curve" smooth="yes"/>
      <point x="264" y="-172"/>
      <point x="291" y="-129"/>
      <point x="313" y="-23" type="curve" smooth="yes"/>
      <point x="469" y="714" type="line"/>
      <point x="442" y="714" type="line"/>
      <point x="329" y="182" type="line" smooth="yes"/>
      <point x="320" y="140"/>
      <point x="311" y="98"/>
      <point x="303" y="57" type="curve"/>
      <point x="301" y="57" type="line"/>
      <point x="187" y="714" type="line"/>
      <point x="154" y="714" type="line"/>
      <point x="2" y="0" type="line"/>
      <point x="29" y="0" type="line"/>
      <point x="145" y="547" type="line" smooth="yes"/>
      <point x="157" y="603"/>
      <point x="164" y="636"/>
      <point x="169" y="663" type="curve"/>
      <point x="171" y="663" type="line"/>
      <point x="287" y="-13" type="line"/>
      <point x="268" y="-106"/>
      <point x="249" y="-147"/>
      <point x="200" y="-147" type="curve" smooth="yes"/>
      <point x="184" y="-147"/>
      <point x="168" y="-143"/>
      <point x="156" y="-137" type="curve"/>
      <point x="148" y="-160" type="line"/>
      <point x="160" y="-167"/>
      <point x="179" y="-172"/>
    </contour>
  </outline>
</glyph>
<glyph name="eng" format="2">
  <advance width="350"/>
  <unicode hex="014B"/>
  <anchor x="70" y="-240" name="bottom"/>
  <anchor x="233" y="526" name="top"/>
  <anchor x="386" y="526" name="topright"/>
  <outline>
    <contour>
      <point x="98" y="-240" type="curve" smooth="yes"/>
      <point x="172" y="-240"/>
      <point x="193" y="-189"/>
      <point x="222" y="-53" type="curve" smooth="yes"/>
      <point x="303" y="329" type="line" smooth="yes"/>
      <point x="312" y="370"/>
      <point x="323" y="424"/>
      <point x="323" y="455" type="curve" smooth="yes"/>
      <point x="323" y="509"/>
      <point x="291" y="536"/>
      <point x="243" y="536" type="curve" smooth="yes"/>
      <point x="192" y="536"/>
      <point x="149" y="503"/>
      <point x="126" y="448" type="curve"/>
      <point x="124" y="448" type="line"/>
      <point x="138" y="526" type="line"/>
      <point x="117" y="526" type="line"/>
      <point x="6" y="0" type="line"/>
      <point x="32" y="0" type="line"/>
      <point x="93" y="287" type="line" smooth="yes"/>
      <point x="125" y="436"/>
      <point x="166" y="511"/>
      <point x="240" y="511" type="curve" smooth="yes"/>
      <point x="275" y="511"/>
      <point x="297" y="492"/>
      <point x="297" y="453" type="curve" smooth="yes"/>
      <point x="297" y="419"/>
      <point x="287" y="378"/>
      <point x="279" y="339" type="curve" smooth="yes"/>
      <point x="196" y="-52" type="line" smooth="yes"/>
      <point x="169" y="-180"/>
      <point x="150" y="-215"/>
      <point x="98" y="-215" type="curve" smooth="yes"/>
      <point x="83" y="-215"/>
      <point x="74" y="-213"/>
      <point x="64" y="-209" type="curve"/>
      <point x="64" y="-236" type="line"/>
      <point x="71" y="-238"/>
      <point x="83" y="-240"/>
    </contour>
  </outline>
</glyph>
<glyph name="OE" format="2">
  <advance width="499"/>
  <unicode hex="0152"/>
  <anchor x="195" y="0" name="bottom"/>
  <anchor x="347" y="714" name="top"/>
  <outline>
    <contour>
      <point x="169" y="-2" type="curve" smooth="yes"/>
      <point x="188" y="-2"/>
      <point x="195" y="0"/>
      <point x="200" y="0" type="curve" smooth="yes"/>
      <point x="404" y="0" type="line"/>
      <point x="409" y="25" type="line"/>
      <point x="215" y="25" type="line"/>
      <point x="286" y="363" type="line"/>
      <point x="469" y="363" type="line"/>
      <point x="475" y="388" type="line"/>
      <point x="292" y="388" type="line"/>
      <point x="356" y="689" type="line"/>
      <point x="551" y="689" type="line"/>
      <point x="556" y="714" type="line"/>
      <point x="341" y="714" type="line" smooth="yes"/>
      <point x="334" y="714"/>
      <point x="315" y="716"/>
      <point x="299" y="716" type="curve" smooth="yes"/>
      <point x="104" y="716"/>
      <point x="35" y="375"/>
      <point x="35" y="186" type="curve" smooth="yes"/>
      <point x="35" y="62"/>
      <point x="77" y="-2"/>
    </contour>
    <contour>
      <point x="170" y="23" type="curve" smooth="yes"/>
      <point x="97" y="23"/>
      <point x="62" y="76"/>
      <point x="62" y="186" type="curve" smooth="yes"/>
      <point x="62" y="375"/>
      <point x="134" y="691"/>
      <point x="297" y="691" type="curve" smooth="yes"/>
      <point x="311" y="691"/>
      <point x="323" y="690"/>
      <point x="330" y="690" type="curve"/>
      <point x="189" y="25" type="line"/>
      <point x="185" y="24"/>
      <point x="178" y="23"/>
    </contour>
  </outline>
</glyph>
<glyph name="oe" format="2">
  <advance width="566"/>
  <unicode hex="0153"/>
  <anchor x="229" y="0" name="bottom"/>
  <anchor x="341" y="526" name="top"/>
  <outline>
    <contour>
      <point x="128" y="-10" type="curve" smooth="yes"/>
      <point x="198" y="-10"/>
      <point x="247" y="56"/>
      <point x="279" y="141" type="curve"/>
      <point x="279" y="38"/>
      <point x="314" y="-10"/>
      <point x="385" y="-10" type="curve" smooth="yes"/>
      <point x="424" y="-10"/>
      <point x="452" y="0"/>
      <point x="473" y="12" type="curve"/>
      <point x="473" y="41" type="line"/>
      <point x="448" y="26"/>
      <point x="421" y="15"/>
      <point x="390" y="15" type="curve" smooth="yes"/>
      <point x="329" y="15"/>
      <point x="302" y="55"/>
      <point x="302" y="145" type="curve" smooth="yes"/>
      <point x="302" y="185"/>
      <point x="305" y="219"/>
      <point x="311" y="251" type="curve"/>
      <point x="317" y="251" type="line" smooth="yes"/>
      <point x="486" y="251"/>
      <point x="553" y="354"/>
      <point x="553" y="448" type="curve" smooth="yes"/>
      <point x="553" y="511"/>
      <point x="522" y="536"/>
      <point x="476" y="536" type="curve" smooth="yes"/>
      <point x="415" y="536"/>
      <point x="359" y="475"/>
      <point x="322" y="383" type="curve"/>
      <point x="324" y="484"/>
      <point x="296" y="536"/>
      <point x="230" y="536" type="curve" smooth="yes"/>
      <point x="79" y="536"/>
      <point x="28" y="256"/>
      <point x="28" y="145" type="curve" smooth="yes"/>
      <point x="28" y="33"/>
      <point x="67" y="-10"/>
    </contour>
    <contour>
      <point x="131" y="15" type="curve" smooth="yes"/>
      <point x="82" y="15"/>
      <point x="55" y="52"/>
      <point x="55" y="145" type="curve" smooth="yes"/>
      <point x="55" y="252"/>
      <point x="104" y="511"/>
      <point x="228" y="511" type="curve" smooth="yes"/>
      <point x="275" y="511"/>
      <point x="300" y="470"/>
      <point x="300" y="389" type="curve" smooth="yes"/>
      <point x="300" y="259"/>
      <point x="247" y="15"/>
    </contour>
    <contour>
      <point x="320" y="276" type="curve" smooth="yes"/>
      <point x="315" y="276" type="line"/>
      <point x="341" y="407"/>
      <point x="406" y="511"/>
      <point x="475" y="511" type="curve" smooth="yes"/>
      <point x="510" y="511"/>
      <point x="526" y="487"/>
      <point x="526" y="447" type="curve" smooth="yes"/>
      <point x="526" y="366"/>
      <point x="470" y="276"/>
    </contour>
  </outline>
</glyph>
<glyph name="Tbar" format="2">
  <advance width="285"/>
  <unicode hex="0166"/>
  <anchor x="88" y="0" name="bottom"/>
  <anchor x="240" y="714" name="top"/>
  <outline>
    <contour>
      <point x="64" y="0" type="line"/>
      <point x="90" y="0" type="line"/>
      <point x="167" y="363" type="line"/>
      <point x="269" y="363" type="line"/>
      <point x="274" y="388" type="line"/>
      <point x="173" y="388" type="line"/>
      <point x="237" y="689" type="line"/>
      <point x="362" y="689" type="line"/>
      <point x="367" y="714" type="line"/>
      <point x="92" y="714" type="line"/>
      <point x="86" y="689" type="line"/>
      <point x="211" y="689" type="line"/>
      <point x="147" y="388" type="line"/>
      <point x="47" y="388" type="line"/>
      <point x="43" y="363" type="line"/>
      <point x="141" y="363" type="line"/>
    </contour>
  </outline>
</glyph>
<glyph name="tbar" format="2">
  <advance width="167"/>
  <unicode hex="0167"/>
  <anchor x="29" y="0" name="bottom"/>
  <anchor x="168" y="655" name="top"/>
  <outline>
    <contour>
      <point x="72" y="-10" type="curve" smooth="yes"/>
      <point x="88" y="-10"/>
      <point x="100" y="-7"/>
      <point x="111" y="-3" type="curve"/>
      <point x="111" y="21" type="line"/>
      <point x="102" y="18"/>
      <point x="92" y="15"/>
      <point x="76" y="15" type="curve" smooth="yes"/>
      <point x="52" y="15"/>
      <point x="41" y="30"/>
      <point x="41" y="56" type="curve" smooth="yes"/>
      <point x="41" y="74"/>
      <point x="46" y="101"/>
      <point x="53" y="136" type="curve" smooth="yes"/>
      <point x="85" y="285" type="line"/>
      <point x="165" y="285" type="line"/>
      <point x="170" y="310" type="line"/>
      <point x="90" y="310" type="line"/>
      <point x="131" y="501" type="line"/>
      <point x="194" y="501" type="line"/>
      <point x="199" y="526" type="line"/>
      <point x="136" y="526" type="line"/>
      <point x="163" y="655" type="line"/>
      <point x="142" y="655" type="line"/>
      <point x="109" y="527" type="line"/>
      <point x="64" y="524" type="line"/>
      <point x="59" y="501" type="line"/>
      <point x="105" y="501" type="line"/>
      <point x="64" y="310" type="line"/>
      <point x="12" y="310" type="line"/>
      <point x="7" y="285" type="line"/>
      <point x="59" y="285" type="line"/>
      <point x="27" y="138" type="line" smooth="yes"/>
      <point x="20" y="106"/>
      <point x="15" y="74"/>
      <point x="15" y="53" type="curve" smooth="yes"/>
      <point x="15" y="12"/>
      <point x="36" y="-10"/>
    </contour>
  </outline>
</glyph>
<glyph name="longs" format="2">
  <advance width="141"/>
  <unicode hex="017F"/>
  <anchor x="-105" y="-240" name="bottom"/>
  <anchor x="239" y="765" name="top"/>
  <outline>
    <contour>
      <point x="-106" y="-240" type="curve" smooth="yes"/>
      <point x="-38" y="-240"/>
      <point x="-15" y="-180"/>
      <point x="1" y="-107" type="curve"/>
      <point x="158" y="627" type="line"/>
      <point x="174" y="699"/>
      <point x="191" y="740"/>
      <point x="237" y="740" type="curve" smooth="yes"/>
      <point x="251" y="740"/>
      <point x="266" y="736"/>
      <point x="276" y="731" type="curve"/>
      <point x="286" y="755" type="line"/>
      <point x="277" y="759"/>
      <point x="256" y="765"/>
      <point x="241" y="765" type="curve" smooth="yes"/>
      <point x="180" y="765"/>
      <point x="154" y="723"/>
      <point x="134" y="635" type="curve"/>
      <point x="-25" y="-104" type="line"/>
      <point x="-39" y="-169"/>
      <point x="-56" y="-215"/>
      <point x="-106" y="-215" type="curve" smooth="yes"/>
      <point x="-123" y="-215"/>
      <point x="-132" y="-213"/>
      <point x="-143" y="-209" type="curve"/>
      <point x="-143" y="-234" type="line"/>
      <point x="-135" y="-237"/>
      <point x="-123" y="-240"/>
    </contour>
  </outline>
</glyph>
<glyph name="Ohorn" format="2">
  <advance width="436"/>
  <unicode hex="01A0"/>
  <anchor x="163" y="0" name="bottom"/>
  <anchor x="295" y="714" name="top"/>
  <outline>
    <contour>
      <point x="157" y="-10" type="curve" smooth="yes"/>
      <point x="345" y="-10"/>
      <point x="418" y="364"/>
      <point x="418" y="544" type="curve" smooth="yes"/>
      <point x="418" y="560"/>
      <point x="417" y="576"/>
      <point x="416" y="589" type="curve"/>
      <point x="482" y="602"/>
      <point x="516" y="652"/>
      <point x="534" y="753" type="curve"/>
      <point x="530" y="760" type="line"/>
      <point x="511" y="760" type="line"/>
      <point x="493" y="662"/>
      <point x="464" y="621"/>
      <point x="414" y="610" type="curve"/>
      <point x="400" y="690"/>
      <point x="360" y="724"/>
      <point x="297" y="724" type="curve" smooth="yes"/>
      <point x="114" y="724"/>
      <point x="34" y="367"/>
      <point x="34" y="184" type="curve" smooth="yes"/>
      <point x="34" y="51"/>
      <point x="77" y="-10"/>
    </contour>
    <contour>
      <point x="160" y="15" type="curve" smooth="yes"/>
      <point x="96" y="15"/>
      <point x="61" y="65"/>
      <point x="61" y="186" type="curve" smooth="yes"/>
      <point x="61" y="345"/>
      <point x="135" y="699"/>
      <point x="295" y="699" type="curve" smooth="yes"/>
      <point x="361" y="699"/>
      <point x="391" y="654"/>
      <point x="391" y="542" type="curve" smooth="yes"/>
      <point x="391" y="372"/>
      <point x="319" y="15"/>
    </contour>
  </outline>
</glyph>
<glyph name="ohorn" format="2">
  <advance width="352"/>
  <unicode hex="01A1"/>
  <anchor x="122" y="0" name="bottom"/>
  <anchor x="234" y="526" name="top"/>
  <outline>
    <contour>
      <point x="129" y="-10" type="curve" smooth="yes"/>
      <point x="263" y="-10"/>
      <point x="326" y="235"/>
      <point x="326" y="388" type="curve" smooth="yes"/>
      <point x="326" y="404"/>
      <point x="326" y="419"/>
      <point x="324" y="433" type="curve"/>
      <point x="386" y="447"/>
      <point x="418" y="497"/>
      <point x="435" y="595" type="curve"/>
      <point x="432" y="602" type="line"/>
      <point x="412" y="602" type="line"/>
      <point x="394" y="507"/>
      <point x="368" y="466"/>
      <point x="321" y="454" type="curve"/>
      <point x="307" y="510"/>
      <point x="276" y="536"/>
      <point x="230" y="536" type="curve" smooth="yes"/>
      <point x="79" y="536"/>
      <point x="28" y="256"/>
      <point x="28" y="136" type="curve" smooth="yes"/>
      <point x="28" y="33"/>
      <point x="67" y="-10"/>
    </contour>
    <contour>
      <point x="130" y="15" type="curve" smooth="yes"/>
      <point x="81" y="15"/>
      <point x="55" y="55"/>
      <point x="55" y="136" type="curve" smooth="yes"/>
      <point x="55" y="245"/>
      <point x="108" y="511"/>
      <point x="228" y="511" type="curve" smooth="yes"/>
      <point x="275" y="511"/>
      <point x="300" y="470"/>
      <point x="300" y="389" type="curve" smooth="yes"/>
      <point x="300" y="259"/>
      <point x="246" y="15"/>
    </contour>
  </outline>
</glyph>
<glyph name="Uhorn" format="2">
  <advance width="415"/>
  <unicode hex="01AF"/>
  <anchor x="153" y="0" name="bottom"/>
  <anchor x="281" y="714" name="top"/>
  <outline>
    <contour>
      <point x="151" y="-10" type="curve" smooth="yes"/>
      <point x="262" y="-10"/>
      <point x="300" y="82"/>
      <point x="331" y="225" type="curve" smooth="yes"/>
      <point x="410" y="587" type="line"/>
      <point x="484" y="596"/>
      <point x="521" y="646"/>
      <point x="540" y="753" type="curve"/>
      <point x="536" y="760" type="line"/>
      <point x="517" y="760" type="line"/>
      <point x="498" y="659"/>
      <point x="470" y="619"/>
      <point x="415" y="609" type="curve"/>
      <point x="438" y="714" type="line"/>
      <point x="412" y="714" type="line"/>
      <point x="305" y="226" type="line" smooth="yes"/>
      <point x="276" y="92"/>
      <point x="245" y="15"/>
      <point x="152" y="15" type="curve" smooth="yes"/>
      <point x="97" y="15"/>
      <point x="58" y="50"/>
      <point x="58" y="118" type="curve" smooth="yes"/>
      <point x="58" y="142"/>
      <point x="61" y="174"/>
      <point x="68" y="209" type="curve" smooth="yes"/>
      <point x="176" y="714" type="line"/>
      <point x="150" y="714" type="line"/>
      <point x="42" y="209" type="line" smooth="yes"/>
      <point x="35" y="174"/>
      <point x="31" y="141"/>
      <point x="31" y="117" type="curve" smooth="yes"/>
      <point x="31" y="34"/>
      <point x="82" y="-10"/>
    </contour>
  </outline>
</glyph>
<glyph name="uhorn" format="2">
  <advance width="352"/>
  <unicode hex="01B0"/>
  <anchor x="121" y="0" name="bottom"/>
  <anchor x="226" y="526" name="top"/>
  <outline>
    <contour>
      <point x="106" y="-10" type="curve" smooth="yes"/>
      <point x="157" y="-10"/>
      <point x="200" y="23"/>
      <point x="223" y="78" type="curve"/>
      <point x="225" y="78" type="line"/>
      <point x="211" y="0" type="line"/>
      <point x="232" y="0" type="line"/>
      <point x="323" y="430" type="line"/>
      <point x="394" y="440"/>
      <point x="431" y="490"/>
      <point x="449" y="595" type="curve"/>
      <point x="445" y="602" type="line"/>
      <point x="426" y="602" type="line"/>
      <point x="408" y="504"/>
      <point x="379" y="463"/>
      <point x="327" y="452" type="curve"/>
      <point x="343" y="526" type="line"/>
      <point x="317" y="526" type="line"/>
      <point x="256" y="239" type="line" smooth="yes"/>
      <point x="225" y="91"/>
      <point x="183" y="15"/>
      <point x="109" y="15" type="curve" smooth="yes"/>
      <point x="74" y="15"/>
      <point x="52" y="34"/>
      <point x="52" y="73" type="curve" smooth="yes"/>
      <point x="52" y="107"/>
      <point x="62" y="148"/>
      <point x="70" y="187" type="curve" smooth="yes"/>
      <point x="142" y="526" type="line"/>
      <point x="116" y="526" type="line"/>
      <point x="46" y="197" type="line" smooth="yes"/>
      <point x="37" y="156"/>
      <point x="26" y="102"/>
      <point x="26" y="71" type="curve" smooth="yes"/>
      <point x="26" y="17"/>
      <point x="58" y="-10"/>
    </contour>
  </outline>
</glyph>
<glyph name="Aringacute" format="2">
  <advance width="319"/>
  <unicode hex="01FA"/>
  <anchor x="105" y="0" name="bottom"/>
  <anchor x="306" y="946" name="top"/>
  <outline>
    <contour>
      <point x="191" y="594" type="curve"/>
      <point x="-67" y="0" type="line"/>
      <point x="-39" y="0" type="line"/>
      <point x="69" y="248" type="line"/>
      <point x="221" y="248" type="line"/>
      <point x="226" y="0" type="line"/>
      <point x="252" y="0" type="line"/>
      <point x="239" y="590" type="line"/>
      <point x="282" y="596"/>
      <point x="310" y="627"/>
      <point x="310" y="676" type="curve" smooth="yes"/>
      <point x="309" y="723"/>
      <point x="279" y="760"/>
      <point x="225" y="760" type="curve" smooth="yes"/>
      <point x="170" y="760"/>
      <point x="139" y="726"/>
      <point x="139" y="674" type="curve" smooth="yes"/>
      <point x="139" y="634"/>
      <point x="158" y="605"/>
    </contour>
    <contour>
      <point x="79" y="273" type="line"/>
      <point x="189" y="524" type="line" smooth="yes"/>
      <point x="200" y="550"/>
      <point x="208" y="573"/>
      <point x="213" y="589" type="curve"/>
      <point x="215" y="589" type="line"/>
      <point x="214" y="573"/>
      <point x="215" y="549"/>
      <point x="216" y="526" type="curve" smooth="yes"/>
      <point x="221" y="273" type="line"/>
    </contour>
    <contour>
      <point x="223" y="614" type="curve" smooth="yes"/>
      <point x="183" y="614"/>
      <point x="165" y="638"/>
      <point x="165" y="674" type="curve" smooth="yes"/>
      <point x="165" y="710"/>
      <point x="186" y="736"/>
      <point x="224" y="736" type="curve" smooth="yes"/>
      <point x="262" y="736"/>
      <point x="283" y="710"/>
      <point x="283" y="674" type="curve" smooth="yes"/>
      <point x="283" y="638"/>
      <point x="259" y="614"/>
    </contour>
    <contour>
      <point x="211" y="794" type="curve"/>
      <point x="212" y="786" type="line"/>
      <point x="222" y="786" type="line"/>
      <point x="268" y="820"/>
      <point x="332" y="895"/>
      <point x="360" y="938" type="curve"/>
      <point x="360" y="946" type="line"/>
      <point x="330" y="946" type="line"/>
      <point x="308" y="905"/>
      <point x="260" y="842"/>
    </contour>
  </outline>
</glyph>
<glyph name="aringacute" format="2">
  <advance width="375"/>
  <unicode hex="01FB"/>
  <anchor x="134" y="0" name="bottom"/>
  <anchor x="335" y="943" name="top"/>
  <outline>
    <contour>
      <point x="129" y="-10" type="curve" smooth="yes"/>
      <point x="166" y="-10"/>
      <point x="207" y="18"/>
      <point x="245" y="78" type="curve"/>
      <point x="246" y="78" type="line"/>
      <point x="234" y="0" type="line"/>
      <point x="254" y="0" type="line"/>
      <point x="365" y="526" type="line"/>
      <point x="345" y="526" type="line"/>
      <point x="328" y="463" type="line"/>
      <point x="325" y="463" type="line"/>
      <point x="313" y="511"/>
      <point x="287" y="536"/>
      <point x="243" y="536" type="curve" smooth="yes"/>
      <point x="97" y="536"/>
      <point x="31" y="273"/>
      <point x="31" y="122" type="curve" smooth="yes"/>
      <point x="31" y="33"/>
      <point x="61" y="-10"/>
    </contour>
    <contour>
      <point x="121" y="16" type="curve" smooth="yes"/>
      <point x="73" y="16"/>
      <point x="57" y="49"/>
      <point x="57" y="112" type="curve" smooth="yes"/>
      <point x="57" y="271"/>
      <point x="123" y="510"/>
      <point x="236" y="510" type="curve" smooth="yes"/>
      <point x="279" y="510"/>
      <point x="306" y="473"/>
      <point x="306" y="417" type="curve" smooth="yes"/>
      <point x="306" y="353"/>
      <point x="295" y="289"/>
      <point x="277" y="224" type="curve" smooth="yes"/>
      <point x="247" y="116"/>
      <point x="201" y="16"/>
    </contour>
    <contour>
      <point x="256" y="580" type="curve" smooth="yes"/>
      <point x="309" y="580"/>
      <point x="342" y="613"/>
      <point x="342" y="667" type="curve" smooth="yes"/>
      <point x="342" y="716"/>
      <point x="307" y="750"/>
      <point x="256" y="750" type="curve" smooth="yes"/>
      <point x="202" y="750"/>
      <point x="171" y="716"/>
      <point x="171" y="665" type="curve" smooth="yes"/>
      <point x="171" y="611"/>
      <point x="205" y="580"/>
    </contour>
    <contour>
      <point x="257" y="604" type="curve" smooth="yes"/>
      <point x="217" y="604"/>
      <point x="197" y="624"/>
      <point x="197" y="665" type="curve" smooth="yes"/>
      <point x="197" y="702"/>
      <point x="220" y="727"/>
      <point x="257" y="727" type="curve" smooth="yes"/>
      <point x="293" y="727"/>
      <point x="316" y="702"/>
      <point x="316" y="665" type="curve" smooth="yes"/>
      <point x="316" y="628"/>
      <point x="291" y="604"/>
    </contour>
    <contour>
      <point x="262" y="798" type="curve"/>
      <point x="262" y="790" type="line"/>
      <point x="268" y="790" type="line"/>
      <point x="329" y="837"/>
      <point x="382" y="895"/>
      <point x="409" y="934" type="curve"/>
      <point x="408" y="943" type="line"/>
      <point x="363" y="943" type="line"/>
      <point x="332" y="885"/>
      <point x="294" y="839"/>
    </contour>
  </outline>
</glyph>
<glyph name="jdotless" format="2">
  <advance width="152"/>
  <unicode hex="0237"/>
  <anchor x="-29" y="-240" name="bottom"/>
  <anchor x="134" y="526" name="top"/>
  <outline>
    <contour>
      <point x="-98" y="-240" type="curve" smooth="yes"/>
      <point x="-23" y="-240"/>
      <point x="-1" y="-188"/>
      <point x="27" y="-53" type="curve" smooth="yes"/>
      <point x="150" y="526" type="line"/>
      <point x="123" y="526" type="line"/>
      <point x="1" y="-52" type="line" smooth="yes"/>
      <point x="-25" y="-179"/>
      <point x="-45" y="-215"/>
      <point x="-98" y="-215" type="curve" smooth="yes"/>
      <point x="-112" y="-215"/>
      <point x="-121" y="-213"/>
      <point x="-131" y="-209" type="curve"/>
      <point x="-131" y="-236" type="line"/>
      <point x="-124" y="-238"/>
      <point x="-112" y="-240"/>
    </contour>
  </outline>
</glyph>
<glyph name="Estroke" format="2">
  <advance width="332"/>
  <unicode hex="0246"/>
  <anchor x="95" y="-76" name="bottom"/>
  <anchor x="285" y="761" name="top"/>
  <outline>
    <contour>
      <point x="28" y="-76" type="line"/>
      <point x="54" y="-76" type="line"/>
      <point x="363" y="761" type="line"/>
      <point x="337" y="761" type="line"/>
    </contour>
    <component base="E"/>
  </outline>
</glyph>
<glyph name="schwahook" format="2">
  <advance width="449"/>
  <unicode hex="025A"/>
  <anchor x="104" y="-10" name="bottom"/>
  <anchor x="195" y="536" name="top"/>
  <outline>
    <contour>
      <point x="104" y="-10" type="curve" smooth="yes"/>
      <point x="210" y="-10"/>
      <point x="297" y="158"/>
      <point x="305" y="337" type="curve"/>
      <point x="340" y="355" type="line"/>
      <point x="348" y="264"/>
      <point x="367" y="226"/>
      <point x="413" y="226" type="curve" smooth="yes"/>
      <point x="432" y="226"/>
      <point x="451" y="234"/>
      <point x="467" y="244" type="curve"/>
      <point x="458" y="265" type="line"/>
      <point x="445" y="258"/>
      <point x="433" y="251"/>
      <point x="416" y="251" type="curve" smooth="yes"/>
      <point x="386" y="251"/>
      <point x="372" y="274"/>
      <point x="364" y="353" type="curve" smooth="yes"/>
      <point x="360" y="391" type="line"/>
      <point x="305" y="364" type="line"/>
      <point x="305" y="489"/>
      <point x="266" y="536"/>
      <point x="195" y="536" type="curve" smooth="yes"/>
      <point x="157" y="536"/>
      <point x="128" y="526"/>
      <point x="107" y="514" type="curve"/>
      <point x="107" y="485" type="line"/>
      <point x="132" y="500"/>
      <point x="159" y="511"/>
      <point x="190" y="511" type="curve" smooth="yes"/>
      <point x="251" y="511"/>
      <point x="279" y="472"/>
      <point x="278" y="351" type="curve"/>
      <point x="246" y="335" type="line" smooth="yes"/>
      <point x="126" y="275"/>
      <point x="27" y="192"/>
      <point x="27" y="78" type="curve" smooth="yes"/>
      <point x="27" y="15"/>
      <point x="58" y="-10"/>
    </contour>
    <contour>
      <point x="106" y="15" type="curve" smooth="yes"/>
      <point x="70" y="15"/>
      <point x="54" y="39"/>
      <point x="54" y="79" type="curve" smooth="yes"/>
      <point x="54" y="174"/>
      <point x="125" y="248"/>
      <point x="255" y="313" type="curve" smooth="yes"/>
      <point x="277" y="324" type="line"/>
      <point x="268" y="166"/>
      <point x="192" y="15"/>
    </contour>
  </outline>
</glyph>
<glyph name="eopenreversedhook" format="2">
  <advance width="359"/>
  <unicode hex="025D"/>
  <anchor x="52" y="-11" name="bottom"/>
  <anchor x="145" y="536" name="top"/>
  <outline>
    <contour>
      <point x="338" y="299" type="curve" smooth="yes"/>
      <point x="358" y="299"/>
      <point x="376" y="307"/>
      <point x="392" y="317" type="curve"/>
      <point x="383" y="338" type="line"/>
      <point x="371" y="331"/>
      <point x="358" y="324"/>
      <point x="341" y="324" type="curve" smooth="yes"/>
      <point x="312" y="324"/>
      <point x="297" y="347"/>
      <point x="289" y="426" type="curve" smooth="yes"/>
      <point x="285" y="464" type="line"/>
      <point x="214" y="430" type="line"/>
      <point x="224" y="408" type="line"/>
      <point x="265" y="428" type="line"/>
      <point x="273" y="337"/>
      <point x="292" y="299"/>
    </contour>
    <component base="ze-cy"/>
  </outline>
</glyph>
<glyph name="rfishhookreversed" format="2">
  <advance width="171"/>
  <unicode hex="027F"/>
  <anchor x="-20" y="-240" name="bottom"/>
  <anchor x="143" y="526" name="top"/>
  <outline>
    <contour>
      <point x="117" y="432" type="curve" smooth="yes"/>
      <point x="-26" y="-240" type="line"/>
      <point x="-1" y="-240" type="line"/>
      <point x="142" y="432" type="line" smooth="yes"/>
      <point x="146" y="452"/>
      <point x="150" y="467"/>
      <point x="150" y="483" type="curve" smooth="yes"/>
      <point x="150" y="517"/>
      <point x="132" y="536"/>
      <point x="98" y="536" type="curve" smooth="yes"/>
      <point x="82" y="536"/>
      <point x="68" y="532"/>
      <point x="59" y="529" type="curve"/>
      <point x="59" y="504" type="line"/>
      <point x="70" y="508"/>
      <point x="82" y="511"/>
      <point x="94" y="511" type="curve" smooth="yes"/>
      <point x="114" y="511"/>
      <point x="124" y="501"/>
      <point x="124" y="480" type="curve" smooth="yes"/>
      <point x="124" y="466"/>
      <point x="122" y="454"/>
    </contour>
  </outline>
</glyph>
<glyph name="eshcurl" format="2">
  <advance width="146"/>
  <unicode hex="0286"/>
  <anchor x="-33" y="-240" name="bottom"/>
  <anchor x="181" y="764" name="top"/>
  <outline>
    <contour>
      <point x="-81" y="-240" type="curve" smooth="yes"/>
      <point x="-27" y="-240"/>
      <point x="-12" y="-199"/>
      <point x="5" y="-123" type="curve"/>
      <point x="62" y="-123" type="line"/>
      <point x="68" y="-98" type="line"/>
      <point x="10" y="-98" type="line"/>
      <point x="171" y="654" type="line" smooth="yes"/>
      <point x="184" y="715"/>
      <point x="202" y="739"/>
      <point x="244" y="739" type="curve" smooth="yes"/>
      <point x="257" y="739"/>
      <point x="269" y="736"/>
      <point x="277" y="733" type="curve"/>
      <point x="277" y="759" type="line"/>
      <point x="269" y="762"/>
      <point x="258" y="764"/>
      <point x="244" y="764" type="curve" smooth="yes"/>
      <point x="184" y="764"/>
      <point x="161" y="727"/>
      <point x="146" y="659" type="curve" smooth="yes"/>
      <point x="-16" y="-98" type="line"/>
      <point x="-42" y="-98" type="line" smooth="yes"/>
      <point x="-109" y="-98"/>
      <point x="-138" y="-131"/>
      <point x="-138" y="-181" type="curve" smooth="yes"/>
      <point x="-138" y="-218"/>
      <point x="-115" y="-240"/>
    </contour>
    <contour>
      <point x="-80" y="-215" type="curve" smooth="yes"/>
      <point x="-99" y="-215"/>
      <point x="-111" y="-204"/>
      <point x="-111" y="-179" type="curve" smooth="yes"/>
      <point x="-111" y="-144"/>
      <point x="-94" y="-123"/>
      <point x="-43" y="-123" type="curve" smooth="yes"/>
      <point x="-21" y="-123" type="line"/>
      <point x="-35" y="-185"/>
      <point x="-43" y="-215"/>
    </contour>
  </outline>
</glyph>
<glyph name="ezhcurl" format="2">
  <advance width="271"/>
  <unicode hex="0293"/>
  <anchor x="28" y="-245" name="bottom"/>
  <anchor x="192" y="526" name="top"/>
  <outline>
    <contour>
      <point x="5" y="-240" type="curve" smooth="yes"/>
      <point x="72" y="-240"/>
      <point x="116" y="-200"/>
      <point x="145" y="-145" type="curve"/>
      <point x="162" y="-171"/>
      <point x="175" y="-205"/>
      <point x="183" y="-245" type="curve"/>
      <point x="210" y="-239" type="line"/>
      <point x="199" y="-191"/>
      <point x="182" y="-150"/>
      <point x="158" y="-119" type="curve"/>
      <point x="180" y="-66"/>
      <point x="189" y="-5"/>
      <point x="189" y="47" type="curve" smooth="yes"/>
      <point x="189" y="145"/>
      <point x="149" y="198"/>
      <point x="70" y="203" type="curve"/>
      <point x="277" y="500" type="line"/>
      <point x="282" y="526" type="line"/>
      <point x="88" y="526" type="line"/>
      <point x="83" y="501" type="line"/>
      <point x="249" y="501" type="line"/>
      <point x="39" y="199" type="line"/>
      <point x="35" y="178" type="line"/>
      <point x="57" y="178" type="line" smooth="yes"/>
      <point x="129" y="178"/>
      <point x="162" y="133"/>
      <point x="162" y="45" type="curve" smooth="yes"/>
      <point x="162" y="0"/>
      <point x="155" y="-52"/>
      <point x="139" y="-98" type="curve"/>
      <point x="111" y="-73"/>
      <point x="76" y="-59"/>
      <point x="30" y="-59" type="curve" smooth="yes"/>
      <point x="-54" y="-59"/>
      <point x="-92" y="-102"/>
      <point x="-92" y="-157" type="curve" smooth="yes"/>
      <point x="-92" y="-206"/>
      <point x="-61" y="-240"/>
    </contour>
    <contour>
      <point x="8" y="-215" type="curve" smooth="yes"/>
      <point x="-39" y="-215"/>
      <point x="-65" y="-194"/>
      <point x="-65" y="-156" type="curve" smooth="yes"/>
      <point x="-65" y="-112"/>
      <point x="-35" y="-84"/>
      <point x="28" y="-84" type="curve" smooth="yes"/>
      <point x="70" y="-84"/>
      <point x="103" y="-98"/>
      <point x="128" y="-124" type="curve"/>
      <point x="96" y="-190"/>
      <point x="59" y="-215"/>
    </contour>
  </outline>
</glyph>
<glyph name="cstretched" format="2">
  <advance width="287"/>
  <unicode hex="0297"/>
  <anchor x="89" y="-240" name="bottom"/>
  <anchor x="242" y="526" name="top"/>
  <outline>
    <contour>
      <point x="121" y="-240" type="curve" smooth="yes"/>
      <point x="145" y="-240"/>
      <point x="167" y="-234"/>
      <point x="185" y="-226" type="curve"/>
      <point x="185" y="-200" type="line"/>
      <point x="165" y="-209"/>
      <point x="147" y="-215"/>
      <point x="124" y="-215" type="curve" smooth="yes"/>
      <point x="73" y="-215"/>
      <point x="28" y="-182"/>
      <point x="28" y="-29" type="curve" smooth="yes"/>
      <point x="28" y="209"/>
      <point x="106" y="511"/>
      <point x="258" y="511" type="curve" smooth="yes"/>
      <point x="276" y="511"/>
      <point x="293" y="508"/>
      <point x="309" y="500" type="curve"/>
      <point x="318" y="525" type="line"/>
      <point x="304" y="532"/>
      <point x="283" y="536"/>
      <point x="260" y="536" type="curve" smooth="yes"/>
      <point x="83" y="536"/>
      <point x="2" y="227"/>
      <point x="2" y="-31" type="curve" smooth="yes"/>
      <point x="2" y="-197"/>
      <point x="56" y="-240"/>
    </contour>
  </outline>
</glyph>
<glyph name="eopenclosed" format="2">
  <advance width="365"/>
  <unicode hex="029A"/>
  <anchor x="127" y="0" name="bottom"/>
  <anchor x="239" y="526" name="top"/>
  <outline>
    <contour>
      <point x="122" y="-10" type="curve" smooth="yes"/>
      <point x="284" y="-10"/>
      <point x="339" y="212"/>
      <point x="339" y="371" type="curve" smooth="yes"/>
      <point x="339" y="484"/>
      <point x="297" y="536"/>
      <point x="221" y="536" type="curve" smooth="yes"/>
      <point x="125" y="536"/>
      <point x="77" y="453"/>
      <point x="77" y="380" type="curve" smooth="yes"/>
      <point x="77" y="331"/>
      <point x="98" y="293"/>
      <point x="141" y="279" type="curve"/>
      <point x="141" y="277" type="line"/>
      <point x="65" y="265"/>
      <point x="17" y="197"/>
      <point x="17" y="111" type="curve" smooth="yes"/>
      <point x="17" y="31"/>
      <point x="58" y="-10"/>
    </contour>
    <contour>
      <point x="124" y="15" type="curve" smooth="yes"/>
      <point x="75" y="15"/>
      <point x="44" y="45"/>
      <point x="44" y="112" type="curve" smooth="yes"/>
      <point x="44" y="188"/>
      <point x="81" y="263"/>
      <point x="196" y="263" type="curve" smooth="yes"/>
      <point x="246" y="263" type="line"/>
      <point x="251" y="288" type="line"/>
      <point x="205" y="288" type="line" smooth="yes"/>
      <point x="133" y="288"/>
      <point x="104" y="325"/>
      <point x="104" y="382" type="curve" smooth="yes"/>
      <point x="104" y="440"/>
      <point x="140" y="511"/>
      <point x="220" y="511" type="curve" smooth="yes"/>
      <point x="280" y="511"/>
      <point x="312" y="470"/>
      <point x="312" y="368" type="curve" smooth="yes"/>
      <point x="312" y="216"/>
      <point x="262" y="15"/>
    </contour>
  </outline>
</glyph>
<glyph name="kturned" format="2">
  <advance width="275"/>
  <unicode hex="029E"/>
  <anchor x="32" y="-234" name="bottom"/>
  <anchor x="193.902" y="526" name="top"/>
  <anchor x="283" y="526" name="topright"/>
  <outline>
    <contour>
      <point x="180" y="165" type="curve" smooth="yes"/>
      <point x="95" y="-234" type="line"/>
      <point x="121" y="-234" type="line"/>
      <point x="283" y="526" type="line"/>
      <point x="257" y="526" type="line"/>
      <point x="217" y="337" type="line"/>
      <point x="133" y="229" type="line"/>
      <point x="87" y="526" type="line"/>
      <point x="61" y="526" type="line"/>
      <point x="111" y="203" type="line"/>
      <point x="-40" y="0" type="line"/>
      <point x="-11" y="0" type="line"/>
      <point x="207" y="292" type="line"/>
      <point x="208" y="292" type="line"/>
      <point x="198" y="249"/>
      <point x="190" y="212"/>
    </contour>
  </outline>
</glyph>
<glyph name="qhook" format="2">
  <advance width="375"/>
  <unicode hex="02A0"/>
  <anchor x="83" y="-240" name="bottom"/>
  <anchor x="297" y="764" name="top"/>
  <outline>
    <contour>
      <point x="232" y="24" type="curve" smooth="yes"/>
      <point x="176" y="-240" type="line"/>
      <point x="202" y="-240" type="line"/>
      <point x="394" y="670" type="line" smooth="yes"/>
      <point x="404" y="717"/>
      <point x="421" y="739"/>
      <point x="463" y="739" type="curve" smooth="yes"/>
      <point x="477" y="739"/>
      <point x="489" y="736"/>
      <point x="496" y="733" type="curve"/>
      <point x="496" y="759" type="line"/>
      <point x="489" y="762"/>
      <point x="477" y="764"/>
      <point x="463" y="764" type="curve" smooth="yes"/>
      <point x="403" y="764"/>
      <point x="380" y="728"/>
      <point x="368" y="671" type="curve" smooth="yes"/>
      <point x="344" y="558" type="line" smooth="yes"/>
      <point x="336" y="522"/>
      <point x="329" y="483"/>
      <point x="323" y="451" type="curve"/>
      <point x="321" y="451" type="line"/>
      <point x="314" y="499"/>
      <point x="287" y="536"/>
      <point x="237" y="536" type="curve"/>
      <point x="100" y="536"/>
      <point x="29" y="292"/>
      <point x="29" y="137" type="curve" smooth="yes"/>
      <point x="29" y="42"/>
      <point x="63" y="-10"/>
      <point x="123" y="-10" type="curve" smooth="yes"/>
      <point x="179" y="-10"/>
      <point x="215" y="28"/>
      <point x="246" y="90" type="curve"/>
      <point x="248" y="90" type="line"/>
      <point x="241" y="64"/>
      <point x="236" y="42"/>
    </contour>
    <contour>
      <point x="127" y="15" type="curve" smooth="yes"/>
      <point x="83" y="15"/>
      <point x="56" y="51"/>
      <point x="56" y="139" type="curve" smooth="yes"/>
      <point x="56" y="278"/>
      <point x="121" y="511"/>
      <point x="236" y="511" type="curve" smooth="yes"/>
      <point x="278" y="511"/>
      <point x="304" y="473"/>
      <point x="304" y="417" type="curve" smooth="yes"/>
      <point x="304" y="352"/>
      <point x="256" y="15"/>
    </contour>
  </outline>
</glyph>
<glyph name="circumflex" format="2">
  <advance width="272"/>
  <unicode hex="02C6"/>
  <outline>
    <contour>
      <point x="115" y="614" type="curve"/>
      <point x="114" y="606" type="line"/>
      <point x="124" y="606" type="line"/>
      <point x="168" y="643"/>
      <point x="208" y="688"/>
      <point x="235" y="727" type="curve"/>
      <point x="250" y="683"/>
      <point x="275" y="637"/>
      <point x="294" y="606" type="curve"/>
      <point x="305" y="606" type="line"/>
      <point x="306" y="614" type="line"/>
      <point x="289" y="645"/>
      <point x="259" y="725"/>
      <point x="251" y="766" type="curve"/>
      <point x="230" y="766" type="line"/>
      <point x="203" y="715"/>
      <point x="152" y="652"/>
    </contour>
  </outline>
</glyph>
<glyph name="caron" format="2">
  <advance width="272"/>
  <unicode hex="02C7"/>
  <outline>
    <contour>
      <point x="200" y="606" type="curve"/>
      <point x="221" y="606" type="line"/>
      <point x="249" y="657"/>
      <point x="300" y="720"/>
      <point x="337" y="758" type="curve"/>
      <point x="338" y="766" type="line"/>
      <point x="327" y="766" type="line"/>
      <point x="283" y="729"/>
      <point x="244" y="684"/>
      <point x="216" y="645" type="curve"/>
      <point x="202" y="689"/>
      <point x="177" y="735"/>
      <point x="157" y="766" type="curve"/>
      <point x="147" y="766" type="line"/>
      <point x="146" y="758" type="line"/>
      <point x="163" y="727"/>
      <point x="193" y="647"/>
    </contour>
  </outline>
</glyph>
<glyph name="breve" format="2">
  <advance width="274"/>
  <unicode hex="02D8"/>
  <outline>
    <contour>
      <point x="223" y="608" type="curve" smooth="yes"/>
      <point x="290" y="608"/>
      <point x="319" y="643"/>
      <point x="329" y="710" type="curve"/>
      <point x="308" y="710" type="line"/>
      <point x="299" y="652"/>
      <point x="276" y="632"/>
      <point x="223" y="632" type="curve" smooth="yes"/>
      <point x="167" y="632"/>
      <point x="155" y="662"/>
      <point x="155" y="710" type="curve"/>
      <point x="135" y="710" type="line"/>
      <point x="135" y="707"/>
      <point x="135" y="703"/>
      <point x="135" y="696" type="curve" smooth="yes"/>
      <point x="135" y="649"/>
      <point x="154" y="608"/>
    </contour>
  </outline>
</glyph>
<glyph name="ring" format="2">
  <advance width="254"/>
  <unicode hex="02DA"/>
  <outline>
    <contour>
      <point x="219" y="612" type="curve" smooth="yes"/>
      <point x="271" y="612"/>
      <point x="304" y="650"/>
      <point x="304" y="698" type="curve" smooth="yes"/>
      <point x="304" y="746"/>
      <point x="276" y="784"/>
      <point x="220" y="784" type="curve" smooth="yes"/>
      <point x="167" y="784"/>
      <point x="135" y="747"/>
      <point x="135" y="698" type="curve" smooth="yes"/>
      <point x="135" y="645"/>
      <point x="167" y="612"/>
    </contour>
    <contour>
      <point x="219" y="636" type="curve" smooth="yes"/>
      <point x="181" y="636"/>
      <point x="160" y="661"/>
      <point x="160" y="698" type="curve" smooth="yes"/>
      <point x="160" y="733"/>
      <point x="181" y="760"/>
      <point x="220" y="760" type="curve" smooth="yes"/>
      <point x="259" y="760"/>
      <point x="279" y="734"/>
      <point x="279" y="698" type="curve" smooth="yes"/>
      <point x="279" y="661"/>
      <point x="257" y="636"/>
    </contour>
  </outline>
</glyph>
<glyph name="ogonek" format="2">
  <advance width="199"/>
  <unicode hex="02DB"/>
  <outline>
    <contour>
      <point x="22" y="-215" type="curve" smooth="yes"/>
      <point x="39" y="-215"/>
      <point x="50" y="-211"/>
      <point x="59" y="-208" type="curve"/>
      <point x="63" y="-184" type="line"/>
      <point x="52" y="-187"/>
      <point x="39" y="-190"/>
      <point x="27" y="-190" type="curve" smooth="yes"/>
      <point x="-4" y="-190"/>
      <point x="-18" y="-175"/>
      <point x="-18" y="-146" type="curve" smooth="yes"/>
      <point x="-18" y="-98"/>
      <point x="8" y="-62"/>
      <point x="83" y="0" type="curve"/>
      <point x="57" y="0" type="line"/>
      <point x="-22" y="-60"/>
      <point x="-45" y="-101"/>
      <point x="-45" y="-150" type="curve" smooth="yes"/>
      <point x="-45" y="-188"/>
      <point x="-21" y="-215"/>
    </contour>
  </outline>
</glyph>
<glyph name="tilde" format="2">
  <advance width="322"/>
  <unicode hex="02DC"/>
  <outline>
    <contour>
      <point x="115" y="611" type="curve"/>
      <point x="140" y="611" type="line"/>
      <point x="147" y="653"/>
      <point x="161" y="678"/>
      <point x="192" y="678" type="curve" smooth="yes"/>
      <point x="233" y="678"/>
      <point x="246" y="612"/>
      <point x="298" y="612" type="curve" smooth="yes"/>
      <point x="340" y="612"/>
      <point x="366" y="643"/>
      <point x="375" y="703" type="curve"/>
      <point x="351" y="703" type="line"/>
      <point x="343" y="656"/>
      <point x="326" y="637"/>
      <point x="301" y="637" type="curve" smooth="yes"/>
      <point x="262" y="637"/>
      <point x="247" y="703"/>
      <point x="195" y="703" type="curve" smooth="yes"/>
      <point x="152" y="703"/>
      <point x="124" y="674"/>
    </contour>
  </outline>
</glyph>
<glyph name="hungarumlaut" format="2">
  <advance width="331"/>
  <unicode hex="02DD"/>
  <outline>
    <contour>
      <point x="245" y="614" type="curve"/>
      <point x="246" y="606" type="line"/>
      <point x="257" y="606" type="line"/>
      <point x="303" y="640"/>
      <point x="369" y="715"/>
      <point x="396" y="758" type="curve"/>
      <point x="396" y="766" type="line"/>
      <point x="365" y="766" type="line"/>
      <point x="343" y="725"/>
      <point x="295" y="662"/>
    </contour>
    <contour>
      <point x="115" y="614" type="curve"/>
      <point x="116" y="606" type="line"/>
      <point x="126" y="606" type="line"/>
      <point x="172" y="640"/>
      <point x="238" y="715"/>
      <point x="266" y="758" type="curve"/>
      <point x="266" y="766" type="line"/>
      <point x="234" y="766" type="line"/>
      <point x="212" y="725"/>
      <point x="164" y="662"/>
    </contour>
  </outline>
</glyph>
<glyph name="rhotichookmod" format="2">
  <advance width="110"/>
  <unicode hex="02DE"/>
  <outline>
    <contour>
      <point x="71" y="210" type="curve" smooth="yes"/>
      <point x="91" y="210"/>
      <point x="109" y="218"/>
      <point x="125" y="228" type="curve"/>
      <point x="116" y="249" type="line"/>
      <point x="104" y="242"/>
      <point x="91" y="235"/>
      <point x="74" y="235" type="curve" smooth="yes"/>
      <point x="45" y="235"/>
      <point x="30" y="258"/>
      <point x="22" y="337" type="curve" smooth="yes"/>
      <point x="18" y="375" type="line"/>
      <point x="-60" y="339" type="line"/>
      <point x="-50" y="317" type="line"/>
      <point x="-2" y="339" type="line"/>
      <point x="6" y="248"/>
      <point x="25" y="210"/>
    </contour>
  </outline>
</glyph>
<glyph name="dblverticallineabovecomb" format="2">
  <unicode hex="030E"/>
  <anchor x="58" y="526" name="_top"/>
  <anchor x="54" y="758" name="top"/>
  <outline>
    <contour>
      <point x="114" y="596" type="line"/>
      <point x="140" y="596" type="line"/>
      <point x="176" y="758" type="line"/>
      <point x="150" y="758" type="line"/>
    </contour>
    <contour>
      <point x="6" y="596" type="line"/>
      <point x="32" y="596" type="line"/>
      <point x="68" y="758" type="line"/>
      <point x="42" y="758" type="line"/>
    </contour>
  </outline>
</glyph>
<glyph name="dblgravecomb" format="2">
  <unicode hex="030F"/>
  <anchor x="-288" y="526" name="_top"/>
  <anchor x="-238" y="763" name="top"/>
  <outline>
    <contour>
      <point x="-170" y="606" type="curve"/>
      <point x="-158" y="606" type="line"/>
      <point x="-158" y="614" type="line"/>
      <point x="-184" y="660"/>
      <point x="-203" y="708"/>
      <point x="-224" y="763" type="curve"/>
      <point x="-248" y="763" type="line"/>
      <point x="-248" y="756" type="line"/>
      <point x="-229" y="705"/>
      <point x="-195" y="644"/>
    </contour>
    <contour>
      <point x="-273" y="606" type="curve"/>
      <point x="-261" y="606" type="line"/>
      <point x="-261" y="614" type="line"/>
      <point x="-287" y="660"/>
      <point x="-306" y="708"/>
      <point x="-327" y="763" type="curve"/>
      <point x="-351" y="763" type="line"/>
      <point x="-351" y="756" type="line"/>
      <point x="-332" y="705"/>
      <point x="-299" y="644"/>
    </contour>
  </outline>
</glyph>
<glyph name="candraBinducomb" format="2">
  <unicode hex="0310"/>
  <anchor x="54" y="526" name="_top"/>
  <anchor x="109" y="783" name="top"/>
  <outline>
    <contour>
      <point x="81" y="608" type="curve" smooth="yes"/>
      <point x="139" y="608"/>
      <point x="168" y="643"/>
      <point x="178" y="710" type="curve"/>
      <point x="157" y="710" type="line"/>
      <point x="148" y="652"/>
      <point x="124" y="632"/>
      <point x="81" y="632" type="curve" smooth="yes"/>
      <point x="35" y="632"/>
      <point x="23" y="662"/>
      <point x="23" y="710" type="curve"/>
      <point x="3" y="710" type="line"/>
      <point x="3" y="707"/>
      <point x="3" y="703"/>
      <point x="3" y="696" type="curve" smooth="yes"/>
      <point x="3" y="649"/>
      <point x="22" y="608"/>
    </contour>
    <contour>
      <point x="92" y="714" type="curve" smooth="yes"/>
      <point x="112" y="714"/>
      <point x="121" y="741"/>
      <point x="121" y="758" type="curve" smooth="yes"/>
      <point x="121" y="775"/>
      <point x="114" y="783"/>
      <point x="104" y="783" type="curve" smooth="yes"/>
      <point x="84" y="783"/>
      <point x="75" y="757"/>
      <point x="75" y="738" type="curve" smooth="yes"/>
      <point x="75" y="723"/>
      <point x="82" y="714"/>
    </contour>
  </outline>
</glyph>
<glyph name="breveinvertedcomb" format="2">
  <unicode hex="0311"/>
  <anchor x="47" y="526" name="_top"/>
  <anchor x="84" y="702" name="top"/>
  <outline>
    <contour>
      <point x="-22" y="613" type="curve"/>
      <point x="-1" y="613" type="line"/>
      <point x="7" y="657"/>
      <point x="32" y="678"/>
      <point x="84" y="678" type="curve" smooth="yes"/>
      <point x="140" y="678"/>
      <point x="153" y="649"/>
      <point x="152" y="613" type="curve"/>
      <point x="172" y="613" type="line"/>
      <point x="172" y="616"/>
      <point x="172" y="620"/>
      <point x="172" y="627" type="curve" smooth="yes"/>
      <point x="172" y="662"/>
      <point x="153" y="702"/>
      <point x="84" y="702" type="curve" smooth="yes"/>
      <point x="17" y="702"/>
      <point x="-13" y="666"/>
    </contour>
  </outline>
</glyph>
<glyph name="lefttackbelowcomb" format="2">
  <unicode hex="0318"/>
  <anchor x="-45" y="13" name="_bottom"/>
  <anchor x="-93" y="-209" name="bottom"/>
  <outline>
    <contour>
      <point x="-85" y="-209" type="line"/>
      <point x="-47" y="-209" type="line"/>
      <point x="-12" y="-37" type="line"/>
      <point x="-50" y="-37" type="line"/>
      <point x="-64" y="-103" type="line"/>
      <point x="-129" y="-103" type="line"/>
      <point x="-137" y="-143" type="line"/>
      <point x="-71" y="-143" type="line"/>
    </contour>
  </outline>
</glyph>
<glyph name="righttackbelowcomb" format="2">
  <unicode hex="0319"/>
  <anchor x="-45" y="13" name="_bottom"/>
  <anchor x="-93" y="-209" name="bottom"/>
  <outline>
    <contour>
      <point x="-137" y="-209" type="line"/>
      <point x="-99" y="-209" type="line"/>
      <point x="-85" y="-143" type="line"/>
      <point x="-19" y="-143" type="line"/>
      <point x="-12" y="-103" type="line"/>
      <point x="-77" y="-103" type="line"/>
      <point x="-63" y="-37" type="line"/>
      <point x="-101" y="-37" type="line"/>
    </contour>
  </outline>
</glyph>
<glyph name="uptackbelowcomb" format="2">
  <unicode hex="031D"/>
  <anchor x="-67" y="2" name="_bottom"/>
  <anchor x="-109" y="-196" name="bottom"/>
  <outline>
    <contour>
      <point x="-157" y="-196" type="line"/>
      <point x="-37" y="-196" type="line"/>
      <point x="-29" y="-157" type="line"/>
      <point x="-68" y="-157" type="line"/>
      <point x="-45" y="-48" type="line"/>
      <point x="-86" y="-48" type="line"/>
      <point x="-109" y="-157" type="line"/>
      <point x="-148" y="-157" type="line"/>
    </contour>
  </outline>
</glyph>
<glyph name="downtackbelowcomb" format="2">
  <unicode hex="031E"/>
  <anchor x="-54" y="0" name="_bottom"/>
  <anchor x="-96" y="-196" name="bottom"/>
  <outline>
    <contour>
      <point x="-118" y="-196" type="line"/>
      <point x="-77" y="-196" type="line"/>
      <point x="-54" y="-87" type="line"/>
      <point x="-15" y="-87" type="line"/>
      <point x="-6" y="-48" type="line"/>
      <point x="-126" y="-48" type="line"/>
      <point x="-134" y="-87" type="line"/>
      <point x="-95" y="-87" type="line"/>
    </contour>
  </outline>
</glyph>
<glyph name="plusbelowcomb" format="2">
  <unicode hex="031F"/>
  <anchor x="-52" y="12" name="_bottom"/>
  <anchor x="-96" y="-197" name="bottom"/>
  <outline>
    <contour>
      <point x="-117" y="-197" type="line"/>
      <point x="-77" y="-197" type="line"/>
      <point x="-64" y="-137" type="line"/>
      <point x="-19" y="-137" type="line"/>
      <point x="-11" y="-98" type="line"/>
      <point x="-57" y="-98" type="line"/>
      <point x="-44" y="-38" type="line"/>
      <point x="-84" y="-38" type="line"/>
      <point x="-97" y="-98" type="line"/>
      <point x="-141" y="-98" type="line"/>
      <point x="-148" y="-137" type="line"/>
      <point x="-104" y="-137" type="line"/>
    </contour>
  </outline>
</glyph>
<glyph name="dotbelowcomb" format="2">
  <unicode hex="0323"/>
  <anchor x="-271" y="0" name="_bottom"/>
  <anchor x="-301" y="-142" name="bottom"/>
  <outline>
    <contour>
      <point x="-299" y="-142" type="curve" smooth="yes"/>
      <point x="-279" y="-142"/>
      <point x="-270" y="-115"/>
      <point x="-270" y="-98" type="curve" smooth="yes"/>
      <point x="-270" y="-81"/>
      <point x="-277" y="-73"/>
      <point x="-288" y="-73" type="curve" smooth="yes"/>
      <point x="-308" y="-73"/>
      <point x="-317" y="-99"/>
      <point x="-317" y="-118" type="curve" smooth="yes"/>
      <point x="-317" y="-133"/>
      <point x="-310" y="-142"/>
    </contour>
  </outline>
</glyph>
<glyph name="commaaccentcomb" format="2">
  <unicode hex="0326"/>
  <anchor x="212" y="0" name="_bottom"/>
  <anchor x="160" y="-221" name="bottom"/>
  <outline>
    <contour>
      <point x="121" y="-206" type="curve"/>
      <point x="121" y="-221" type="line"/>
      <point x="131" y="-221" type="line"/>
      <point x="168" y="-186"/>
      <point x="217" y="-114"/>
      <point x="234" y="-72" type="curve"/>
      <point x="234" y="-61" type="line"/>
      <point x="208" y="-61" type="line"/>
      <point x="193" y="-106"/>
      <point x="149" y="-179"/>
    </contour>
  </outline>
</glyph>
<glyph name="dblarchinvertedbelowcomb" format="2">
  <unicode hex="032B"/>
  <anchor x="-47" y="0" name="_bottom"/>
  <anchor x="-82" y="-167" name="bottom"/>
  <outline>
    <contour>
      <point x="-138" y="-167" type="curve"/>
      <point x="-110" y="-167"/>
      <point x="-94" y="-151"/>
      <point x="-81" y="-121" type="curve"/>
      <point x="-77" y="-149"/>
      <point x="-60" y="-167"/>
      <point x="-35" y="-167" type="curve"/>
      <point x="-2" y="-167"/>
      <point x="29" y="-146"/>
      <point x="47" y="-61" type="curve"/>
      <point x="11" y="-61" type="line"/>
      <point x="2" y="-106"/>
      <point x="-12" y="-127"/>
      <point x="-33" y="-127" type="curve"/>
      <point x="-50" y="-127"/>
      <point x="-56" y="-119"/>
      <point x="-56" y="-100" type="curve" smooth="yes"/>
      <point x="-56" y="-89"/>
      <point x="-54" y="-77"/>
      <point x="-50" y="-61" type="curve"/>
      <point x="-87" y="-61" type="line"/>
      <point x="-96" y="-106"/>
      <point x="-111" y="-127"/>
      <point x="-132" y="-127" type="curve"/>
      <point x="-147" y="-127"/>
      <point x="-154" y="-119"/>
      <point x="-154" y="-99" type="curve" smooth="yes"/>
      <point x="-154" y="-89"/>
      <point x="-152" y="-77"/>
      <point x="-148" y="-61" type="curve"/>
      <point x="-183" y="-61" type="line"/>
      <point x="-186" y="-79"/>
      <point x="-189" y="-93"/>
      <point x="-189" y="-105" type="curve" smooth="yes"/>
      <point x="-189" y="-150"/>
      <point x="-165" y="-167"/>
    </contour>
  </outline>
</glyph>
<glyph name="lowlinecomb" format="2">
  <unicode hex="0332"/>
  <anchor x="-56" y="0" name="_bottom"/>
  <anchor x="-81" y="-120" name="bottom"/>
  <outline>
    <contour>
      <point x="-203" y="-120" type="line"/>
      <point x="41" y="-120" type="line"/>
      <point x="46" y="-95" type="line"/>
      <point x="-198" y="-95" type="line"/>
    </contour>
  </outline>
</glyph>
<glyph name="bridgeinvertedbelowcomb" format="2">
  <unicode hex="033A"/>
  <anchor x="-57" y="0" name="_bottom"/>
  <anchor x="-103" y="-218" name="bottom"/>
  <outline>
    <contour>
      <point x="-216" y="-218" type="line"/>
      <point x="11" y="-218" type="line"/>
      <point x="37" y="-91" type="line"/>
      <point x="7" y="-91" type="line"/>
      <point x="-13" y="-186" type="line"/>
      <point x="-180" y="-186" type="line"/>
      <point x="-160" y="-91" type="line"/>
      <point x="-190" y="-91" type="line"/>
    </contour>
  </outline>
</glyph>
<glyph name="squarebelowcomb" format="2">
  <unicode hex="033B"/>
  <anchor x="-51" y="21" name="_bottom"/>
  <anchor x="-104" y="-227" name="bottom"/>
  <outline>
    <contour>
      <point x="-238" y="-227" type="line"/>
      <point x="30" y="-227" type="line"/>
      <point x="72" y="-29" type="line"/>
      <point x="-196" y="-29" type="line"/>
    </contour>
    <contour>
      <point x="-190" y="-187" type="line"/>
      <point x="-165" y="-69" type="line"/>
      <point x="23" y="-69" type="line"/>
      <point x="-2" y="-187" type="line"/>
    </contour>
  </outline>
</glyph>
<glyph name="seagullbelowcomb" format="2">
  <unicode hex="033C"/>
  <anchor x="-66" y="0" name="_bottom"/>
  <anchor x="-101" y="-162" name="bottom"/>
  <outline>
    <contour>
      <point x="-207" y="-162" type="curve"/>
      <point x="-181" y="-162" type="line"/>
      <point x="-172" y="-118"/>
      <point x="-157" y="-91"/>
      <point x="-130" y="-91" type="curve" smooth="yes"/>
      <point x="-96" y="-91"/>
      <point x="-99" y="-126"/>
      <point x="-106" y="-162" type="curve"/>
      <point x="-78" y="-162" type="line"/>
      <point x="-68" y="-117"/>
      <point x="-54" y="-91"/>
      <point x="-27" y="-91" type="curve" smooth="yes"/>
      <point x="4" y="-91"/>
      <point x="3" y="-126"/>
      <point x="-4" y="-162" type="curve"/>
      <point x="22" y="-162" type="line"/>
      <point x="24" y="-146"/>
      <point x="26" y="-129"/>
      <point x="26" y="-118" type="curve" smooth="yes"/>
      <point x="26" y="-87"/>
      <point x="8" y="-66"/>
      <point x="-21" y="-66" type="curve" smooth="yes"/>
      <point x="-46" y="-66"/>
      <point x="-66" y="-75"/>
      <point x="-83" y="-108" type="curve"/>
      <point x="-86" y="-83"/>
      <point x="-101" y="-66"/>
      <point x="-128" y="-66" type="curve" smooth="yes"/>
      <point x="-168" y="-66"/>
      <point x="-193" y="-95"/>
    </contour>
  </outline>
</glyph>
<glyph name="xabovecomb" format="2">
  <unicode hex="033D"/>
  <anchor x="56" y="526" name="_top"/>
  <anchor x="106" y="763" name="top"/>
  <outline>
    <contour>
      <point x="10" y="583" type="line"/>
      <point x="81" y="642" type="line"/>
      <point x="124" y="583" type="line"/>
      <point x="162" y="613" type="line"/>
      <point x="116" y="673" type="line"/>
      <point x="188" y="732" type="line"/>
      <point x="164" y="763" type="line"/>
      <point x="94" y="703" type="line"/>
      <point x="49" y="763" type="line"/>
      <point x="13" y="732" type="line"/>
      <point x="57" y="673" type="line"/>
      <point x="-13" y="613" type="line"/>
    </contour>
  </outline>
</glyph>
<glyph name="tildeverticalcomb" format="2">
  <unicode hex="033E"/>
  <anchor x="57" y="526" name="_top"/>
  <anchor x="129" y="866" name="top"/>
  <outline>
    <contour>
      <point x="38" y="606" type="curve"/>
      <point x="32" y="576" type="line"/>
      <point x="81" y="583"/>
      <point x="115" y="612"/>
      <point x="126" y="664" type="curve" smooth="yes"/>
      <point x="138" y="722"/>
      <point x="95" y="743"/>
      <point x="103" y="783" type="curve" smooth="yes"/>
      <point x="109" y="814"/>
      <point x="121" y="827"/>
      <point x="158" y="833" type="curve"/>
      <point x="166" y="866" type="line"/>
      <point x="114" y="859"/>
      <point x="81" y="831"/>
      <point x="71" y="782" type="curve"/>
      <point x="59" y="725"/>
      <point x="103" y="706"/>
      <point x="94" y="661" type="curve" smooth="yes"/>
      <point x="89" y="633"/>
      <point x="76" y="613"/>
    </contour>
  </outline>
</glyph>
<glyph name="gbridgeabovecomb" format="2">
  <unicode hex="0346"/>
  <anchor x="57" y="526" name="_top"/>
  <anchor x="103" y="742" name="top"/>
  <outline>
    <contour>
      <point x="-36" y="604" type="line"/>
      <point x="2" y="604" type="line"/>
      <point x="22" y="703" type="line"/>
      <point x="166" y="703" type="line"/>
      <point x="145" y="604" type="line"/>
      <point x="184" y="604" type="line"/>
      <point x="213" y="742" type="line"/>
      <point x="-7" y="742" type="line"/>
    </contour>
  </outline>
</glyph>
<glyph name="nottildeabovecomb" format="2">
  <unicode hex="034A"/>
  <anchor x="55" y="511" name="_top"/>
  <anchor x="98" y="745" name="top"/>
  <outline>
    <contour>
      <point x="24" y="561" type="line"/>
      <point x="81" y="632" type="line"/>
      <point x="94" y="619"/>
      <point x="109" y="607"/>
      <point x="131" y="607" type="curve" smooth="yes"/>
      <point x="173" y="607"/>
      <point x="199" y="638"/>
      <point x="208" y="698" type="curve"/>
      <point x="184" y="698" type="line"/>
      <point x="176" y="651"/>
      <point x="159" y="632"/>
      <point x="134" y="632" type="curve" smooth="yes"/>
      <point x="119" y="632"/>
      <point x="108" y="641"/>
      <point x="97" y="653" type="curve"/>
      <point x="159" y="731" type="line"/>
      <point x="141" y="745" type="line"/>
      <point x="81" y="670" type="line"/>
      <point x="67" y="685"/>
      <point x="51" y="698"/>
      <point x="28" y="698" type="curve" smooth="yes"/>
      <point x="-15" y="698"/>
      <point x="-43" y="669"/>
      <point x="-52" y="606" type="curve"/>
      <point x="-27" y="606" type="line"/>
      <point x="-20" y="648"/>
      <point x="-6" y="673"/>
      <point x="25" y="673" type="curve" smooth="yes"/>
      <point x="41" y="673"/>
      <point x="53" y="662"/>
      <point x="65" y="650" type="curve"/>
      <point x="6" y="576" type="line"/>
    </contour>
  </outline>
</glyph>
<glyph name="homotheticabovecomb" format="2">
  <unicode hex="034B"/>
  <anchor x="56" y="526" name="_top"/>
  <anchor x="124" y="846" name="top"/>
  <outline>
    <contour>
      <point x="-34" y="670" type="curve"/>
      <point x="-9" y="670" type="line"/>
      <point x="-2" y="712"/>
      <point x="12" y="737"/>
      <point x="43" y="737" type="curve" smooth="yes"/>
      <point x="84" y="737"/>
      <point x="97" y="671"/>
      <point x="149" y="671" type="curve" smooth="yes"/>
      <point x="191" y="671"/>
      <point x="217" y="702"/>
      <point x="226" y="762" type="curve"/>
      <point x="202" y="762" type="line"/>
      <point x="194" y="715"/>
      <point x="177" y="696"/>
      <point x="151" y="696" type="curve" smooth="yes"/>
      <point x="113" y="696"/>
      <point x="98" y="762"/>
      <point x="46" y="762" type="curve" smooth="yes"/>
      <point x="3" y="762"/>
      <point x="-25" y="733"/>
    </contour>
    <contour>
      <point x="74" y="588" type="curve" smooth="yes"/>
      <point x="91" y="588"/>
      <point x="100" y="614"/>
      <point x="100" y="630" type="curve" smooth="yes"/>
      <point x="100" y="645"/>
      <point x="93" y="653"/>
      <point x="83" y="653" type="curve" smooth="yes"/>
      <point x="66" y="653"/>
      <point x="57" y="628"/>
      <point x="57" y="611" type="curve" smooth="yes"/>
      <point x="57" y="596"/>
      <point x="64" y="588"/>
    </contour>
    <contour>
      <point x="116" y="781" type="curve" smooth="yes"/>
      <point x="132" y="781"/>
      <point x="141" y="807"/>
      <point x="141" y="823" type="curve" smooth="yes"/>
      <point x="141" y="838"/>
      <point x="135" y="846"/>
      <point x="124" y="846" type="curve" smooth="yes"/>
      <point x="107" y="846"/>
      <point x="98" y="821"/>
      <point x="98" y="804" type="curve" smooth="yes"/>
      <point x="98" y="789"/>
      <point x="105" y="781"/>
    </contour>
  </outline>
</glyph>
<glyph name="almostequaltoabovecomb" format="2">
  <unicode hex="034C"/>
  <anchor x="48" y="526" name="_top"/>
  <anchor x="116" y="845" name="top"/>
  <outline>
    <contour>
      <point x="-28" y="756" type="curve"/>
      <point x="-3" y="756" type="line"/>
      <point x="8" y="798"/>
      <point x="23" y="817"/>
      <point x="48" y="817" type="curve" smooth="yes"/>
      <point x="64" y="817"/>
      <point x="79" y="808"/>
      <point x="97" y="791" type="curve" smooth="yes"/>
      <point x="116" y="773"/>
      <point x="133" y="757"/>
      <point x="164" y="757" type="curve" smooth="yes"/>
      <point x="200" y="757"/>
      <point x="226" y="781"/>
      <point x="240" y="845" type="curve"/>
      <point x="216" y="845" type="line"/>
      <point x="203" y="794"/>
      <point x="185" y="782"/>
      <point x="162" y="782" type="curve" smooth="yes"/>
      <point x="143" y="782"/>
      <point x="129" y="796"/>
      <point x="112" y="811" type="curve" smooth="yes"/>
      <point x="91" y="830"/>
      <point x="71" y="842"/>
      <point x="54" y="842" type="curve" smooth="yes"/>
      <point x="12" y="842"/>
      <point x="-15" y="818"/>
    </contour>
    <contour>
      <point x="-57" y="618" type="curve"/>
      <point x="-32" y="618" type="line"/>
      <point x="-21" y="660"/>
      <point x="-6" y="679"/>
      <point x="19" y="679" type="curve" smooth="yes"/>
      <point x="35" y="679"/>
      <point x="51" y="670"/>
      <point x="69" y="653" type="curve" smooth="yes"/>
      <point x="88" y="635"/>
      <point x="104" y="619"/>
      <point x="135" y="619" type="curve" smooth="yes"/>
      <point x="171" y="619"/>
      <point x="197" y="643"/>
      <point x="211" y="707" type="curve"/>
      <point x="187" y="707" type="line"/>
      <point x="174" y="656"/>
      <point x="156" y="644"/>
      <point x="133" y="644" type="curve" smooth="yes"/>
      <point x="114" y="644"/>
      <point x="100" y="658"/>
      <point x="83" y="673" type="curve" smooth="yes"/>
      <point x="62" y="692"/>
      <point x="42" y="704"/>
      <point x="25" y="704" type="curve" smooth="yes"/>
      <point x="-17" y="704"/>
      <point x="-44" y="680"/>
    </contour>
  </outline>
</glyph>
<glyph name="arrowleftrightbelowcomb" format="2">
  <unicode hex="034D"/>
  <anchor x="-55" y="0" name="_bottom"/>
  <anchor x="-95" y="-185" name="bottom"/>
  <outline>
    <contour>
      <point x="-128" y="-185" type="line"/>
      <point x="-118" y="-139" type="line"/>
      <point x="-53" y="-139" type="line"/>
      <point x="-62" y="-185" type="line"/>
      <point x="3" y="-129" type="line"/>
      <point x="-39" y="-70" type="line"/>
      <point x="-48" y="-115" type="line"/>
      <point x="-113" y="-115" type="line"/>
      <point x="-105" y="-70" type="line"/>
      <point x="-168" y="-127" type="line"/>
    </contour>
  </outline>
</glyph>
<glyph name="arrowupbelowcomb" format="2">
  <unicode hex="034E"/>
  <anchor x="-54" y="7" name="_bottom"/>
  <anchor x="-101" y="-216" name="bottom"/>
  <outline>
    <contour>
      <point x="-112" y="-216" type="line"/>
      <point x="-90" y="-216" type="line"/>
      <point x="-72" y="-128" type="line"/>
      <point x="-41" y="-128" type="line"/>
      <point x="-64" y="-43" type="line"/>
      <point x="-123" y="-128" type="line"/>
      <point x="-94" y="-128" type="line"/>
    </contour>
  </outline>
</glyph>
